<?xml version="1.0" encoding="utf-8"?>
<COLLADA xmlns="http://www.collada.org/2005/11/COLLADASchema" version="1.4.1" xmlns:xsi="http://www.w3.org/2001/XMLSchema-instance">
  <asset>
    <contributor>
      <author>Blender User</author>
      <authoring_tool>Blender 4.4.0 commit date:2025-03-17, commit time:17:00, hash:05377985c527</authoring_tool>
    </contributor>
    <created>2025-04-12T23:07:45</created>
    <modified>2025-04-12T23:07:45</modified>
    <unit name="meter" meter="1"/>
    <up_axis>Z_UP</up_axis>
  </asset>
  <library_images/>
  <library_geometries>
    <geometry id="edie8_3_display_002-mesh" name="edie8_3_display.002">
      <mesh>
        <source id="edie8_3_display_002-mesh-positions">
          <float_array id="edie8_3_display_002-mesh-positions-array" count="396">0 0.04752022 -0.04434883 0.001999974 0.04752022 -0.04434883 0.001999974 0.04073894 -0.0506491 0 0.04073894 -0.0506491 -9.99999e-4 -0.037 0.037 -0.004999995 -0.037 0.037 -0.004999995 -0.037 -0.01299995 0 -0.037 -0.01299995 0 -0.037 0.04699999 -9.99999e-4 -0.037 0.04699999 -0.004999995 -0.02399992 -0.01099991 -0.006999969 -0.02399992 -0.01099991 -0.006999969 -0.01999998 -0.01099991 -0.004999995 -0.01999998 -0.01099991 0.001999974 0.04364097 0.0481708 0 0.04364097 0.0481708 0 0.01599997 0.06999999 0.001999974 0.01599997 0.06999999 0.001999974 0.06495189 0.002499938 0 0.06495189 0.002499938 0 0.06440949 0.008742153 0.001999974 0.06440949 0.008742153 0.001999974 0.03313142 -0.05592226 0 0.03313142 -0.05592226 0.001999974 0.06254231 -0.01770246 0 0.06254231 -0.01770246 0 0.06394064 -0.01168727 0.001999974 0.06394064 -0.01168727 0.001999974 0.06247425 0.01794332 0 0.06247425 0.01794332 0 0.05985838 0.0253371 0.001999974 0.05985838 0.0253371 0 0.023 0 -9.99987e-4 0.023 0 -9.99987e-4 0.023 0.04699999 0 0.023 0.04699999 0 -0.018 -0.03999996 -9.99999e-4 -0.018 -0.03999996 -9.99999e-4 -0.003999948 -0.03999996 0 -0.003999948 -0.03999996 -0.004999995 -0.01999998 -0.01299995 -0.004999995 0.01299995 0.037 -0.004999995 0.01299995 -0.01299995 -0.004999995 -0.003999948 -0.01299995 -0.004999995 -0.003999948 -0.01099991 -0.004999995 -9.99987e-4 -0.01099991 -0.004999995 -0.02399992 -0.005999982 -0.004999995 -9.99987e-4 -0.005999982 0.001999974 0.02768653 -0.05880767 0 0.02768653 -0.05880767 -9.99987e-4 0.01299995 0.037 0.001999974 0.05111443 0.0401535 0 0.05111443 0.0401535 0.001999974 0.0665 0.002499938 0 0.0665 0.002499938 0.001999974 -0.06058228 -0.02355241 0 -0.06058228 -0.02355241 0 -0.05807381 -0.02919626 0.001999974 -0.05807381 -0.02919626 0 0.05557632 0.03370851 0.001999974 0.05557632 0.03370851 0 0.06058228 -0.02355241 0.001999974 0.06058228 -0.02355241 0.001999974 0.05807381 -0.02919626 0 0.05807381 -0.02919626 0 -0.01599997 0.06999999 -9.99987e-4 -0.01599997 0.06999999 -10e-4 -0.01599997 0.04699999 0 -0.01599997 0.04699999 0.001999974 -0.05557632 0.03370851 0 -0.05557632 0.03370851 0 -0.05985832 0.0253371 0.001999974 -0.05985832 0.0253371 0.001999974 0.01049995 -0.06599998 0 0.01049995 -0.06599998 -0.004999995 -0.01999998 -0.03299999 -0.004999995 -0.003999948 -0.03299999 0 -0.0665 -0.002499938 0.001999974 -0.0665 -0.002499938 0.001999974 -0.0665 0.002499938 0 -0.0665 0.002499938 0 0.01299995 -0.01299995 0 -0.003999948 -0.01299995 -10e-4 -0.003999948 -0.01299995 -9.99999e-4 -0.018 -0.01299995 0 -0.018 -0.01299995 -0.006999969 -0.01999998 -0.03299999 -0.006999969 -0.003999948 -0.03299999 0 0.0665 -0.002499938 0 0.06495189 -0.002499938 0 0.01599997 0.04699999 0 0.01299995 0 0 0.05333787 -0.03714925 0 -0.01049995 -0.06599998 0 -0.02768653 -0.05880767 0 -0.03313148 -0.05592221 0 -0.04073894 -0.0506491 0 -0.04752022 -0.04434883 0 -0.05333787 -0.03714925 0 -0.06254231 -0.01770246 0 -0.06394064 -0.01168721 0 -0.06495189 -0.002499938 0 -0.06495189 0.002499938 0 -0.06440949 0.008742213 0 -0.06247425 0.01794332 0 -0.05111443 0.0401535 0 -0.04364097 0.0481708 0.001999974 -0.06254231 -0.01770246 0.001999974 0.0665 -0.002499938 0.001999974 0.06495189 -0.002499938 0.001999974 -0.04073894 -0.0506491 0.001999974 -0.03313148 -0.05592221 0.001999974 -0.01599997 0.06999999 0.001999974 -0.04364097 0.0481708 0.001999974 -0.06495189 -0.002499938 0.001999974 -0.06394064 -0.01168721 0.001999974 -0.01049995 -0.06599998 0.001999974 -0.02768653 -0.05880767 0.001999974 -0.05111443 0.0401535 -9.99987e-4 0.01599997 0.04699999 -9.99987e-4 0.01599997 0.06999999 0.001999974 -0.06247425 0.01794332 -9.99987e-4 0.01299995 0 0.001999974 -0.05333787 -0.03714925 0.001999974 -0.04752022 -0.04434883 0.001999974 -0.06495189 0.002499938 0.001999974 0.05333787 -0.03714925 0.001999974 -0.06440949 0.008742213 -0.006999969 -9.99987e-4 -0.01099991 -0.006999969 -9.99987e-4 -0.005999982 -0.006999969 -0.02399992 -0.005999982 -0.006999969 -0.003999948 -0.01099991</float_array>
          <technique_common>
            <accessor source="#edie8_3_display_002-mesh-positions-array" count="132" stride="3">
              <param name="X" type="float"/>
              <param name="Y" type="float"/>
              <param name="Z" type="float"/>
            </accessor>
          </technique_common>
        </source>
        <source id="edie8_3_display_002-mesh-normals">
          <float_array id="edie8_3_display_002-mesh-normals-array" count="276">0 0.6806464 -0.7326121 0 -1 0 0 -1 -3.63799e-6 0 0 -1 0 0.6197728 0.7847813 0 0.9962462 0.08656615 0 0.9962459 0.08656841 0 0.5696784 -0.8218678 0 0.9740278 -0.2264285 0 0.9427379 0.3335346 0 1 0 -1 0 0 -1 0 0 -1 0 0 0 0.4682382 -0.8836023 0 0.4682379 -0.8836025 0 0 1 0 0.7314783 0.6818647 0 0.9785894 0.2058223 0 0.9785898 0.2058209 0 -0.913808 -0.4061467 0 -0.9138084 -0.4061456 0 0.8902908 0.4553925 0 0.913808 -0.4061467 0 0.9138084 -0.4061456 0 -1 0 0 0.9481935 -0.3176936 0 0.9481942 -0.3176915 0 -0.8902933 0.4553876 0 0.3860433 -0.9224807 0 0.3860433 -0.9224808 1 0 0 -5.1971e-7 0 -1 -0.9230841 -4.42765e-5 -0.3845982 -0.9230841 4.40051e-5 -0.3845982 8.56001e-7 0 -1 0 -0.9481942 -0.3176915 0 -0.9481935 -0.3176936 0 -0.569677 -0.8218687 0 -0.5696774 -0.8218685 0 0.9939967 -0.1094098 0 -0.6197728 0.7847813 0 -0.9939968 -0.1094098 0 -0.3860433 -0.9224808 0 -0.3860433 -0.9224807 0 -0.7314783 0.6818647 0 0.8221975 0.5692024 0 0.8221971 0.569203 0 -0.9427356 0.3335412 0 -0.7778066 -0.6285037 0 -0.7778058 -0.6285046 0 1 0 0 -0.8221971 0.569203 0 -0.8221975 0.5692024 0 -0.4682416 -0.8836005 0 -0.4682413 -0.8836007 0 -0.8591945 -0.5116494 0 -0.8591937 -0.5116505 0 0.8591945 -0.5116494 0 0.8591937 -0.5116505 0 -0.9785892 0.2058236 0 -0.9785894 0.2058221 1 0 0 1 0 0 1 0 0 1 -1.74425e-7 0 1 -1.49463e-7 0 1 -5.03581e-7 0 1 2.68924e-7 0 1 0 0 1 0 0 1 0 0 1 0 0 1 0 0 1 0 0 1 0 0 1 0 0 1 0 0 0 -0.6806464 -0.7326121 0 0.7778058 -0.6285046 0 0.7778066 -0.6285037 -1 0 5.6183e-7 -1 3.95433e-7 0 -1 0 0 -1 2.43745e-7 -5.96747e-7 -1 0 0 -1 3.97905e-7 -1.21146e-7 -1 0 0 -1 0 0 0 -0.9962459 0.08656841 0 -0.9962462 0.08656609 0 -0.9740284 -0.2264264</float_array>
          <technique_common>
            <accessor source="#edie8_3_display_002-mesh-normals-array" count="92" stride="3">
              <param name="X" type="float"/>
              <param name="Y" type="float"/>
              <param name="Z" type="float"/>
            </accessor>
          </technique_common>
        </source>
        <source id="edie8_3_display_002-mesh-map-0">
          <float_array id="edie8_3_display_002-mesh-map-0-array" count="1560">0 0 0 0 0 0 0 0 0 0 0 0 0 0 0 0 0 0 0 0 0 0 0 0 0 0 0 0 0 0 0 0 0 0 0 0 0 0 0 0 0 0 0 0 0 0 0 0 0 0 0 0 0 0 1.004919 0.3523896 0.8877294 0.2548716 0.8975652 0.2450358 0 0 0 0 0 0 0 0 0 0 0 0 0 0 0 0 0 0 0 0 0 0 0 0 0 0 0 0 0 0 0 0 0 0 0 0 0 0 0 0 0 0 0 0 0 0 0 0 0 0 0 0 0 0 0 0 0 0 0 0 0 0 0 0 0 0 0 0 0 0 0 0 0 0 0 0 0 0 0 0 0 0 0 0 0 0 0 0 0 0 0 0 0 0 0 0 0 0 0 0 0 0 0 0 0 0 0 0 0 0 0 0 0 0 0 0 0 0 0 0 0 0 0 0 0 0 0 0 0 0 0 0 0 0 0 0 0 0 0 0 0 0 0 0 0 0 0 0 0 0 0 0 0 0 0 0 0 0 0 0 0 0 0 0 0 0 0 0 0 0 0 0 0 0 0 0 0 0 0 0 0.008335113 0.9709708 0.008335113 0.9859278 0 0.9859278 0.008335113 0.9709708 0 0.9859278 0 0.9709708 0.9704669 0.8487896 0.9854238 0.8487896 0.9854238 0.886613 0.9704669 0.8487896 0.9854238 0.886613 0.9704669 0.886613 0 0 0 0 0 0 0 0 0 0 0 0 0 0 0 0 0 0 0 0 0 0 0 0 0 0 0 0 0 0 0 0 0 0 0 0 0 0 0 0 0 0 0 0 0 0 0 0 0 0 0 0 0 0 0 0 0 0 0 0 0 0 0 0 0 0 0 0 0 0 0 0 0 0 0 0 0 0 0 0 0 0 0 0 0 0 0 0 0 0 0 0 0 0 0 0 -0.1570573 0.486461 -0.1570573 0.486461 -0.1570573 0.486461 -0.1570573 0.486461 -0.1570573 0.486461 -0.1570573 0.486461 0 0 0 0 0 0 0 0 0 0 0 0 0 0 0 0 0 0 0 0 0 0 0 0 0 0 0 0 0 0 0 0 0 0 0 0 0 0 0 0 0 0 0 0 0 0 0 0 0 0 0 0 0 0 0 0 0 0 0 0 0 0 0 0 0 0 0 0 0 0 0 0 0 0 0 0 0 0 0.05607122 0.05599081 0.05607122 0.05599081 0.05607122 0.05599081 0 0 0 0 0 0 0 0 0 0 0 0 0 0 0 0 0 0 0 0 0 0 0 0 0 0 0 0 0 0 0 0 0 0 0 0 0 0 0 0 0 0 0 0 0 0 0 0 0 0 0 0 0 0 0 0 0 0 0 0 0 0 0 0 0 0 0 0 0 0 0 0 0 0 0 0 0 0 0 0 0 0 0 0 0 0 0 0 0 0 0 0 0 0 0 0 0 0 0 0 0 0 0.9876145 0.09222251 0.9854239 0.04608678 0.9876145 0 0 0 0 0 0 0 0 0 0 0 0 0 0 0 0 0 0 0 0 0 0 0 0 0 0 0 0 0 0 0 0 0 0 0 0 0 0 0 0 0 0 0 0 0 0 0 0 0 0 0 0 0 0 0 0 0 0 0 0 0 0 0 0 0 0 0 0 0 0 0 0 0 0 0 0 0 0 0 0 0 0 0 0 0 0 0 0 0 0 0 0 0 0 0 0 0 0 0 0 0 0 0 0 0 0 0 0 0 0 0 0 0 0 0 0 0 0 0 0 0 0 0 0 0 0 0 0 0 0 0 0 0 0 0 0 0 0 0 0 0 0 0 0 0 0 0 0 0 0 0 0 0 0 0 0 0 0 0 0 0 0 0 0 0 0 0 0 0 0 0 0 0 0 0 0 0 0 0 0 0 1.016219 0.3833608 1.026054 0.373525 1.049139 0.3966091 1.016219 0.3833608 1.049139 0.3966091 1.039303 0.4064449 1.108056 0.4751981 1.117892 0.4653623 1.142481 0.4899518 -0.1570573 0.486461 -0.1570573 0.486461 -0.1570573 0.486461 -0.1570573 0.486461 -0.1570573 0.486461 -0.1570573 0.486461 0 0 0 0 0 0 0 0 0 0 0 0 0 0 0 0 0 0 0 0 0 0 0 0 0 0 0 0 0 0 0.9704669 0.1722919 0.9854238 0.1722919 0.9854238 0.434413 0.9704669 0.1722919 0.9854238 0.434413 0.9704669 0.434413 0 0 0 0 0 0 0 0 0 0 0 0 0.9854238 0.6182982 0.9704669 0.6182982 0.9704669 0.4804295 0.9854238 0.6182982 0.9704669 0.4804295 0.9854238 0.4804295 0 0 0 0 0 0 0 0 0 0 0 0 0 0 0 0 0 0 0 0 0 0 0 0 0 0 0 0 0 0 0 0 0 0 0 0 0 0 0 0 0 0 0 0 0 0 0 0 0 0 0 0 0 0 0 0 0 0 0 0 0 0 0 0 0 0 0 0 0 0 0 0 0 0 0 0 0 0 0 0 0 0 0 0 0 0 0 0 0 0 0 0 0 0 0 0 0 0 0 0 0 0 0.9850432 0.8866131 0.9850432 0.9533398 0.9704669 0.9499871 0 0 0 0 0 0 0 0 0 0 0 0 0 0 0 0 0 0 0.6042674 -0.048262 0.5944315 -0.03842628 0.4811307 -0.151727 0 0 0 0 0 0 0.6042674 -0.048262 0.4811307 -0.151727 0.4909665 -0.1615628 0 0 0 0 0 0 0 0 0 0 0 0 0 0 0 0 0 0 0.9850431 0.886613 1 0.9440873 0.9850431 0.9440873 0.9854238 0.4804295 0.9704669 0.4804295 0.9704669 0.434413 0 0 0 0 0 0 -0.1570573 0.486461 -0.1570573 0.486461 -0.1570573 0.486461 0 0 0 0 0 0 0 0 0 0 0 0 0 0 0 0 0 0 0 0 0 0 0 0 0 0 0 0 0 0 0 0 0 0 0 0 0 0 0 0 0 0 0 0 0 0 0 0 0 0 0 0 0 0 0 0 0 0 0 0 0 0 0 0 0 0 0.02758353 0.2356114 0.06131917 0.1830309 0.1186023 0.1170855 0.1186023 0.1170855 0.3326535 -0.06450718 0.5875262 -0.07345396 0.5875262 -0.07345396 0.8137838 0.09268242 0.87555 0.1544487 0.87555 0.1544487 0.9128897 0.2045343 0.9493355 0.2700132 0.9493355 0.2700132 0.9722376 0.3281714 0.9902243 0.4009156 0.9330858 0.453203 0.943846 0.4528253 0.945066 0.4875786 0.9493355 0.2700132 0.9902243 0.4009156 0.9962895 0.4504817 0.5875262 -0.07345396 0.87555 0.1544487 0.9493355 0.2700132 0.02758353 0.2356114 0.1186023 0.1170855 0.5875262 -0.07345396 -0.02294886 0.3631058 -0.004181087 0.3034849 0.02758353 0.2356114 -0.03836494 0.4868015 -0.03579038 0.4369321 -0.02294886 0.3631058 0.02062577 0.5200295 0.01940566 0.4852762 0.03016608 0.4848985 -0.01352465 0.6470364 -0.02634382 0.5995175 -0.03696703 0.5266253 0.03138601 0.5196519 0.02062577 0.5200295 0.03016608 0.4848985 -0.03836494 0.4868015 -0.02294886 0.3631058 0.02758353 0.2356114 0.02758353 0.2356114 0.5875262 -0.07345396 0.9493355 0.2700132 0.9962895 0.4504817 1.010017 0.4898726 0.9976871 0.4903054 0.02758353 0.2356114 0.9493355 0.2700132 0.9962895 0.4504817 -0.03696703 0.5266253 -0.03836494 0.4868015 0.02758353 0.2356114 0.003721952 0.693082 -0.01352465 0.6470364 -0.03696703 0.5266253 0.06522345 0.7993516 0.02527862 0.737332 0.003721952 0.693082 0.1693457 0.9033529 0.1135726 0.8550685 0.06522345 0.7993516 0.2755861 0.9646844 0.2314118 0.9432253 0.1693457 0.9033529 0.5817441 1.011293 0.414484 1.017164 0.2755861 0.9646844 0.759181 0.9246989 0.7166203 0.9492025 0.5817441 1.011293 0.8705487 0.8284961 0.8182986 0.8805726 0.759181 0.9246989 0.9503695 0.7048581 0.9148721 0.7695261 0.8705487 0.8284961 0.982746 0.6120639 0.9687704 0.6592056 0.9503695 0.7048581 0.9976871 0.4903054 0.9922015 0.5637632 0.982746 0.6120639 0.02758353 0.2356114 0.9962895 0.4504817 0.9976871 0.4903054 0.003721952 0.693082 -0.03696703 0.5266253 0.02758353 0.2356114 0.1693457 0.9033529 0.06522345 0.7993516 0.003721952 0.693082 0.5817441 1.011293 0.2755861 0.9646844 0.1693457 0.9033529 0.8705487 0.8284961 0.759181 0.9246989 0.5817441 1.011293 0.982746 0.6120639 0.9503695 0.7048581 0.8705487 0.8284961 0.02758353 0.2356114 0.9976871 0.4903054 0.982746 0.6120639 0.1693457 0.9033529 0.003721952 0.693082 0.02758353 0.2356114 0.8705487 0.8284961 0.5817441 1.011293 0.1693457 0.9033529 0.02758353 0.2356114 0.982746 0.6120639 0.8705487 0.8284961 0.8705487 0.8284961 0.1693457 0.9033529 0.02758353 0.2356114 0 0 0 0 0 0 0 0 0 0 0 0 0 0 0 0 0 0 0 0 0 0 0 0 0 0 0 0 0 0 0 0 0 0 0 0 0 0 0 0 0 0 0 0 0 0 0 0 0 0 0 0 0 0 0 0 0 0 0 0 0 0 0 0 0 0 0 0 0 0 0 0 0 0 0 0 0 0 0 0 0 0 0 0 0 0 0 0 0 0 0 0 0 0 0 0 0 0 0 0 0 0 0 0 0 0 0 0 0 0 0 0 0 0 0 0 0 0 0 0 0 0 0 0 0 0 0 0 0 0 0 0 0 0 0 0 0 0 0 0 0 0 0 0 0 0 0 0 0 0 0 0 0 0 0 0 0 0 0 0 0 0 0 0 0 0 0 0 0 0 0 0 0 0 0.9950833 0.3622254 1.026054 0.373525 1.016219 0.3833608 0 0 0 0 0 0 0 0 0 0 0 0 0 0 0 0 0 0 0 0 0 0 0 0 0 0 0 0 0 0 0 0 0 0 0 0 0 0 0 0 0 0 0 0 0 0 0 0</float_array>
          <technique_common>
            <accessor source="#edie8_3_display_002-mesh-map-0-array" count="780" stride="2">
              <param name="S" type="float"/>
              <param name="T" type="float"/>
            </accessor>
          </technique_common>
        </source>
        <vertices id="edie8_3_display_002-mesh-vertices">
          <input semantic="POSITION" source="#edie8_3_display_002-mesh-positions"/>
        </vertices>
        <triangles count="260">
          <input semantic="VERTEX" source="#edie8_3_display_002-mesh-vertices" offset="0"/>
          <input semantic="NORMAL" source="#edie8_3_display_002-mesh-normals" offset="1"/>
          <input semantic="TEXCOORD" source="#edie8_3_display_002-mesh-map-0" offset="2" set="0"/>
          <p>0 0 0 1 0 1 2 0 2 0 0 3 2 0 4 3 0 5 4 1 6 5 1 7 6 1 8 6 1 9 7 1 10 8 1 11 8 1 12 9 1 13 4 1 14 6 2 15 8 2 16 4 2 17 10 3 18 11 3 19 12 3 20 10 3 21 12 3 22 13 3 23 14 4 24 15 4 25 16 4 26 14 4 27 16 4 28 17 4 29 18 5 30 19 5 31 20 5 32 18 6 33 20 6 34 21 6 35 22 7 36 23 7 37 3 7 38 22 7 39 3 7 40 2 7 41 24 8 42 25 8 43 26 8 44 24 8 45 26 8 46 27 8 47 28 9 48 29 9 49 30 9 50 28 9 51 30 9 52 31 9 53 32 10 54 33 10 55 34 10 56 32 10 57 34 10 58 35 10 59 36 3 60 37 3 61 38 3 62 36 3 63 38 3 64 39 3 65 10 11 66 13 11 67 40 11 68 6 11 69 5 11 70 41 11 71 42 11 72 43 11 73 44 11 74 42 11 75 44 11 76 45 11 77 10 11 78 40 11 79 6 11 80 46 11 81 10 11 82 6 11 83 41 12 84 42 12 85 45 12 86 41 13 87 45 13 88 47 13 89 46 11 90 6 11 91 41 11 92 46 11 93 41 11 94 47 11 95 48 14 96 49 14 97 23 14 98 48 15 99 23 15 100 22 15 101 41 16 102 5 16 103 4 16 104 41 16 105 4 16 106 50 16 107 51 17 108 52 17 109 15 17 110 51 17 111 15 17 112 14 17 113 29 18 114 28 18 115 21 18 116 29 19 117 21 19 118 20 19 119 19 16 120 18 16 121 53 16 122 19 16 123 53 16 124 54 16 125 55 20 126 56 20 127 57 20 128 55 21 129 57 21 130 58 21 131 59 22 132 60 22 133 31 22 134 59 22 135 31 22 136 30 22 137 61 23 138 62 23 139 63 23 140 61 24 141 63 24 142 64 24 143 65 25 144 66 25 145 67 25 146 65 1 147 67 1 148 68 1 149 62 26 150 61 26 151 25 26 152 62 27 153 25 27 154 24 27 155 68 16 156 67 16 157 9 16 158 68 16 159 9 16 160 8 16 161 69 28 162 70 28 163 71 28 164 69 28 165 71 28 166 72 28 167 49 29 168 48 29 169 73 29 170 49 30 171 73 30 172 74 30 173 75 31 174 76 31 175 43 31 176 75 31 177 43 31 178 40 31 179 77 1 180 78 1 181 79 1 182 77 1 183 79 1 184 80 1 185 81 3 186 82 3 187 83 3 188 84 3 189 85 3 190 7 3 191 42 3 192 81 3 193 83 3 194 84 3 195 7 3 196 6 3 197 42 32 198 83 32 199 84 32 200 6 33 201 40 33 202 43 34 203 43 35 204 42 35 205 84 35 206 84 3 207 6 3 208 43 3 209 75 3 210 86 3 211 87 3 212 75 3 213 87 3 214 76 3 215 15 11 216 52 11 217 59 11 218 59 11 219 30 11 220 29 11 221 29 11 222 20 11 223 19 11 224 19 11 225 54 11 226 88 11 227 89 11 228 26 11 229 25 11 230 19 11 231 88 11 232 89 11 233 59 11 234 29 11 235 19 11 236 16 11 237 15 11 238 59 11 239 35 11 240 90 11 241 16 11 242 81 11 243 91 11 244 32 11 245 35 11 246 16 11 247 59 11 248 32 11 249 35 11 250 59 11 251 59 11 252 19 11 253 89 11 254 89 11 255 25 11 256 61 11 257 61 11 258 64 11 259 92 11 260 92 11 261 0 11 262 3 11 263 3 11 264 23 11 265 49 11 266 49 11 267 74 11 268 93 11 269 93 11 270 94 11 271 95 11 272 95 11 273 96 11 274 97 11 275 97 11 276 98 11 277 57 11 278 57 11 279 56 11 280 99 11 281 99 11 282 100 11 283 101 11 284 101 11 285 77 11 286 80 11 287 102 11 288 103 11 289 104 11 290 101 11 291 80 11 292 102 11 293 57 11 294 99 11 295 101 11 296 95 11 297 97 11 298 57 11 299 49 11 300 93 11 301 95 11 302 92 11 303 3 11 304 49 11 305 89 11 306 61 11 307 92 11 308 32 11 309 59 11 310 89 11 311 39 11 312 82 11 313 81 11 314 81 11 315 32 11 316 89 11 317 89 11 318 92 11 319 49 11 320 49 11 321 95 11 322 57 11 323 57 11 324 101 11 325 102 11 326 102 11 327 104 11 328 71 11 329 71 11 330 70 11 331 105 11 332 105 11 333 106 11 334 65 11 335 65 11 336 68 11 337 8 11 338 7 11 339 85 11 340 36 11 341 105 11 342 65 11 343 8 11 344 105 11 345 8 11 346 7 11 347 102 11 348 71 11 349 105 11 350 81 11 351 89 11 352 49 11 353 39 11 354 81 11 355 49 11 356 57 11 357 102 11 358 105 11 359 57 11 360 105 11 361 7 11 362 36 11 363 39 11 364 49 11 365 57 11 366 7 11 367 36 11 368 49 11 369 57 11 370 36 11 371 107 36 372 99 36 373 56 36 374 107 37 375 56 37 376 55 37 377 54 10 378 53 10 379 108 10 380 54 10 381 108 10 382 88 10 383 88 3 384 108 3 385 109 3 386 88 3 387 109 3 388 89 3 389 110 38 390 96 38 391 95 38 392 110 39 393 95 39 394 111 39 395 89 40 396 109 40 397 27 40 398 89 40 399 27 40 400 26 40 401 112 41 402 65 41 403 106 41 404 112 41 405 106 41 406 113 41 407 114 42 408 101 42 409 100 42 410 114 42 411 100 42 412 115 42 413 93 43 414 116 43 415 117 43 416 93 44 417 117 44 418 94 44 419 113 45 420 106 45 421 105 45 422 113 45 423 105 45 424 118 45 425 60 46 426 59 46 427 52 46 428 60 47 429 52 47 430 51 47 431 119 10 432 120 10 433 16 10 434 119 10 435 16 10 436 90 10 437 72 48 438 71 48 439 104 48 440 72 48 441 104 48 442 121 48 443 35 16 444 34 16 445 119 16 446 35 16 447 119 16 448 90 16 449 122 10 450 91 10 451 81 10 452 81 10 453 42 10 454 41 10 455 41 10 456 50 10 457 122 10 458 122 10 459 81 10 460 41 10 461 85 1 462 84 1 463 37 1 464 85 1 465 37 1 466 36 1 467 123 49 468 98 49 469 97 49 470 123 50 471 97 50 472 124 50 473 39 51 474 38 51 475 83 51 476 39 10 477 83 10 478 82 10 479 16 16 480 120 16 481 66 16 482 65 16 483 112 16 484 17 16 485 16 16 486 66 16 487 65 16 488 65 16 489 17 16 490 16 16 491 74 3 492 73 3 493 116 3 494 74 3 495 116 3 496 93 3 497 118 52 498 105 52 499 70 52 500 118 53 501 70 53 502 69 53 503 94 54 504 117 54 505 111 54 506 94 55 507 111 55 508 95 55 509 80 16 510 79 16 511 125 16 512 80 16 513 125 16 514 102 16 515 98 56 516 123 56 517 58 56 518 98 57 519 58 57 520 57 57 521 126 58 522 92 58 523 64 58 524 126 59 525 64 59 526 63 59 527 91 3 528 122 3 529 33 3 530 91 3 531 33 3 532 32 3 533 121 60 534 104 60 535 103 60 536 121 61 537 103 61 538 127 61 539 45 10 540 128 10 541 129 10 542 45 10 543 129 10 544 47 10 545 60 31 546 51 31 547 14 31 548 14 31 549 17 31 550 112 31 551 112 31 552 113 31 553 118 31 554 118 31 555 69 31 556 72 31 557 72 31 558 121 31 559 127 31 560 125 31 561 79 31 562 78 31 563 72 62 564 127 62 565 125 62 566 112 31 567 118 31 568 72 31 569 60 63 570 14 63 571 112 63 572 28 31 573 31 31 574 60 31 575 18 31 576 21 31 577 28 31 578 108 31 579 53 31 580 18 31 581 24 31 582 27 31 583 109 31 584 109 31 585 108 31 586 18 31 587 18 31 588 28 31 589 60 31 590 60 64 591 112 64 592 72 64 593 125 31 594 78 31 595 114 31 596 60 31 597 72 31 598 125 31 599 109 31 600 18 31 601 60 31 602 62 31 603 24 31 604 109 31 605 126 31 606 63 31 607 62 31 608 2 31 609 1 31 610 126 31 611 48 31 612 22 31 613 2 31 614 116 31 615 73 31 616 48 31 617 111 65 618 117 65 619 116 65 620 124 31 621 110 31 622 111 31 623 58 66 624 123 66 625 124 66 626 107 67 627 55 67 628 58 67 629 114 68 630 115 68 631 107 68 632 60 69 633 125 69 634 114 69 635 62 70 636 109 70 637 60 70 638 2 71 639 126 71 640 62 71 641 116 72 642 48 72 643 2 72 644 124 73 645 111 73 646 116 73 647 107 31 648 58 31 649 124 31 650 60 74 651 114 74 652 107 74 653 2 75 654 62 75 655 60 75 656 124 76 657 116 76 658 2 76 659 60 77 660 107 77 661 124 77 662 124 31 663 2 31 664 60 31 665 124 78 666 97 78 667 96 78 668 124 78 669 96 78 670 110 78 671 1 79 672 0 79 673 92 79 674 1 80 675 92 80 676 126 80 677 67 81 678 66 81 679 120 81 680 119 11 681 34 11 682 33 11 683 67 82 684 120 82 685 119 82 686 4 83 687 9 83 688 67 83 689 33 11 690 122 11 691 50 11 692 50 84 693 4 84 694 67 84 695 119 85 696 33 85 697 50 85 698 67 86 699 119 86 700 50 86 701 83 87 702 38 87 703 37 87 704 83 88 705 37 88 706 84 88 707 46 1 708 130 1 709 11 1 710 46 1 711 11 1 712 10 1 713 101 3 714 114 3 715 78 3 716 101 3 717 78 3 718 77 3 719 13 1 720 12 1 721 86 1 722 86 1 723 75 1 724 40 1 725 86 1 726 40 1 727 13 1 728 47 16 729 129 16 730 130 16 731 47 16 732 130 16 733 46 16 734 127 89 735 103 89 736 102 89 737 127 90 738 102 90 739 125 90 740 43 10 741 76 10 742 87 10 743 87 10 744 131 10 745 44 10 746 87 10 747 44 10 748 43 10 749 115 91 750 100 91 751 99 91 752 115 91 753 99 91 754 107 91 755 12 11 756 11 11 757 130 11 758 130 11 759 129 11 760 128 11 761 131 11 762 87 11 763 86 11 764 130 11 765 128 11 766 131 11 767 131 11 768 86 11 769 12 11 770 12 11 771 130 11 772 131 11 773 44 3 774 131 3 775 128 3 776 44 3 777 128 3 778 45 3 779</p>
        </triangles>
      </mesh>
    </geometry>
  </library_geometries>
  <library_visual_scenes>
    <visual_scene id="Scene" name="Scene">
      <node id="edie8_3_display" name="edie8_3_display" type="NODE">
        <matrix sid="transform">1 0 0 0 0 1 0 0 0 0 1 0 0 0 0 1</matrix>
        <instance_geometry url="#edie8_3_display_002-mesh" name="edie8_3_display"/>
      </node>
    </visual_scene>
  </library_visual_scenes>
  <scene>
    <instance_visual_scene url="#Scene"/>
  </scene>
</COLLADA>