<?xml version="1.0" encoding="utf-8"?>
<COLLADA xmlns="http://www.collada.org/2005/11/COLLADASchema" version="1.4.1" xmlns:xsi="http://www.w3.org/2001/XMLSchema-instance">
  <asset>
    <contributor>
      <author>Blender User</author>
      <authoring_tool>Blender 4.2.1 LTS commit date:2024-08-19, commit time:11:21, hash:396f546c9d82</authoring_tool>
    </contributor>
    <created>2025-03-26T15:14:20</created>
    <modified>2025-03-26T15:14:20</modified>
    <unit name="meter" meter="1"/>
    <up_axis>Z_UP</up_axis>
  </asset>
  <library_effects>
    <effect id="Material_003-effect">
      <profile_COMMON>
        <technique sid="common">
          <lambert>
            <emission>
              <color sid="emission">0 0 0 1</color>
            </emission>
            <diffuse>
              <color sid="diffuse">0.0543143 0.0543143 0.0543143 1</color>
            </diffuse>
            <index_of_refraction>
              <float sid="ior">1.5</float>
            </index_of_refraction>
          </lambert>
        </technique>
      </profile_COMMON>
    </effect>
  </library_effects>
  <library_images/>
  <library_materials>
    <material id="Material_003-material" name="Material.003">
      <instance_effect url="#Material_003-effect"/>
    </material>
  </library_materials>
  <library_geometries>
    <geometry id="edie_8_3_ear-mesh" name="edie_8_3_ear">
      <mesh>
        <source id="edie_8_3_ear-mesh-positions">
          <float_array id="edie_8_3_ear-mesh-positions-array" count="2001">0.01237398 -0.007511675 0.03405731 0.01119989 -0.0132656 0.02908521 0.01272064 -0.007448613 0.03406667 0.01357901 -0.007289826 0.03355121 0.009256482 -0.005638003 0.03528684 0.01313573 -0.005092859 0.03541868 0.01331251 -0.003588259 0.03597438 0.01421868 -0.003524541 0.03543084 0.01307767 -0.005497336 0.03523123 0.008465647 -0.01346838 0.02900427 0.01035505 -0.01650428 0.02544307 0.01199603 -0.01319575 0.02853912 0.004415571 -0.0184772 0.02268493 0.009806513 -0.01917314 0.02178871 0.01070594 -0.01820844 0.02259999 0.009851634 -0.02251154 0.01594102 3.50202e-4 -0.02240151 0.01528245 0.007647931 -0.02444148 0.01186341 0.01035332 -0.02342569 0.01380085 0.01048517 -0.02226626 0.01591002 0.003749668 -0.02544659 0.009049296 0.004808306 -0.02608633 0.007284104 0.01281124 -0.02422463 0.009281814 0.001912593 -0.02499616 0.00987482 -7.87561e-6 -0.02487903 0.009547293 0.01162213 -0.02417957 0.01093143 0.01263916 -0.0242415 0.009485542 0.004250645 -0.02169996 0.008497834 0.00487703 -0.02620899 0.00689429 0.004899978 -0.02169996 0.006499946 0.002549648 -0.02169996 0.009733736 4.50321e-4 -0.02169996 0.009733736 -0.003602623 -0.02511793 0.007029652 -0.001381576 -0.02511531 0.008304476 -0.001250624 -0.02169996 0.008497834 -0.001899957 -0.02564001 0.006499946 -0.001364231 -0.02629339 0.004668056 -0.001899957 -0.02169996 0.006499946 -0.00732398 -0.02653664 -0.001799225 4.85985e-5 -0.02683609 0.0034253 -0.001250624 -0.02169996 0.004502117 -5.34068e-4 -0.02750146 2.57077e-4 0.001846075 -0.02710127 0.00311762 4.50321e-4 -0.02169996 0.003266215 0.005203127 -0.02755463 -0.00192511 0.009320616 -0.02627819 0.003648459 0.003407597 -0.02704411 0.003685534 0.002549648 -0.02169996 0.003266215 -0.002721428 -0.02757751 -0.00184375 0.001257538 -0.02792358 -0.001902937 -0.003599941 -0.02524191 -0.001324415 0.001501441 -0.0187 -2.04145e-5 -0.0133391 -0.02193754 0.006374061 -0.01095587 -0.02536249 -0.001823306 -0.006358504 -0.02458477 -0.001301229 -0.009332597 -0.02011799 0.01423704 -0.004960596 -0.01730269 0.02138358 -3.43499e-4 -0.01356923 0.02761662 0.004393279 -0.009006917 0.03277552 0.006349444 -0.008630454 0.03328055 0.009635627 -0.00801444 0.03384804 -0.01686829 -0.02271097 -0.00198704 -0.01941275 -0.02051937 5.25821e-4 -0.01864528 -0.02171421 -0.002070367 -0.02320641 -0.01830017 -0.002310931 -0.01793974 -0.01961839 -0.001573622 -0.02237635 -0.01613706 -0.00181365 -0.01974958 -0.01928615 0.003481805 -0.02371227 -0.01652079 0.001814365 -0.0195772 -0.01802659 0.006791293 -0.02341187 -0.01500278 0.005887567 -0.01880782 -0.01675677 0.01041716 -0.02250164 -0.01369363 0.009792566 -0.01792335 -0.01591563 0.01296663 -0.02109271 -0.01255857 0.01350063 -0.01672255 -0.01508706 0.01557511 -0.01520073 -0.01427799 0.01819038 -0.01926386 -0.01156556 0.01699155 -0.01336574 -0.01349371 0.02075451 -0.01707237 -0.01068717 0.02024739 -0.01123964 -0.01273822 0.02320641 -0.01456159 -0.009900152 0.02325022 -0.008855223 -0.01201337 0.0254895 -0.01176631 -0.009184837 0.02598071 -0.006259739 -0.01132059 0.02755087 -0.008716702 -0.008524596 0.02841722 -0.003576993 -0.01067596 0.02930897 -0.005441367 -0.007905364 0.03053551 -9.41772e-4 -0.01009207 0.03072381 0.001599371 -0.009562253 0.03182893 -0.001970291 -0.007315278 0.03230905 0.004030227 -0.009077787 0.03266775 0.001663267 -0.00674498 0.03371006 0.005420684 -0.00618726 0.03471094 -0.01100718 -0.02304649 -0.001334011 -0.01553755 -0.02097535 -0.001461982 0.00440669 0.01847678 0.02268433 0.009662508 0.02057433 0.01955246 0.009851634 0.02251154 0.01594102 0.01048517 0.02226626 0.01591002 3.40703e-4 0.0224002 0.01528197 0.007663965 0.02442985 0.01189112 0.01049011 0.02357375 0.01338356 0.0112254 0.02336734 0.01304692 0.009993255 0.01810991 0.0233289 0.01070618 0.01820725 0.02260172 0.00845766 0.01346904 0.02900367 0.01124221 0.01311397 0.02923822 0.0119962 0.01319503 0.02853977 0.01236724 0.007512867 0.03405708 0.01272064 0.007448732 0.03406655 0.01272678 0.007421612 0.03408616 0.01421862 0.003524601 0.0354309 0.01357901 0.007289886 0.03355121 0.009635746 0.00801438 0.0338481 -3.53535e-4 0.01356899 0.02761393 0.004383504 0.009008765 0.03277271 0.006349623 0.008630454 0.03328055 -0.004970669 0.01730084 0.02138108 -0.001899957 0.02564001 0.006499946 -0.003612458 0.02511578 0.007029354 -0.009342551 0.02011477 0.01423507 -0.001302659 0.02508586 0.008424818 1.88407e-4 0.02487367 0.009636819 0.002063632 0.02501988 0.009852945 -0.002721369 0.02757751 -0.00184375 -0.007333993 0.02653384 -0.001799166 -0.01334869 0.02193337 0.006372809 -5.53549e-4 0.02750331 2.35914e-4 -0.001360952 0.02629542 0.00466293 -0.006366074 0.02458268 -0.001301169 -0.01095587 0.02536243 -0.001823306 -0.01100057 0.02304911 -0.001333892 8.86431e-4 0.02792173 -0.001898944 -0.003599941 0.02524191 -0.001324415 -0.003599941 0.02197998 -6.48927e-4 -0.003599941 0.0187 -6.6976e-5 5.10134e-5 0.02683669 0.003424167 0.001846134 0.02710127 0.00311762 0.005191028 0.02755582 -0.001924872 4.50321e-4 0.02169996 0.003266215 0.003407776 0.02704411 0.003685653 0.002549648 0.02169996 0.003266215 -0.001250624 0.02169996 0.004502117 -0.001899957 0.02169996 0.006499946 -0.001250624 0.02169996 0.008497834 4.50321e-4 0.02169996 0.009733736 0.00380516 0.02546763 0.008999168 0.002549648 0.02169996 0.009733736 0.004808306 0.02608627 0.007284164 0.004250645 0.02169996 0.008497834 0.009317994 0.02627933 0.003644585 0.00487703 0.02620899 0.00689429 0.0128144 0.02422422 0.009278178 0.01272368 0.02423399 0.009384334 0.01152569 0.02415668 0.01109325 -0.01941275 0.02051937 5.25825e-4 -0.01687729 0.02270615 -0.001987397 -0.01864534 0.02171421 -0.002070367 -0.01793342 0.01962262 -0.001573383 -0.02242243 0.0190047 -0.00226885 -0.02171993 0.01677137 -0.001778006 -0.0195772 0.01802659 0.006791293 -0.01974952 0.01928615 0.003481805 -0.01970851 0.01960462 0.002691447 -0.01554399 0.02097195 -0.00146228 -0.0167225 0.01508706 0.01557517 -0.01792335 0.01591563 0.01296669 -0.01880782 0.01675677 0.01041722 -0.0188899 0.01685398 0.01012969 -0.01123958 0.01273816 0.02320653 -0.01165038 0.01287466 0.0227673 -0.01336568 0.01349365 0.02075463 -0.01520073 0.01427799 0.01819044 -0.00625962 0.01132059 0.02755099 -0.008855104 0.01201331 0.02548956 0.004030346 0.009077727 0.03266781 0.00159949 0.009562253 0.03182899 -9.41642e-4 0.01009202 0.03072386 -0.003576874 0.0106759 0.02930903 0.005481123 0.008072972 0.03360664 0.001893758 0.008397698 0.03277182 -0.001616179 0.008716285 0.03156548 -0.005019366 0.009020209 0.03001296 -0.00829488 0.009298264 0.02813965 -0.01142925 0.009536802 0.02596813 -0.01445329 0.01320129 0.02018314 -0.01441442 0.009719192 0.02351558 -0.01713341 0.01343125 0.01733219 -0.0196886 0.01353532 0.01420146 -0.0221219 0.01346731 0.01075339 -0.02123326 0.01681369 0.006573438 -0.02442646 0.0131613 0.006911993 -0.02353751 0.01645022 0.002463757 -0.02103686 0.01942932 3.31735e-4 0.009107112 0.007747769 0.03404843 0.02029162 -0.0193538 -0.00192511 0.0215007 -0.01800107 0.00499773 0.01717633 -0.02216511 0.006091833 0.02126526 -0.01779991 0.005804777 0.01707994 -0.0222395 -0.00192511 0.01100611 -0.02579116 0.001632332 0.0153799 -0.0233426 0.007062196 0.01477801 -0.02342176 0.00804758 0.01721948 -0.02186357 0.006736636 0.02436864 -0.01387405 -0.00192511 0.02185243 -0.0175724 0.004955589 0.0244953 -0.01291161 0.005648493 0.02480626 -0.01307553 0.004799962 0.02515304 -0.01239526 -0.00192511 0.02658772 -0.008911252 0.004799962 0.02771729 -0.004251182 -0.00192511 0.02767556 -0.004514515 0.004799962 0.02687942 -0.006650447 0.005648493 0.02804136 0 0.004799962 0.02771812 0.004245698 -0.00192511 0.02767556 0.004514515 0.004799962 0.02768993 0 0.005648493 0.02804136 1.13882e-5 -0.00192511 0.02515357 0.01239418 -0.00192511 0.02658772 0.008911252 0.004799962 0.02687942 0.006650447 0.005648493 0.02480626 0.01307553 0.004799962 0.02150642 0.01799422 0.004997074 0.02323102 0.01570469 0.004841923 0.02435368 0.01390022 -0.00192511 0.0244953 0.01291161 0.005648493 0.02029198 0.01935344 -0.00192511 0.01717638 0.02216506 0.006091833 0.02080076 0.0188055 0.0050987 0.02126538 0.01779991 0.005804657 0.01342868 0.02461683 -0.00192511 0.01107323 0.02576243 0.001677691 0.01563906 0.02319914 0.006899774 0.0170803 0.0222392 -0.00192511 0.01721954 0.02186357 0.006736636 0.009465157 0.02639561 -0.00192511 0.00527662 0.02754044 -0.00192511 0.014122 0.02390617 0.007989048 0.006599962 0.02519112 -0.001447796 0.001501441 0.0187 -2.04145e-5 0.01065242 0.023763 -0.001447796 0.01442205 0.02168315 -0.001447796 0.02065342 0.01586157 -0.001447796 0.02465802 0.00837475 -0.001447796 0.02196729 0.01398539 -0.001447796 0.02604138 1.20946e-5 -0.001447796 0.02465802 -0.008374631 -0.001447796 0.02198195 -0.01396232 -0.001447796 0.0206539 -0.01586091 -0.001447796 0.01342803 -0.02461719 -0.00192511 0.01442176 -0.02168333 -0.001447796 0.009464263 -0.02639597 -0.00192511 0.010652 -0.02376317 -0.001447796 0.00527662 -0.02754044 -0.00192511 0.006599962 -0.02519112 -0.001447796 0.006599962 -0.0187 -2.00174e-4 0.006599962 -0.02195453 -7.77898e-4 -0.02437567 0.01385128 -0.001923799 -0.02472788 0.01674491 -0.002392768 -0.02379077 0.01458472 -0.001891493 -0.02695858 0.01386928 -0.002513885 -0.02569639 0.01559966 -0.002445101 -0.02494937 0.01306647 -0.001955509 -0.02736628 0.008632659 -0.002089321 -0.02762258 0.007977664 -0.002103567 -0.02840816 0.01139855 -0.0025931 -0.02019673 0.0171532 0.001273632 -0.01850026 0.01848059 0.001025378 -0.003599941 0.02354288 0.005250096 -0.0112183 0.01976913 0.008327901 -0.003599941 0.0237863 0.004474341 0.00149995 0.0187 0.004700243 -0.003599941 0.0187 0.00999999 2.27784e-4 0.0187 0.007773101 -3e-4 0.0187 0.006499946 2.27784e-4 0.0187 0.00522685 0.006599962 0.02195453 -7.77898e-4 0.006599962 0.0187 -2.00174e-4 0.006599962 0.0187 0.00999999 0.002772212 0.0187 0.00522685 0.006599962 0.0247305 0.00408405 0.006599962 0.02314561 0.009709239 0.006599962 0.02325648 0.009418487 0.006599962 0.023036 0.00999999 0.006599962 0.02519112 -8.54091e-4 0.01189714 0.02316486 0.002868473 0.01457154 0.02158296 0.004954755 0.02081626 0.01564729 0.006177008 0.01898026 0.01782983 0.006513595 0.01713162 0.01961272 0.007103979 0.02243196 0.01322728 0.006033539 0.004497647 0.02675873 0.004895627 0.0208165 -0.01564693 0.006177127 0.0237447 -0.01069313 0.005999982 0.02244967 -0.01319712 0.006032705 0.01895958 -0.01785182 0.006519019 0.01182913 -0.02319967 0.002817213 0.01713162 -0.01961272 0.007103979 0.01455205 -0.02159607 0.00493896 0.006599962 -0.02519112 -8.54349e-4 0.00149995 -0.0187 0.004700243 0.006599962 -0.02473044 0.004084229 0.006599962 -0.0187 0.00999999 0.002772212 -0.0187 0.007773101 0.002772212 -0.0187 0.00522685 0.003299951 -0.0187 0.006499946 -0.003599941 -0.02197998 -6.48927e-4 -0.003599941 -0.0187 -6.6976e-5 -0.003599941 -0.0187 0.00999999 2.27784e-4 -0.0187 0.00522685 -0.003599941 -0.0237863 0.004474341 -0.003599941 -0.023548 0.005234062 -0.003599941 -0.02177971 0.00999999 -0.01121336 -0.01977133 0.008328139 -0.01849621 -0.01848119 0.001031517 -0.01828473 -0.0161035 0.007219612 -0.0186392 -0.01730549 0.003962159 -0.02399516 -0.01752513 -0.002352952 -0.02409249 -0.01421254 -0.001907944 -0.02253097 -0.01435643 0.00274831 -0.02685987 -0.01401484 -0.002508282 -0.02441489 -0.0137974 -0.001925706 -0.02696371 -0.01386022 -0.002513945 -0.02575033 -0.01183599 -0.001999616 -0.02690297 -0.01216453 0.002139925 -0.02782517 -0.007412612 -0.002114832 -0.02831172 -0.01158404 -0.002587735 -0.02799546 -0.006898999 -0.002124369 -0.02901077 -0.001604139 -0.002181291 -0.02942407 -0.009148955 -0.00264889 -0.02543795 -0.009950876 0.003161966 -0.02720218 -0.005063533 0.003431499 -0.02906614 1.4193e-5 -0.002184152 -0.02720654 0.005047023 0.003430485 -0.02779418 1.99289e-5 0.003492832 -0.03085583 -0.00388509 -0.002727627 -0.03116124 1.93269e-5 -0.002744793 -0.02906465 2.57074e-4 -0.002184033 -0.03076153 -0.004442751 -0.002722442 -0.03004169 -0.002167105 0.002530634 -0.03027796 0.006578445 -0.002695858 -0.03112006 0.001430392 -0.002742469 -0.02902865 -0.007302165 0.002383589 -0.03097146 0.003072619 -0.002734303 -0.02995264 0.002986609 0.002528488 -0.02890598 0.01036846 -0.002620339 -0.02879387 0.003498375 -0.002168595 -0.02539938 0.009791851 0.003520309 -0.02299463 0.01384353 0.002696692 -0.02656388 0.01252162 0.002535104 -0.02879846 0.007939755 0.002434909 0.02578252 -0.003662049 0.005999982 0.02578252 0.003662049 0.005999982 0.0237447 0.01069313 0.005999982 0.0264905 -0.004324972 0.005999982 0.0237447 -0.01251596 0.005999982 0.02105617 -0.01682043 0.006147503 0.0264905 0.004324972 0.005999982 0.0237447 0.01251596 0.005999982 0.02230554 0.01503264 0.006039977 0.01080906 -0.0194351 0.01734328 0.01081454 -0.02054548 0.01721847 0.01096361 -0.02143734 0.01557576 0.01061904 -0.02215385 0.01587426 0.01099234 -0.02042526 0.01537674 0.01135319 -0.02232611 0.0136699 0.0112248 -0.02336674 0.0130487 0.01080358 -0.01948285 0.01900583 0.01082807 -0.01812052 0.01957815 0.01094079 -0.01817208 0.02100837 0.01101773 -0.01671862 0.0216875 0.01124888 -0.01652163 0.02326935 0.01129496 -0.01535004 0.02353906 0.01172089 -0.01453953 0.02567136 0.01179414 -0.01329648 0.02599412 0.01228129 -0.01240271 0.02794486 0.01302242 -0.008621275 0.03050172 0.0130757 -0.009404897 0.0306726 0.01238328 -0.01105546 0.02832055 0.01366007 -0.006064832 0.0324642 0.01374697 -0.006735205 0.03271943 0.0140599 -0.003979444 0.03361827 0.01411002 -0.004964351 0.03375965 0.01434773 -8.41215e-6 0.03442019 0.01434773 -0.003237307 0.03442019 0.01429432 -0.001702368 0.03427308 0.01416283 -0.003195106 0.03390765 0.01452016 1.74075e-5 0.03489387 0.01440072 0 0.03595501 0.01434057 5.96866e-4 0.03440052 0.01434773 0.003237307 0.03442019 0.009864389 -0.002071261 0.0343818 0.00992614 4.78771e-4 0.03457009 0.01223099 -0.006328523 0.03244709 0.01073825 -0.006605863 0.03235691 0.00975728 -0.004546821 0.03359699 0.007793247 -0.01301681 0.02653408 0.009068906 -0.02137333 0.01378053 0.003167927 -0.01840704 0.01896518 0.01141321 -0.02118337 0.01346123 0.006886661 -0.02307355 0.009895026 0.01174676 -0.02275109 0.01249223 0.01205599 -0.02162128 0.01178407 0.01236504 -0.02306514 0.01119267 0.01283043 -0.02174532 0.01045268 0.01093524 -0.02308428 0.007534682 0.01318293 -0.02313715 0.009979844 0.01377463 -0.0215978 0.009309828 0.01417636 -0.02291256 0.00892347 0.01488488 -0.02115935 0.008345723 0.01541429 -0.02231377 0.007983267 0.01603287 -0.0204724 0.007620155 0.01691466 -0.02121657 0.007194519 0.0191878 -0.01903891 0.006464719 0.02071887 -0.01725602 0.006189823 0.01720815 -0.02181851 0.006791591 0.01258915 -0.02393662 0.01027327 0.02011066 0.01800072 0.006281912 0.02074408 0.01722401 0.006186425 0.01868247 0.0195676 0.006589472 0.01691472 0.02121651 0.007194519 0.01603055 0.02047365 0.007621407 0.01499766 0.02254867 0.008264005 0.01487082 0.02116644 0.008356094 0.01594686 0.02196735 0.007667183 0.01408368 0.0229448 0.009008407 0.01374965 0.02160537 0.009335458 0.01325094 0.02313089 0.009895622 0.01280158 0.02174657 0.01049435 0.01252734 0.0231046 0.01091694 0.01203501 0.02161377 0.01182794 0.01093524 0.02308428 0.007534861 0.01183432 0.02281665 0.01227706 0.01140064 0.0211687 0.01350384 0.01131075 0.02226102 0.01382601 0.01098775 0.02041107 0.01540744 0.01081556 0.02056145 0.01719731 0.01080906 0.01943719 0.01734441 0.006887972 0.02307265 0.009897351 0.01096361 0.02143734 0.01557576 0.01080065 0.01954078 0.0189085 0.01082968 0.01810199 0.01960724 0.003160417 0.01840716 0.01896351 0.009076714 0.021366 0.01379543 0.01091229 0.01836591 0.02071803 0.01102072 0.01670199 0.02171134 0.01112222 0.01713192 0.02246183 0.01129662 0.01534265 0.02354866 0.01149576 0.01544952 0.02461022 0.01179331 0.01329976 0.02599048 0.007785677 0.01301908 0.02653145 0.01232123 0.01225537 0.02809327 0.01238209 0.01105993 0.02831619 0.01190012 0.01384294 0.02644503 0.01301395 0.00964111 0.03047436 0.01302176 0.008623838 0.03049951 0.01374691 0.006735324 0.03271937 0.01365882 0.006069898 0.03246057 0.01222294 0.00633192 0.03244537 0.01388537 0.005013108 0.03312087 0.009677648 0.005373001 0.03318446 0.01411849 0.004911363 0.03378343 0.01418858 0.002966105 0.03397959 0.009893357 0.002991676 0.03416478 0.01419574 0.002898275 0.0339995 0.01451975 1.5325e-4 0.03489279 0.01061904 0.02215391 0.01587426 0.01259052 0.02393674 0.01027125 0.01477909 0.02342128 0.008046805 0.01720821 0.02181845 0.006791591 0.009281873 0.00528109 0.03544956 0.01313322 0.005108475 0.03541171 0.01308542 0.0054394 0.03525912 0.005431711 0.005434036 0.03505718 0.001618623 0.005585193 0.03424036 -0.002112805 0.005729198 0.03302127 -0.005727827 0.00585711 0.03142666 -0.009200453 0.005957126 0.02948349 -0.01251214 0.006014645 0.02721583 -0.01564949 0.006011903 0.02464264 -0.01724594 0.009824931 0.02079153 -0.01860201 0.005927324 0.02177548 -0.01992052 0.009828209 0.01779556 -0.02135902 0.005733907 0.01861655 -0.02243328 0.009695768 0.01451373 -0.0239064 0.005397439 0.01515555 -0.02477324 0.009382665 0.01091188 -0.02622151 0.004872381 0.01136451 -0.02691507 0.008826315 0.006924569 -0.0282635 0.004096984 0.007188081 0.009365022 0.002614378 0.03629726 0.01339375 0.002600252 0.03622692 0.01331233 0.003588318 0.03597438 0.005382001 0.002583801 0.03591519 0.001439034 0.002549767 0.03509008 -0.002415597 0.00250715 0.03384512 -0.006143569 0.002447187 0.03220766 -0.009715259 0.0023579 0.0302056 -0.01310789 0.002224504 0.02786421 -0.0163033 0.002028882 0.0252037 -0.0192852 0.001749277 0.02223771 -0.02203601 0.001358747 0.0189715 -0.02453303 8.23636e-4 0.01539981 -0.02674275 9.9857e-5 0.01150238 -0.02861082 -8.71032e-4 0.007237434 0.009450316 -1.58969e-4 0.03656381 0.01348179 6.52751e-5 0.03650075 0.01348185 1.92598e-5 0.03650093 0.005418896 -3.7433e-4 0.03615993 0.001435041 -5.94869e-4 0.03530532 -0.002451419 -8.25377e-4 0.03402376 -0.006200075 -0.001074314 0.03234338 -0.009778738 -0.001353383 0.03029251 -0.01316118 -0.001676917 0.02789705 -0.01632493 -0.002062618 0.02517879 -0.01924848 -0.002531588 0.02215361 -0.02190774 -0.003109514 0.01883059 -0.0242719 -0.003828406 0.0152105 -0.02629768 -0.004728972 0.01128309 -0.02791911 -0.005864143 0.007022976 0.009345233 -0.002948164 0.03622394 0.01340579 -0.002420783 0.0362637 0.005369424 -0.003339171 0.03574758 0.001455008 -0.003737032 0.03482818 -0.002349615 -0.004146337 0.03349041 -0.006004452 -0.004575073 0.03176206 -0.009476244 -0.005033969 0.02967143 -0.01273667 -0.005536437 0.02724462 -0.01575994 -0.006098687 0.02450442 -0.01851987 -0.006740093 0.02146923 -0.02098667 -0.007483959 0.01815259 -0.02312272 -0.008358657 0.01456278 -0.02487677 -0.009399294 0.01070207 -0.02617454 -0.01064997 0.006565332 0.004899978 0.02632641 0.006499946 0.004899978 0.02169996 0.006499946 0.004250645 0.02169996 0.004502117 0.004899978 -0.02632641 0.006499946 0.01386857 -0.0239911 0.008208811 0.004497647 -0.02675873 0.004895687 0.004250645 -0.02169996 0.004502117 -0.0062716 -0.01708972 0.01728188 -0.001441836 -0.02226728 0.00999999 0.00145471 -0.02273082 0.00999999 -9.14237e-4 -0.0130316 0.02500373 0.006599962 -0.023036 0.00999999 0.007638514 -0.007188022 0.03193205 0.004634559 -0.007766723 0.03121066 0.005518674 -0.005141198 0.03299093 0.00433284 -0.00782597 0.03112095 -0.006899416 -0.0103566 0.02519112 7.7969e-4 -0.008544683 0.02981793 -0.001725375 -0.009086668 0.02860552 -0.004315435 -0.009691238 0.02706491 -0.01341819 -0.01253563 0.01830238 -0.009318828 -0.01105946 0.02306467 -0.01150292 -0.01178735 0.02075004 -0.01503807 -0.01330327 0.01578372 -0.01634621 -0.01408994 0.01325464 -0.01734107 -0.0148921 0.01077002 0.006599962 -0.02314561 0.009709239 0.006599962 -0.02325648 0.009418487 0.001368641 -0.005750238 0.03183728 -0.002624571 -0.006379067 0.03017079 -0.006404817 -0.007038414 0.02803069 -0.009922564 -0.007743 0.0254569 -0.01313304 -0.00851202 0.02248626 -0.01598978 -0.009368896 0.01915192 -0.01844125 -0.01034224 0.01548308 -0.02041685 -0.01146817 0.01150697 -0.0218259 -0.01278907 0.007250666 -0.003599941 0.02177971 0.00999999 -0.006276309 0.01708799 0.01728165 -0.001448988 0.02226585 0.00999999 -0.01734513 0.0148881 0.01077163 -0.01863831 0.01730704 0.003959953 -0.01863592 0.01728349 0.004022061 -0.01828247 0.01610499 0.00721997 -9.18618e-4 0.01303046 0.02500355 -0.01149976 0.01178961 0.0207498 -0.01634746 0.01408737 0.01325714 -0.0162965 0.01405262 0.01336765 -0.01503396 0.0133056 0.01578468 -0.01341348 0.01253902 0.01830214 0.004630744 0.007766067 0.03121066 -0.004319548 0.009689331 0.02706491 -0.009318411 0.01105982 0.02306461 -0.006901264 0.01035559 0.02519112 0.007633328 0.007189631 0.03193062 0.005526185 0.005669713 0.03272628 -0.001730442 0.009084701 0.02860552 -4.40531e-4 0.008801221 0.02926206 7.74074e-4 0.008543074 0.02981781 0.004327118 0.007825493 0.03112047 0.001416087 0.005960226 0.03174179 0.01073455 0.006608486 0.03235512 0.00145471 0.02273082 0.00999999 -0.02085983 0.01417684 0.006688237 -0.01862299 0.0142197 0.01020389 -0.01756244 0.01065272 0.01622951 -0.02040022 0.01065868 0.01248496 -0.01452469 0.01046794 0.01958829 -0.01129102 0.01015853 0.02258479 -0.007862806 0.009762048 0.02521264 -0.004249215 0.00930655 0.02744841 -0.002589523 0.006237983 0.03026026 -0.02302712 0.01041018 0.008293867 -0.02261567 0.006502926 0.0126596 -0.02509129 0.005959093 0.008321881 -0.01985335 0.006785333 0.01655501 -0.01683723 0.006878376 0.02005892 -0.0135883 0.006836295 0.02319318 -0.01011908 0.006696939 0.02595275 -0.006445765 0.006489574 0.02831816 -0.02590173 0.001188337 0.008518755 -0.02353829 0.001989841 0.01301723 -0.02080303 0.002525806 0.01707416 -0.01774877 0.002867341 0.02072805 -0.01441156 0.003068149 0.02399194 -0.01081556 0.003167033 0.02685695 -0.006986439 0.003194272 0.02930033 -0.002953708 0.003174424 0.03129076 0.001241922 0.003126323 0.03278899 0.005547404 0.003063023 0.0337575 -0.02562266 -0.003692805 0.008431673 -0.02347797 -0.002667188 0.01296442 -0.02088671 -0.0018965 0.01708322 -0.01791822 -0.001315474 0.02080941 -0.01462197 -8.73565e-4 0.02414542 -0.01103258 -5.33314e-4 0.02707731 -0.007183909 -2.65368e-4 0.02957922 -0.003112137 -4.5628e-5 0.03161817 0.001137375 1.44174e-4 0.03315424 0.005507528 3.167e-4 0.03414916 -0.02425885 -0.008440136 0.007992148 -0.02243542 -0.007235229 0.0124467 -0.02009993 -0.006262183 0.01654028 -0.01733464 -0.00546509 0.02027249 -0.01420074 -0.004799187 0.02363294 -0.01074212 -0.004230499 0.02660101 -0.006999433 -0.003731846 0.02914756 -0.003014028 -0.003280937 0.03123801 0.001165986 -0.002860844 0.03283232 0.005482733 -0.002459645 0.03389155 0.00149995 -0.0187 0.008299708 -3e-4 -0.0187 0.006499946 2.27784e-4 -0.0187 0.007773101 0.003299951 -0.02169996 0.006499946 0.00277245 -0.02169996 0.007772445 0.00277245 -0.02169996 0.005227446 0.00149995 -0.02169996 0.004699945 2.27496e-4 -0.02169996 0.005227446 -3e-4 -0.02169996 0.006499946 2.27496e-4 -0.02169996 0.007772445 0.00149995 -0.02169996 0.008299946 0.00149995 0.0187 0.008299708 0.002772212 0.0187 0.007773101 0.003299951 0.0187 0.006499946 0.003299951 0.02169996 0.006499946 0.00277245 0.02169996 0.005227446 0.00277245 0.02169996 0.007772445 0.00149995 0.02169996 0.008299946 2.27496e-4 0.02169996 0.007772445 -3e-4 0.02169996 0.006499946 2.27496e-4 0.02169996 0.005227446 0.00149995 0.02169996 0.004699945</float_array>
          <technique_common>
            <accessor source="#edie_8_3_ear-mesh-positions-array" count="667" stride="3">
              <param name="X" type="float"/>
              <param name="Y" type="float"/>
              <param name="Z" type="float"/>
            </accessor>
          </technique_common>
        </source>
        <source id="edie_8_3_ear-mesh-normals">
          <float_array id="edie_8_3_ear-mesh-normals-array" count="2001">0.06094813 -0.580775 0.8117795 0.2463617 -0.7052998 0.6647241 0.3014705 -0.5723914 0.7625508 0.8006054 -0.440519 0.4061701 -0.02613449 -0.4242699 0.9051587 0.7830333 -0.3154715 0.5360381 0.2969487 -0.314325 0.901677 0.8151355 -0.2451896 0.5248202 0.7818799 -0.382225 0.4925121 -0.02670145 -0.713307 0.700343 0.2416626 -0.7757823 0.5828903 0.7579928 -0.5497432 0.3510403 -0.09096711 -0.8152863 0.5718682 0.1964241 -0.8342244 0.5152546 0.706561 -0.6151621 0.3497816 0.1518424 -0.8716244 0.4660631 -0.1505796 -0.8760131 0.4581779 0.04640519 -0.9368399 0.3466663 0.245049 -0.8833923 0.3994609 0.5286567 -0.7265993 0.4388343 -0.5419093 -0.8147357 -0.2062521 -0.6185733 -0.7850722 0.03207772 0.3695 -0.8941478 0.2529218 -0.3065708 -0.9064326 -0.290507 0.2215063 -0.90404 -0.3655771 0.2730356 -0.9224109 0.2731484 0.2507922 -0.9568502 0.1467688 -0.6133376 -0.6533539 -0.4437856 -0.6428985 -0.7494269 0.1582432 -0.7599942 -0.6498739 0.008526802 -0.2349066 -0.6537568 -0.7193198 0.2343264 -0.6532896 -0.7199332 -0.253413 -0.9103478 0.3271831 0.4993553 -0.8663961 0.001501202 0.6202482 -0.6485563 -0.4412107 0.5385857 -0.7925333 0.2860361 0.3578031 -0.7488266 0.5578851 0.7638079 -0.6454375 -0.002856075 -0.2076181 -0.7052463 -0.6778808 0.1164299 -0.707242 0.6973184 0.616784 -0.6486598 0.4458902 -0.09762775 -0.9770927 0.1890998 -0.04301762 -0.7329452 0.6789262 0.2358776 -0.651073 0.7214331 0.08118772 -0.693815 -0.7155623 0.2585176 -0.9578272 0.125442 -0.2802332 -0.8443785 0.4566119 -0.2333312 -0.6529561 0.7205588 -0.1604053 -0.7112983 -0.6843427 0.03090918 -0.7364745 -0.6757588 -0.1261694 0.4304031 -0.8937754 -0.01061248 0.7773998 -0.6289175 -0.3991912 -0.8541314 0.3333259 -0.2478815 -0.6988714 -0.67092 0.1943958 0.6552498 -0.7299713 -0.3482717 -0.8224614 0.449738 -0.2771363 -0.7789174 0.5625685 -0.1863803 -0.7169008 0.6718003 -0.1004837 -0.617929 0.7797864 0.05120003 -0.8531639 0.5191244 0.09094578 -0.8493396 0.5199531 -0.3064299 -0.6634443 -0.6825997 -0.5446567 -0.8019521 0.2454018 -0.3555088 -0.6276363 -0.6925939 -0.4525322 -0.560297 -0.6937449 0.4048442 0.5640025 -0.7197238 0.495582 0.4837285 -0.7213912 -0.5587457 -0.7757829 0.2931966 -0.7011928 -0.6652094 0.2565641 -0.5605055 -0.750426 0.3502777 -0.7052097 -0.627143 0.3307129 -0.5462823 -0.7326423 0.4059693 -0.6958463 -0.5943265 0.4032047 -0.5340517 -0.7187198 0.4452309 -0.676327 -0.5659475 0.4714713 -0.5178894 -0.7021758 0.48861 -0.4883297 -0.6910037 0.5329616 -0.6469298 -0.5422273 0.5361637 -0.4593932 -0.6836514 0.5670791 -0.6088914 -0.5227627 0.5966327 -0.4291449 -0.6635651 0.6127936 -0.562835 -0.5063058 0.6533538 -0.3805845 -0.6521691 0.655615 -0.5089228 -0.492176 0.7062298 -0.3358067 -0.6501212 0.6815983 -0.4471259 -0.4797877 0.7549056 -0.278726 -0.6235482 0.7304106 -0.3763914 -0.4690803 0.7989326 -0.06956541 -0.8532777 0.5167958 -0.03141111 -0.8529164 0.5211018 -0.3005005 -0.4587088 0.836233 0.003821671 -0.8529739 0.5219396 -0.2153136 -0.4460716 0.8687118 -0.1207971 -0.4352821 0.8921535 0.2582764 0.6243435 -0.7372168 0.3277076 0.5934951 -0.7350996 -0.09140032 0.8142467 0.5732788 0.1793886 0.8518733 0.4920687 0.1535786 0.8775811 0.454164 0.4927945 0.7594966 0.4246391 -0.1521978 0.8745725 0.4603897 0.04739081 0.9363633 0.3478189 0.2498477 0.8848186 0.393284 0.6517913 0.623826 0.431288 0.2024375 0.7968055 0.5693155 0.7106432 0.6133338 0.3446853 -0.02140462 0.7222524 0.6912983 0.2473742 0.7067647 0.6627893 0.7523865 0.5594547 0.347743 0.01047873 0.3887185 0.921297 0.3244618 0.6026771 0.7290438 0.4834049 0.5452741 0.6848328 0.8264505 0.2307086 0.5135691 0.7969056 0.4439285 0.4097184 0.03251844 0.6177101 0.7857335 -0.1841463 0.723707 0.6650853 -0.1009595 0.6356616 0.7653375 -0.04686689 0.6237129 0.7802472 -0.2784355 0.7794995 0.5611187 0.5307866 0.7888115 0.3099067 -0.2432701 0.9124738 0.3289548 -0.3510675 0.8220196 0.4483699 0.1093696 0.9883003 -0.1063062 0.1763036 0.9027625 -0.3923483 -0.2310644 0.8762656 -0.4228097 -0.1580859 0.7101613 -0.6860611 -0.2082501 0.7059299 -0.6769749 -0.4046029 0.8520597 0.3321005 -0.09555339 0.9770854 0.1901943 0.3336365 0.7613401 0.555921 0.1919013 -0.6620987 -0.7244303 -0.2483211 0.6991773 -0.6704385 0.2667742 -0.5955598 -0.7577204 0.02016729 0.7322754 -0.6807099 -0.1366611 -0.4297607 -0.8925411 -0.7812258 -0.1099262 -0.6144937 -0.5867698 -0.624998 -0.514858 0.1281018 0.7039261 0.6986258 -0.07037347 0.7292463 0.6806229 0.06622904 0.6887134 -0.7220026 0.2359027 0.6510682 0.7214292 -0.2829458 0.7487039 0.5994867 -0.2333314 0.6529501 0.7205641 0.6194172 0.6471432 0.4444413 0.7644701 0.6446571 0.001745045 0.6182929 0.6475962 -0.4453461 0.2364379 0.6511698 -0.7211622 -0.54925 0.8115143 -0.1994217 -0.2341089 0.6531153 -0.7201621 -0.5912865 0.8051357 0.04622638 -0.6196582 0.6500554 -0.4398314 0.2461636 0.9606873 0.1283873 -0.565362 0.7993218 0.203594 0.3922888 0.876151 0.2801233 0.2673377 0.9532235 0.1410511 0.2742439 0.9215216 0.2749331 -0.5099565 0.8224846 0.2519198 -0.3114339 0.6651265 -0.6786867 -0.350291 0.6293253 -0.6937189 0.4001147 -0.5677074 -0.7194558 -0.4612829 0.5594027 -0.6886849 0.4920404 -0.4862499 -0.7221199 -0.5306535 0.7745275 0.3442587 -0.5027349 0.8053758 0.3140502 -0.5121648 0.8054213 0.2983018 0.3175806 -0.5972881 -0.736471 -0.5002025 0.7235719 0.4756482 -0.5110368 0.7359297 0.4441272 -0.5376043 0.7342125 0.4146248 -0.5514703 0.7353648 0.3938518 -0.4232045 0.6681355 0.6119582 -0.4269797 0.6789065 0.5973059 -0.434481 0.6988372 0.5682016 -0.4707652 0.7099963 0.5237227 -0.3311502 0.6523604 0.6817371 -0.3820648 0.6568195 0.6500883 -0.1082032 0.6436138 0.7576631 -0.1613553 0.6393748 0.7517742 -0.2215778 0.6315884 0.7429667 -0.2821978 0.6378893 0.7165624 -0.1041187 0.5312686 0.8407813 -0.1932502 0.5267945 0.827733 -0.2772452 0.5217715 0.8067773 -0.3569044 0.5165165 0.7783508 -0.4307819 0.5110933 0.7437814 -0.4997063 0.5051278 0.7036616 -0.5177914 0.6278094 0.5811606 -0.5634739 0.4951092 0.6613351 -0.5777354 0.61576 0.5357813 -0.6343915 0.6059035 0.4800298 -0.6891736 0.5982948 0.4087581 -0.6453816 0.6772566 0.353279 -0.7546842 0.5648332 0.3337896 -0.7102199 0.64936 0.2718811 -0.6105402 0.7589304 0.2264186 -0.01497471 0.5471646 0.8368911 0.4856308 -0.4396616 -0.7555531 0.7571313 -0.62797 0.1800166 0.627514 -0.7681101 0.1274091 0.6265072 -0.4349872 0.6467418 0.3803564 -0.5313558 -0.7569611 0.4005477 -0.9149974 0.04838848 0.556456 -0.8231579 0.1129952 0.6355084 -0.6031886 0.4819676 0.6625359 -0.6106 0.4338364 0.5411037 -0.3461071 -0.7664313 0.7625917 -0.5700806 0.3057159 0.6383502 -0.327129 0.6967752 0.8656287 -0.4609587 0.1954588 0.5965865 -0.2544178 -0.7611545 0.9159712 -0.3175714 0.2452452 0.6595782 -0.1074972 -0.7439093 0.9487209 -0.1306734 0.2878423 0.6883044 -0.1774918 0.7033732 0.9797936 -0.008344054 0.1998377 0.6621209 0.1172574 -0.7401666 0.9572935 0.1548551 0.2441498 0.6890728 -0.009663283 0.7246277 0.6419588 1.70456e-4 -0.7667391 0.6006054 0.2495761 -0.7595952 0.9111619 0.3171775 0.2630256 0.67913 0.1830044 0.7108389 0.8711376 0.4451043 0.2073684 0.774253 0.6045003 0.1873819 0.7008243 0.4567733 0.5479084 0.539572 0.3450179 -0.7680006 0.6486387 0.3169522 0.6919604 0.481763 0.438811 -0.7585179 0.6378322 0.7592315 0.1293749 0.7039986 0.6069167 0.3688334 0.6242871 0.437547 0.6471617 0.3135747 0.5647817 -0.7633432 0.3891142 0.9206914 0.03028893 0.5684973 0.8095047 0.1466737 0.3889806 0.5169358 -0.7625428 0.6697078 0.6185399 0.4109746 0.202957 0.619951 -0.7579374 0.1432306 0.6538887 -0.7429096 0.469864 0.8590571 0.2030981 0.1161962 -0.4592859 -0.8806561 -0.005262613 -0.77764 -0.6286879 -0.3065248 -0.7042841 -0.6403331 -0.4483847 -0.6203213 -0.6435471 -0.5926091 -0.5001801 -0.631375 -0.7772098 -0.2234038 -0.588248 -0.6651387 -0.3968639 -0.6325263 -0.7612023 -2.37143e-4 -0.6485146 -0.7787721 0.2216835 -0.5868309 -0.6653332 0.4024001 -0.6288131 -0.6011087 0.4980804 -0.6249674 0.3422896 -0.5708495 -0.7463033 -0.4460839 0.6270295 -0.638626 0.2032017 -0.6192221 -0.7584677 -0.305298 0.7044137 -0.6407765 0.1453174 -0.6820546 -0.7167178 0.1151044 0.4557505 -0.8826339 0.5803021 0.6237154 -0.5236685 0.746728 0.117612 -0.6546487 0.526279 -0.3644211 -0.7682629 -0.5669622 0.5153933 -0.6425914 0.5390158 -0.410492 -0.7354988 -0.6172677 0.4067882 -0.6734271 -0.5972159 0.5113012 -0.617984 0.5825764 -0.3554532 -0.7309294 0.6659633 -0.2844262 -0.6896337 0.6811615 -0.1962766 -0.7053329 -0.6173788 0.3666764 -0.6959826 0.6305727 -0.7312157 -0.2601956 0.5260735 -0.8082207 -0.2646244 -0.5738005 -0.7765375 -0.260274 0.3898944 -0.8441531 -0.3679513 -0.5780243 -0.7806885 -0.2375151 3.85915e-5 -0.8041291 0.5944547 -0.5773811 -0.5773164 0.5773534 0.4201925 -0.8041775 -0.4204008 0.5942626 -0.8042711 6.25224e-6 0.4201192 -0.804215 0.4204024 0.7025374 -0.1379894 -0.6981405 0.5785785 -0.6193684 -0.5306879 0.5773869 -0.5773114 0.5773525 -0.4201873 -0.8041831 0.4203953 0.5900083 -0.7991122 -0.1153687 0.7058319 -0.6621938 -0.2515966 0.6433871 -0.734611 -0.215406 0.4355006 -0.8958252 -0.08852398 0.5704964 -0.8207784 -0.0292685 -0.4130565 -0.9095311 -0.04623401 -0.5459364 -0.8373917 -0.02699273 -0.5049107 -0.4426305 0.7410421 -0.3741523 -0.5283624 0.7621307 -0.23662 -0.5959333 0.7673816 -0.5862053 -0.3527424 0.7293396 -0.4561172 0.7655483 0.4537544 -0.5017964 0.4420181 0.7435189 -0.6326623 0.2629529 0.7284191 -0.590218 0.3679642 0.718502 -0.3732935 0.5294965 0.7617647 -0.4108526 0.910541 -0.04599368 -0.2541795 0.6000443 0.7585115 -0.5259633 0.8490444 -0.04986357 0.5639947 0.8254575 -0.02302205 -3.85732e-5 0.8041292 0.5944546 0.5900217 0.7991304 -0.1151743 0.5773729 0.5773205 0.5773577 -0.4201925 0.8041781 -0.4203996 -0.42012 0.8042145 0.4204025 -0.5942628 0.804271 6.28581e-6 -0.7116864 0.1362423 -0.6891593 -0.5849393 0.6201121 -0.5227879 -0.5773885 0.577313 0.5773495 0.4201872 0.8041828 0.4203959 -0.6887664 -0.7249833 0 -0.5751601 0.777724 -0.2536462 -0.160337 0.9857555 -0.05077689 0.3922153 0.8417539 -0.3709685 0.5442366 0.7940396 -0.2707542 0.5573084 0.7475039 -0.361449 0.5257838 0.785502 -0.3264017 -0.5045201 -0.4960713 -0.7066631 0.5621098 0.4307202 -0.7060545 0.7147362 0.6379508 -0.2866548 -0.5524595 -0.4401621 -0.7078459 0.581839 0.3918012 -0.7127099 -0.5752323 -0.3959928 -0.7157496 0.6175971 0.3357711 -0.7112184 -0.8323305 -0.4929268 0.2534742 0.6698825 0.2340651 -0.704607 -0.6294001 -0.3388505 -0.699311 0.7286638 0.1816753 -0.6603357 0.81231 0.05042695 -0.5810419 -0.6795097 -0.2705267 -0.6819692 0.8499966 0.4445976 -0.2825576 0.9316458 0.2273918 -0.2834241 0.6772583 0.01790916 -0.7355273 0.9323657 -0.2325326 -0.2768085 0.9611103 -0.01549702 -0.2757295 -0.6993708 -0.1030991 -0.7072843 -0.7026859 -0.01461923 -0.71135 0.6889389 -0.0247848 -0.7243956 -0.7075995 -0.1459097 -0.6913851 -0.9630097 -0.08422303 0.2559667 -0.7065187 0.2056455 -0.6771567 -0.763591 0.04064702 -0.6444196 -0.9215751 -0.2973379 0.249579 -0.757156 0.1211338 -0.6419045 -0.9572448 0.1220394 0.2622765 -0.6855908 0.2841604 -0.6702374 0.8011115 -0.1103313 -0.5882579 0.8542839 -0.4324805 -0.2883745 0.7452557 -0.6076442 -0.2745225 -0.8216872 0.5099759 0.2544698 -0.9110262 0.3305911 0.2464565 -0.6686205 0.09637761 0.7373317 -0.6686759 -0.09639751 0.7372789 -0.6263331 -0.2665001 0.7325876 0.2380245 -0.03253668 0.9707141 0.1983159 -0.08634382 0.9763276 0.2683622 -0.1174878 0.9561268 0.2379359 0.03330779 0.9707096 0.2024593 0.08095675 0.9759386 0.2181363 0.09509444 0.9712743 0.7170656 0.6077089 -0.341331 0.9735712 -0.1751933 0.1465142 0.9599739 -0.1623715 0.2282227 0.7572577 -0.5074887 0.4111156 0.6917197 0.6886358 -0.2174963 0.935203 -0.1646553 0.3135029 0.6488408 -0.6283014 0.4292353 0.9966104 -0.08144557 0.01159524 0.7795555 0.5190914 -0.3504817 0.9883837 -0.150333 0.02231216 0.7075788 0.5394673 -0.456407 0.9837259 -0.1779239 -0.02503234 0.6632067 0.529443 -0.5290057 0.9840127 -0.1624768 -0.07294094 0.6331207 0.4788016 -0.6082001 0.9824172 -0.1602011 -0.09587544 0.6297432 0.4068374 -0.6617453 0.9805318 -0.1834013 -0.07015341 0.7565415 0.3504889 -0.5520894 0.5749586 0.3453704 -0.7417156 0.9832173 -0.1281518 -0.1298494 0.5909053 0.2240788 -0.7749965 0.9852583 -0.1599546 -0.06066983 0.9397939 1.41989e-5 -0.3417418 0.9918755 -0.06345254 -0.1102575 -0.806399 0.1403131 -0.5744849 0.9424948 -0.001181542 -0.334219 0.995291 -0.002958536 -0.09688758 0.8336344 2.5614e-4 0.5523167 0.5898121 -0.03499239 -0.8067821 0.9912186 0.07497984 -0.1089209 0.02651989 0.1872001 -0.9819638 0.02920645 -0.04588282 -0.9985198 -0.05695301 0.5674653 -0.8214253 -0.04341995 0.5976822 -0.8005565 0.01303398 0.4057833 -0.9138764 0.03314036 0.7401958 -0.6715742 -0.08443075 0.9204097 -0.3817295 0.1036477 0.8397759 -0.5329481 0.6738812 0.7359004 -0.06583958 -0.08553582 0.9397559 -0.3309721 0.8928076 -0.1615236 0.4204818 0.6006612 0.7907447 0.1180217 0.8536673 -0.1567708 0.4966641 0.4544484 0.8343747 0.3119227 -0.2929127 0.9394482 -0.1778751 0.7650519 -0.1673806 0.6218355 0.2752358 0.8108453 0.5165029 0.7056167 -0.138585 0.6949095 0.1117848 0.7064818 0.6988474 0.5905698 -0.1601256 0.7909408 -0.06621122 0.6910279 0.7197893 0.4920651 -0.1340731 0.8601723 0.2625992 -0.03540939 0.9642552 0.2963471 -0.1135296 0.9483087 0.6095045 -0.4330005 0.6640896 0.6235331 -0.6324356 0.4595997 0.3041469 0.1057681 0.9467354 0.2758206 0.1175045 0.9539999 0.2511852 -0.06274336 0.9659034 0.4753661 0.1399447 0.8685867 -0.09588742 -0.6807761 0.7261883 0.6356689 0.1777427 0.7512208 0.1038034 -0.760237 0.6412993 0.5563851 0.1468722 0.8178412 0.7065138 0.1484446 0.6919556 0.3802013 -0.7621458 0.5240047 0.7640924 0.1724448 0.6216314 0.4509148 -0.827222 0.3352311 0.8418009 0.167505 0.5131406 0.6166667 -0.7791897 0.112185 -0.2972267 -0.9360739 -0.1882076 0.8882279 0.1479939 0.4349125 0.7818068 -0.622995 -0.02560508 0.9375492 0.1606552 0.3085312 0.7199701 -0.6631693 -0.204572 0.9574695 -0.2780882 -0.07693576 0.7119335 -0.623571 -0.3229706 -0.09443807 -0.938327 -0.3326021 0.965373 0.1606422 0.2055457 0.9984589 0.04973167 0.02463364 0.6975513 -0.5866898 -0.4113603 0.1110323 -0.8424478 -0.5272131 -0.8074163 -0.567852 0.1600722 0.9874053 0.1562758 0.02467775 0.6879184 -0.5466045 -0.4774851 0.9837862 0.1784884 -0.0175125 0.6672883 -0.5307073 -0.522567 0.9888228 0.1173725 -0.09194201 0.6320287 -0.4962417 -0.5952175 0.0404824 -0.7375048 -0.6741276 0.9823573 0.1600886 -0.09667313 0.622494 -0.4394371 -0.6476082 0.9839055 0.1538121 -0.09095031 0.9806429 0.1587666 -0.114598 0.6152731 -0.4099628 -0.6733272 0.9821676 0.1278645 -0.1378318 0.5740553 -0.3600721 -0.7353969 -0.06100803 -0.574337 -0.8163425 0.5861946 -0.2785149 -0.7607926 0.01062309 -0.4595807 -0.8880726 0.9910839 0.1315068 -0.02141946 0.5761859 -0.2051177 -0.7911615 0.02127569 -0.2689921 -0.9629074 0.5753886 -0.1360886 -0.8064787 0.9979436 0.00702399 0.06371146 0.7889555 0.5115534 0.3403857 0.6235414 0.6348937 0.4561866 0.6365729 0.5991452 0.4855925 0.6037429 0.416234 0.6798852 -0.0255084 0.3979418 0.9170561 0.2904621 0.4154051 0.8620154 -0.2763786 0.4374696 0.8557074 -0.1289517 0.3844555 0.9140927 -0.2282231 0.3723491 0.8995946 -0.3219369 0.36105 0.875214 -0.4094596 0.3499324 0.8425498 -0.4907187 0.3383206 0.8029535 -0.566018 0.3255098 0.7574081 -0.6358736 0.3107587 0.7064658 -0.6276266 0.4781727 0.6143581 -0.700877 0.2932589 0.6502081 -0.6893298 0.4573909 0.5617991 -0.7615783 0.2720907 0.588188 -0.7491069 0.431655 0.5025066 -0.818369 0.2461498 0.5193096 -0.8072751 0.3994733 0.4344286 -0.8713085 0.2140047 0.4416148 -0.8639861 0.3716956 0.3396623 -0.9197846 0.1737219 0.3518764 -0.03907269 0.1983461 0.979353 0.3875414 0.2240174 0.8942192 -0.3341485 0.2161775 0.9173942 -0.1493554 0.1838801 0.9715355 -0.2543585 0.1708635 0.9518967 -0.3527469 0.1587193 0.9221593 -0.4438691 0.1467995 0.8839854 -0.5260875 0.1360643 0.8394752 -0.6039268 0.1244387 0.7872659 -0.6739207 0.1095827 0.7306317 -0.7377908 0.0921294 0.6687129 -0.7959668 0.07118427 0.6011404 -0.8486742 0.04568803 0.526939 -0.8957461 0.01428353 0.4443365 -0.936261 -0.02485179 0.3504252 -0.04191869 -0.009273707 0.999078 0.8009729 0.04865044 0.5967207 0.2894468 -0.02056473 0.9569731 -0.1534935 -0.02421152 0.9878531 -0.2596091 -0.03746467 0.9649868 -0.358451 -0.04977107 0.9322209 -0.4493947 -0.06174153 0.8911972 -0.5305757 -0.07583254 0.8442388 -0.6065424 -0.09108853 0.789816 -0.6739162 -0.1069272 0.7310292 -0.7341179 -0.1254964 0.6673242 -0.7873783 -0.1476767 0.5985207 -0.8336803 -0.174494 0.5239552 -0.8725765 -0.2072149 0.4423488 -0.9028721 -0.2474488 0.3515555 -0.0402832 -0.2238765 0.9737848 0.3893119 -0.1997933 0.8991768 -0.1461598 -0.2377935 0.960256 -0.2475793 -0.250379 0.9359567 -0.3415547 -0.2622218 0.9025409 -0.4275101 -0.2739276 0.8615096 -0.50529 -0.2861407 0.8141287 -0.5749965 -0.2995231 0.7613573 -0.6368348 -0.3147555 0.7038256 -0.6909847 -0.3325548 0.6418314 -0.7374861 -0.353707 0.575331 -0.7761116 -0.3791087 0.5039122 -0.8061938 -0.409836 0.4267153 -0.8263431 -0.4472118 0.3422847 -0.5617771 0.7786946 0.2793588 -0.7623996 0.647085 -0.005269169 -0.6143903 0.6521858 0.4440478 -0.5773611 -0.7621059 0.2929998 0.4625391 -0.8625923 0.20492 -0.4550825 -0.7715653 0.4445075 -0.6192076 -0.6494575 0.4413468 0.3102325 0.8001996 -0.5132606 0.1720063 0.8437157 0.5084856 0.09653478 0.8524711 0.5137841 0.2036221 0.7402685 -0.6407344 0.4243584 0.9020103 -0.07935667 0.03278195 0.6007676 -0.7987513 0.1034188 0.6150136 -0.7817051 0.1292949 0.4201847 -0.8981802 0.1174334 0.6337288 -0.7645897 0.3639896 0.648095 -0.6689428 0.1879155 0.623129 -0.7592088 0.2595193 0.6173481 -0.7426515 0.3171293 0.6253754 -0.712976 0.4826021 0.6856848 -0.5449143 0.4051566 0.658468 -0.6342461 0.4534815 0.6653285 -0.5930368 0.4942558 0.7048911 -0.5087631 0.5241151 0.7111126 -0.4686389 0.5491956 0.7215939 -0.4215288 0.7058335 0.6621926 -0.2515954 0.6484858 0.7296529 -0.2169629 0.235673 0.4348818 -0.8691008 0.333698 0.4464963 -0.8302329 0.4201452 0.4587243 -0.7829751 0.4970459 0.4720733 -0.7280743 0.5629352 0.4892982 -0.6661016 0.6162866 0.5088689 -0.6010352 0.6614394 0.5311521 -0.5295048 0.6939465 0.5614677 -0.4507687 0.711201 0.5971374 -0.3709718 -0.1603225 -0.985755 -0.05083292 0.309786 -0.7982181 -0.5166049 0.1499438 -0.8505212 0.5041139 0.5051303 -0.7485465 -0.4295597 0.5293231 -0.7899412 -0.3095318 0.5522408 -0.7668492 -0.3270666 0.5407024 -0.7577921 -0.3652293 0.2066346 -0.7333717 -0.6476635 0.4271974 -0.6878361 -0.5868425 0.5121155 -0.7271844 -0.4571003 0.5163358 -0.7156383 -0.4703822 0.4977944 -0.7063114 -0.5033141 0.4749726 -0.6943183 -0.5406692 0.1004669 -0.6264505 -0.7729594 0.2855121 -0.66737 -0.6878227 0.3757699 -0.7007245 -0.6064504 0.338501 -0.6748115 -0.6557794 -0.06569194 -0.8583452 -0.5088499 0.1252239 -0.4517164 -0.8833296 0.1358828 -0.7848775 -0.6045686 0.07150173 -0.8496761 -0.522435 0.04811054 -0.8502029 -0.5242523 -6.50836e-4 -0.8492614 -0.5279723 0.2332214 -0.4459573 -0.8641353 -0.1163407 -0.8600629 -0.4967461 -0.00123763 0 -0.9999992 0.6794431 -0.6415902 -0.3559764 0.6176519 -0.6611079 -0.4259607 0.6369429 -0.5511016 -0.5390648 0.7051072 -0.5293965 -0.4717662 0.5696479 -0.5615774 -0.6001102 0.4967005 -0.5686402 -0.6556959 0.4180244 -0.5776978 -0.7010855 0.3270279 -0.5908325 -0.737543 0.3343592 -0.4361182 -0.8354668 0.783362 -0.4894064 -0.3831782 0.8145864 -0.3104058 -0.4899972 0.87936 -0.2797025 -0.3853474 0.7476382 -0.3437427 -0.5682237 0.6766076 -0.3698151 -0.6367409 0.6009191 -0.3905842 -0.6973811 0.51934 -0.4074881 -0.7511587 0.4310631 -0.4218654 -0.7976305 0.9159603 -0.06785643 -0.3954899 0.8612883 -0.1076723 -0.4965774 0.7975392 -0.1353085 -0.5878972 0.7316311 -0.1574751 -0.663263 0.6561635 -0.1783097 -0.7332497 0.5726419 -0.1955409 -0.796144 0.4803878 -0.2104139 -0.8514421 0.3787166 -0.2241216 -0.8979662 0.2674933 -0.2377814 -0.9337599 0.1476312 -0.2524815 -0.9562731 0.9003977 0.1737604 -0.3988628 0.8566427 0.1318876 -0.4987674 0.801512 0.0959528 -0.5902302 0.7416944 0.06650584 -0.6674328 0.6695994 0.04623651 -0.7412819 0.588084 0.02924478 -0.808271 0.4966108 0.01432961 -0.8678552 0.3946072 3.59342e-4 -0.9188499 0.2820103 -0.01376855 -0.9593126 0.1596583 -0.02900654 -0.9867461 0.8329304 0.3950015 -0.3875578 0.800664 0.3557426 -0.4820628 0.7565241 0.3243559 -0.5678597 0.7018483 0.2990627 -0.6465063 0.6370751 0.2783833 -0.7187754 0.5619115 0.2610723 -0.7849183 0.476094 0.2459839 -0.8442905 0.3792904 0.2320582 -0.8957052 0.2715233 0.2182149 -0.9373673 0.1536115 0.2035526 -0.9669384 3.9156e-5 0.8041294 -0.5944543 0.5942686 0.8042668 -6.18822e-6 0.4201247 0.8042095 -0.4204075 -0.5942668 -0.8042681 -3.49673e-6 -0.4203982 -0.80409 -0.4203624 -0.4203415 -0.8041258 0.420351 -4.90666e-5 -0.8042652 0.5942707 0.4203979 -0.8040903 0.4203624 0.5942667 -0.8042682 4.85709e-6 0.4203414 -0.8041256 -0.4203514 4.89079e-5 -0.8042653 -0.5942707 -3.91407e-5 -0.8041294 -0.5944544 -0.420125 -0.80421 -0.4204064 -0.5942686 -0.8042668 -6.22179e-6 -0.5942667 0.8042681 3.83862e-6 -0.4203975 0.8040899 0.4203636 -0.4203413 0.8041254 -0.4203516 -4.87553e-5 0.8042653 -0.5942707 0.4203984 0.8040903 -0.4203621 0.5942667 0.8042681 -4.06531e-6 0.4203413 0.8041255 0.4203515 4.92558e-5 0.804265 0.5942709</float_array>
          <technique_common>
            <accessor source="#edie_8_3_ear-mesh-normals-array" count="667" stride="3">
              <param name="X" type="float"/>
              <param name="Y" type="float"/>
              <param name="Z" type="float"/>
            </accessor>
          </technique_common>
        </source>
        <vertices id="edie_8_3_ear-mesh-vertices">
          <input semantic="POSITION" source="#edie_8_3_ear-mesh-positions"/>
        </vertices>
        <triangles material="Material_003-material" count="1342">
          <input semantic="VERTEX" source="#edie_8_3_ear-mesh-vertices" offset="0"/>
          <input semantic="NORMAL" source="#edie_8_3_ear-mesh-normals" offset="1"/>
          <p>0 0 1 1 2 2 3 3 2 2 1 1 4 4 0 0 2 2 5 5 2 2 6 6 7 7 6 6 2 2 8 8 2 2 5 5 8 8 4 4 2 2 3 3 7 7 2 2 9 9 10 10 1 1 11 11 1 1 10 10 0 0 9 9 1 1 11 11 3 3 1 1 12 12 13 13 10 10 14 14 10 10 13 13 9 9 12 12 10 10 11 11 10 10 14 14 12 12 15 15 13 13 14 14 13 13 15 15 16 16 17 17 15 15 18 18 15 15 17 17 12 12 16 16 15 15 19 19 15 15 18 18 14 14 15 15 19 19 20 20 21 21 17 17 22 22 17 17 21 21 23 23 20 20 17 17 24 24 23 23 17 17 16 16 24 24 17 17 25 25 18 18 17 17 26 26 25 25 17 17 22 22 26 26 17 17 27 27 21 21 20 20 28 28 22 22 21 21 29 29 28 28 21 21 29 29 21 21 27 27 30 30 20 20 23 23 27 27 20 20 30 30 31 31 23 23 24 24 30 30 23 23 31 31 32 32 33 33 24 24 34 34 24 24 33 33 16 16 32 32 24 24 31 31 24 24 34 34 32 32 35 35 33 33 34 34 33 33 35 35 32 32 36 36 35 35 37 37 35 35 36 36 34 34 35 35 37 37 38 38 39 39 36 36 40 40 36 36 39 39 32 32 38 38 36 36 40 40 37 37 36 36 41 41 42 42 39 39 43 43 39 39 42 42 38 38 41 41 39 39 40 40 39 39 43 43 44 44 42 42 41 41 45 45 42 42 44 44 46 46 42 42 45 45 47 47 42 42 46 46 43 43 42 42 47 47 38 38 48 48 41 41 49 49 41 41 48 48 44 44 41 41 49 49 50 50 48 48 38 38 51 51 49 49 48 48 50 50 51 51 48 48 52 52 38 38 32 32 53 53 38 38 52 52 54 54 38 38 53 53 54 54 50 50 38 38 55 55 32 32 16 16 52 52 32 32 55 55 56 56 16 16 12 12 55 55 16 16 56 56 57 57 12 12 9 9 56 56 12 12 57 57 58 58 9 9 0 0 57 57 9 9 58 58 59 59 58 58 0 0 60 60 59 59 0 0 4 4 60 60 0 0 61 61 62 62 63 63 64 64 63 63 62 62 65 65 61 61 63 63 66 66 65 65 63 63 64 64 66 66 63 63 52 52 67 67 62 62 68 68 62 62 67 67 61 61 52 52 62 62 68 68 64 64 62 62 52 52 69 69 67 67 70 70 67 67 69 69 68 68 67 67 70 70 52 52 71 71 69 69 72 72 69 69 71 71 70 70 69 69 72 72 55 55 73 73 71 71 74 74 71 71 73 73 52 52 55 55 71 71 72 72 71 71 74 74 55 55 75 75 73 73 74 74 73 73 75 75 55 55 76 76 75 75 77 77 75 75 76 76 74 74 75 75 77 77 56 56 78 78 76 76 79 79 76 76 78 78 55 55 56 56 76 76 77 77 76 76 79 79 56 56 80 80 78 78 81 81 78 78 80 80 79 79 78 78 81 81 56 56 82 82 80 80 83 83 80 80 82 82 81 81 80 80 83 83 57 57 84 84 82 82 85 85 82 82 84 84 56 56 57 57 82 82 83 83 82 82 85 85 57 57 86 86 84 84 87 87 84 84 86 86 85 85 84 84 87 87 58 58 88 88 86 86 87 87 86 86 88 88 57 57 58 58 86 86 58 58 89 89 88 88 90 90 88 88 89 89 87 87 88 88 90 90 58 58 91 91 89 89 92 92 89 89 91 91 90 90 89 89 92 92 92 92 91 91 58 58 93 93 58 58 59 59 92 92 58 58 93 93 53 53 52 52 61 61 94 94 53 53 61 61 95 95 94 94 61 61 65 65 95 95 61 61 94 94 54 54 53 53 93 93 59 59 60 60 93 93 60 60 4 4 96 96 97 97 98 98 99 99 98 98 97 97 100 100 96 96 98 98 101 101 100 100 98 98 102 102 101 101 98 98 103 103 102 102 98 98 99 99 103 103 98 98 96 96 104 104 97 97 105 105 97 97 104 104 105 105 99 99 97 97 106 106 107 107 104 104 108 108 104 104 107 107 96 96 106 106 104 104 105 105 104 104 108 108 109 109 110 110 107 107 108 108 107 107 110 110 106 106 109 109 107 107 111 111 110 110 109 109 112 112 110 110 111 111 108 108 110 110 113 113 112 112 113 113 110 110 114 114 109 109 106 106 111 111 109 109 114 114 115 115 106 106 96 96 116 116 106 106 115 115 117 117 106 106 116 116 114 114 106 106 117 117 118 118 96 96 100 100 115 115 96 96 118 118 119 119 120 120 100 100 121 121 100 100 120 120 122 122 119 119 100 100 123 123 122 122 100 100 124 124 123 123 100 100 101 101 124 124 100 100 118 118 100 100 121 121 125 125 126 126 120 120 127 127 120 120 126 126 128 128 125 125 120 120 129 129 128 128 120 120 119 119 129 129 120 120 121 121 120 120 127 127 130 130 126 126 125 125 131 131 127 127 126 126 132 132 131 131 126 126 130 130 132 132 126 126 133 133 125 125 128 128 134 134 130 130 125 125 135 135 134 134 125 125 136 136 135 135 125 125 133 133 136 136 125 125 137 137 138 138 128 128 139 139 128 128 138 138 129 129 137 137 128 128 133 133 128 128 139 139 140 140 138 138 137 137 141 141 139 139 138 138 142 142 141 141 138 138 142 142 138 138 140 140 143 143 137 137 129 129 140 140 137 137 143 143 143 143 129 129 119 119 144 144 119 119 122 122 143 143 119 119 144 144 145 145 122 122 123 123 144 144 122 122 145 145 146 146 123 123 124 124 145 145 123 123 146 146 101 101 147 147 124 124 148 148 124 124 147 147 146 146 124 124 148 148 101 101 149 149 147 147 150 150 147 147 149 149 148 148 147 147 150 150 151 151 149 149 101 101 152 152 149 149 151 151 150 150 149 149 152 152 151 151 101 101 153 153 154 154 153 153 101 101 155 155 154 154 101 101 102 102 155 155 101 101 156 156 157 157 158 158 159 159 158 158 157 157 160 160 156 156 158 158 161 161 160 160 158 158 159 159 161 161 158 158 162 162 127 127 157 157 131 131 157 157 127 127 163 163 162 162 157 157 164 164 163 163 157 157 156 156 164 164 157 157 165 165 157 157 131 131 165 165 159 159 157 157 166 166 121 121 127 127 167 167 166 166 127 127 168 168 167 167 127 127 169 169 168 168 127 127 162 162 169 169 127 127 170 170 118 118 121 121 171 171 170 170 121 121 172 172 171 171 121 121 173 173 172 172 121 121 166 166 173 173 121 121 174 174 115 115 118 118 175 175 174 174 118 118 170 170 175 175 118 118 176 176 116 116 115 115 177 177 176 176 115 115 178 178 177 177 115 115 179 179 178 178 115 115 174 174 179 179 115 115 180 180 116 116 176 176 180 180 117 117 116 116 181 181 176 176 177 177 181 181 180 180 176 176 182 182 177 177 178 178 182 182 181 181 177 177 182 182 178 178 179 179 183 183 179 179 174 174 183 183 182 182 179 179 184 184 174 174 175 175 184 184 183 183 174 174 185 185 175 175 170 170 185 185 184 184 175 175 185 185 170 170 171 171 186 186 171 171 172 172 187 187 185 185 171 171 186 186 187 187 171 171 186 186 172 172 173 173 188 188 173 173 166 166 186 186 173 173 188 188 189 189 166 166 167 167 188 188 166 166 189 189 189 189 167 167 168 168 190 190 168 168 169 169 189 189 168 168 190 190 191 191 169 169 162 162 190 190 169 169 192 192 191 191 192 192 169 169 191 191 162 162 163 163 193 193 163 163 164 164 191 191 163 163 193 193 194 194 164 164 156 156 194 194 193 193 164 164 194 194 156 156 160 160 195 195 114 114 117 117 180 180 195 195 117 117 132 132 165 165 131 131 195 195 111 111 114 114 196 196 197 197 198 198 199 199 198 198 197 197 200 200 196 196 198 198 201 201 200 200 198 198 45 45 201 201 198 198 202 202 45 45 198 198 203 203 202 202 198 198 203 203 198 198 204 204 199 199 204 204 198 198 205 205 206 206 197 197 207 207 197 197 206 206 196 196 205 205 197 197 207 207 199 199 197 197 205 205 208 208 206 206 207 207 206 206 208 208 209 209 210 210 208 208 207 207 208 208 210 210 205 205 209 209 208 208 211 211 212 212 210 210 213 213 210 210 212 212 209 209 211 211 210 210 213 213 207 207 210 210 211 211 214 214 212 212 213 213 212 212 214 214 215 215 216 216 214 214 217 217 214 214 216 216 218 218 215 215 214 214 211 211 218 218 214 214 213 213 214 214 217 217 219 219 220 220 216 216 221 221 216 216 220 220 215 215 219 219 216 216 217 217 216 216 221 221 219 219 222 222 220 220 221 221 220 220 222 222 223 223 222 222 224 224 225 225 224 224 222 222 226 226 222 222 223 223 219 219 225 225 222 222 221 221 222 222 226 226 227 227 223 223 224 224 225 225 227 227 224 224 228 228 223 223 229 229 227 227 229 229 223 223 230 230 223 223 228 228 230 230 226 226 223 223 227 227 228 228 229 229 231 231 232 232 228 228 233 233 228 228 232 232 234 234 231 231 228 228 227 227 234 234 228 228 235 235 228 228 233 233 235 235 230 230 228 228 236 236 237 237 232 232 151 151 232 232 237 237 231 231 236 236 232 232 238 238 233 233 232 232 151 151 238 238 232 232 239 239 237 237 236 236 239 239 240 240 237 237 139 139 237 237 240 240 151 151 237 237 139 139 241 241 236 236 231 231 241 241 239 239 236 236 242 242 231 231 234 234 242 242 241 241 231 231 242 242 234 234 227 227 243 243 227 227 225 225 243 243 242 242 227 227 244 244 225 225 219 219 245 245 243 243 225 225 244 244 245 245 225 225 246 246 219 219 215 215 244 244 219 219 246 246 246 246 215 215 218 218 246 246 218 218 211 211 246 246 211 211 209 209 247 247 209 209 205 205 247 247 246 246 209 209 248 248 205 205 196 196 247 247 205 205 248 248 249 249 196 196 200 200 249 249 248 248 196 196 201 201 250 250 200 200 251 251 200 200 250 250 251 251 249 249 200 200 201 201 252 252 250 250 253 253 250 250 252 252 253 253 251 251 250 250 201 201 254 254 252 252 255 255 252 252 254 254 255 255 253 253 252 252 44 44 254 254 201 201 256 256 254 254 44 44 257 257 255 255 254 254 256 256 257 257 254 254 45 45 44 44 201 201 258 258 259 259 160 160 194 194 160 160 259 259 260 260 258 258 160 160 161 161 260 260 160 160 261 261 262 262 259 259 194 194 259 259 262 262 258 258 261 261 259 259 193 193 262 262 261 261 194 194 262 262 193 193 263 263 261 261 258 258 264 264 265 265 261 261 266 266 261 261 265 265 263 263 264 264 261 261 193 193 261 261 266 266 267 267 258 258 260 260 267 267 263 263 258 258 267 267 260 260 161 161 268 268 161 161 159 159 267 267 161 161 268 268 268 268 159 159 165 165 269 269 165 165 132 132 270 270 165 165 269 269 268 268 165 165 270 270 269 269 132 132 130 130 271 271 130 130 134 134 271 271 269 269 130 130 271 271 134 134 135 135 271 271 135 135 136 136 133 133 240 240 136 136 272 272 136 136 240 240 273 273 271 271 136 136 274 274 273 273 136 136 275 275 274 274 136 136 276 276 275 275 136 136 272 272 276 276 136 136 277 277 278 278 240 240 279 279 240 240 278 278 239 239 277 277 240 240 133 133 139 139 240 240 280 280 240 240 279 279 280 280 272 272 240 240 281 281 278 278 277 277 282 282 278 278 283 283 281 281 283 283 278 278 284 284 278 278 282 282 279 279 278 278 284 284 285 285 277 277 239 239 281 281 277 277 285 285 285 285 239 239 241 241 286 286 241 241 242 242 286 286 285 285 241 241 287 287 242 242 243 243 287 287 286 286 242 242 288 288 243 243 245 245 289 289 243 243 288 288 290 290 243 243 289 289 287 287 243 243 290 290 291 291 245 245 244 244 288 288 245 245 291 291 292 292 151 151 139 139 141 141 292 292 139 139 51 51 44 44 49 49 51 51 256 256 44 44 293 293 248 248 249 249 294 294 247 247 248 248 295 295 294 294 248 248 295 295 248 248 293 293 296 296 249 249 251 251 293 293 249 249 296 296 297 297 251 251 253 253 296 296 251 251 298 298 299 299 298 298 251 251 297 297 299 299 251 251 297 297 253 253 255 255 300 300 255 255 257 257 300 300 297 297 255 255 300 300 257 257 256 256 301 301 256 256 51 51 302 302 300 300 256 256 303 303 302 302 256 256 304 304 303 303 256 256 305 305 306 306 256 256 304 304 256 256 306 306 301 301 305 305 256 256 307 307 308 308 51 51 309 309 51 51 308 308 50 50 307 307 51 51 310 310 51 51 309 309 310 310 301 301 51 51 311 311 308 308 307 307 312 312 313 313 308 308 309 309 308 308 313 313 311 311 312 312 308 308 311 311 307 307 50 50 312 312 50 50 54 54 311 311 50 50 312 312 314 314 54 54 94 94 312 312 54 54 314 314 314 314 94 94 95 95 315 315 95 95 65 65 316 316 314 314 95 95 317 317 316 316 95 95 315 315 317 317 95 95 315 315 65 65 66 66 318 318 319 319 66 66 320 320 66 66 319 319 64 64 318 318 66 66 320 320 315 315 66 66 321 321 322 322 319 319 320 320 319 319 322 322 318 318 321 321 319 319 321 321 323 323 322 322 324 324 322 322 323 323 320 320 322 322 324 324 325 325 323 323 321 321 326 326 323 323 327 327 325 325 327 327 323 323 326 326 324 324 323 323 68 68 321 321 318 318 68 68 325 325 321 321 68 68 318 318 64 64 328 328 326 326 327 327 329 329 328 328 327 327 330 330 329 329 327 327 325 325 330 330 327 327 331 331 324 324 326 326 320 320 324 324 331 331 331 331 326 326 328 328 332 332 328 328 329 329 331 331 328 328 332 332 330 330 333 333 329 329 334 334 329 329 333 333 335 335 329 329 334 334 332 332 329 329 335 335 336 336 337 337 333 333 338 338 333 333 337 337 339 339 336 336 333 333 330 330 339 339 333 333 334 334 333 333 338 338 340 340 337 337 336 336 341 341 337 337 342 342 340 340 342 342 337 337 341 341 338 338 337 337 343 343 336 336 339 339 343 343 340 340 336 336 343 343 339 339 330 330 325 325 343 343 330 330 344 344 341 341 342 342 345 345 344 344 342 342 340 340 345 345 342 342 346 346 347 347 338 338 334 334 338 338 347 347 341 341 346 346 338 338 266 266 265 265 347 347 348 348 347 347 265 265 346 346 266 266 347 347 334 334 347 347 348 348 348 348 265 265 264 264 349 349 264 264 263 263 348 348 264 264 349 349 349 349 263 263 267 267 350 350 266 266 346 346 193 193 266 266 350 350 350 350 346 346 341 341 351 351 341 341 344 344 350 350 341 341 351 351 345 345 351 351 344 344 352 352 246 246 247 247 353 353 244 244 246 246 353 353 246 246 352 352 352 352 247 247 294 294 354 354 244 244 353 353 291 291 244 244 354 354 355 355 294 294 356 356 295 295 356 356 294 294 213 213 355 355 356 356 357 357 356 356 295 295 199 199 356 356 357 357 207 207 356 356 199 199 213 213 356 356 207 207 355 355 352 352 294 294 358 358 353 353 352 352 355 355 358 358 352 352 358 358 354 354 353 353 358 358 359 359 354 354 360 360 354 354 359 359 360 360 291 291 354 354 226 226 359 359 358 358 226 226 360 360 359 359 217 217 358 358 355 355 221 221 226 226 358 358 217 217 221 221 358 358 213 213 217 217 355 355 361 361 362 362 363 363 364 364 363 363 362 362 365 365 361 361 363 363 366 366 365 365 363 363 367 367 366 366 363 363 364 364 367 367 363 363 361 361 368 368 362 362 19 19 362 362 368 368 19 19 364 364 362 362 369 369 370 370 368 368 19 19 368 368 370 370 361 361 369 369 368 368 371 371 372 372 370 370 14 14 370 370 372 372 369 369 371 371 370 370 14 14 19 19 370 370 373 373 374 374 372 372 14 14 372 372 374 374 371 371 373 373 372 372 375 375 376 376 374 374 11 11 374 374 376 376 373 373 375 375 374 374 11 11 14 14 374 374 377 377 378 378 376 376 11 11 376 376 378 378 379 379 377 377 376 376 375 375 379 379 376 376 380 380 381 381 378 378 11 11 378 378 381 381 377 377 380 380 378 378 382 382 383 383 381 381 7 7 381 381 383 383 380 380 382 382 381 381 3 3 381 381 7 7 11 11 381 381 3 3 384 384 385 385 383 383 7 7 383 383 385 385 386 386 384 384 383 383 387 387 386 386 383 383 382 382 387 387 383 383 388 388 385 385 384 384 389 389 385 385 388 388 7 7 385 385 389 389 390 390 384 384 386 386 391 391 384 384 390 390 388 388 384 384 391 391 382 382 386 386 387 387 392 392 386 386 382 382 393 393 390 390 386 386 392 392 393 393 386 386 394 394 382 382 380 380 395 395 382 382 394 394 396 396 382 382 395 395 396 396 392 392 382 382 394 394 380 380 377 377 394 394 377 377 379 379 394 394 379 379 375 375 397 397 375 375 373 373 394 394 375 375 397 397 397 397 373 373 371 371 397 397 371 371 369 369 397 397 369 369 361 361 398 398 361 361 365 365 397 397 361 361 399 399 398 398 399 399 361 361 366 366 400 400 365 365 401 401 365 365 400 400 398 398 365 365 401 401 402 402 403 403 400 400 401 401 400 400 403 403 366 366 402 402 400 400 404 404 405 405 403 403 406 406 403 403 405 405 402 402 404 404 403 403 406 406 401 401 403 403 407 407 408 408 405 405 406 406 405 405 408 408 404 404 407 407 405 405 409 409 410 410 408 408 406 406 408 408 410 410 407 407 409 409 408 408 411 411 412 412 410 410 406 406 410 410 412 412 409 409 411 411 410 410 413 413 298 298 412 412 299 299 412 412 298 298 411 411 413 413 412 412 406 406 412 412 299 299 414 414 296 296 298 298 413 413 414 414 298 298 415 415 293 293 296 296 414 414 415 415 296 296 357 357 295 295 293 293 415 415 357 357 293 293 199 199 357 357 415 415 416 416 415 415 414 414 204 204 415 415 416 416 199 199 415 415 204 204 416 416 414 414 413 413 416 416 413 413 411 411 203 203 411 411 409 409 204 204 416 416 411 411 203 203 204 204 411 411 203 203 409 409 407 407 417 417 407 407 404 404 417 417 203 203 407 407 417 417 404 404 402 402 367 367 402 402 366 366 367 367 417 417 402 402 360 360 288 288 291 291 418 418 289 289 288 288 419 419 418 418 288 288 360 360 419 419 288 288 420 420 290 290 289 289 418 418 420 420 289 289 421 421 422 422 290 290 287 287 290 290 422 422 420 420 421 421 290 290 423 423 424 424 422 422 287 287 422 422 424 424 425 425 423 423 422 422 421 421 425 425 422 422 426 426 427 427 424 424 287 287 424 424 427 427 423 423 426 426 424 424 428 428 429 429 427 427 287 287 427 427 429 429 426 426 428 428 427 427 430 430 431 431 429 429 432 432 429 429 431 431 428 428 430 430 429 429 432 432 287 287 429 429 433 433 434 434 431 431 432 432 431 431 434 434 430 430 433 433 431 431 435 435 436 436 434 434 432 432 434 434 436 436 433 433 435 435 434 434 437 437 438 438 436 436 439 439 436 436 438 438 440 440 437 437 436 436 435 435 440 440 436 436 432 432 436 436 439 439 441 441 442 442 438 438 443 443 438 438 442 442 437 437 441 441 438 438 444 444 438 438 443 443 439 439 438 438 444 444 445 445 446 446 442 442 443 443 442 442 446 446 441 441 445 445 442 442 447 447 448 448 446 446 443 443 446 446 448 448 445 445 447 447 446 446 449 449 450 450 448 448 451 451 448 448 450 450 447 447 449 449 448 448 443 443 448 448 451 451 452 452 453 453 450 450 451 451 450 450 453 453 454 454 452 452 450 450 449 449 454 454 450 450 455 455 456 456 453 453 451 451 453 453 456 456 452 452 455 455 453 453 457 457 458 458 456 456 459 459 456 456 458 458 455 455 457 457 456 456 451 451 456 456 459 459 457 457 460 460 458 458 461 461 458 458 460 460 461 461 459 459 458 458 462 462 463 463 460 460 464 464 460 460 463 463 457 457 462 462 460 460 464 464 461 461 460 460 391 391 465 465 463 463 464 464 463 463 465 465 462 462 391 391 463 463 391 391 390 390 465 465 393 393 465 465 390 390 393 393 464 464 465 465 113 113 391 391 462 462 466 466 388 388 391 391 112 112 466 466 391 391 112 112 391 391 113 113 113 113 462 462 457 457 113 113 457 457 455 455 113 113 455 455 452 452 108 108 452 452 454 454 108 108 113 113 452 452 108 108 454 454 449 449 108 108 449 449 447 447 105 105 447 447 445 445 105 105 108 108 447 447 105 105 445 445 441 441 105 105 441 441 437 437 105 105 437 437 440 440 467 467 440 440 435 435 105 105 440 440 467 467 103 103 435 435 433 433 103 103 467 467 435 435 103 103 433 433 430 430 468 468 430 430 428 428 468 468 103 103 430 430 468 468 428 428 426 426 469 469 426 426 423 423 469 469 468 468 426 426 469 469 423 423 425 425 469 469 425 425 421 421 230 230 421 421 420 420 470 470 421 421 230 230 469 469 421 421 470 470 230 230 420 420 418 418 230 230 418 418 419 419 226 226 419 419 360 360 230 230 419 419 226 226 471 471 111 111 195 195 472 472 473 473 111 111 112 112 111 111 473 473 471 471 472 472 111 111 474 474 195 195 180 180 474 474 471 471 195 195 475 475 180 180 181 181 475 475 474 474 180 180 476 476 181 181 182 182 476 476 475 475 181 181 477 477 182 182 183 183 477 477 476 476 182 182 478 478 183 183 184 184 478 478 477 477 183 183 479 479 184 184 185 185 479 479 478 478 184 184 480 480 185 185 187 187 480 480 479 479 185 185 186 186 481 481 187 187 482 482 187 187 481 481 482 482 480 480 187 187 188 188 483 483 481 481 484 484 481 481 483 483 186 186 188 188 481 481 484 484 482 482 481 481 189 189 485 485 483 483 486 486 483 483 485 485 188 188 189 189 483 483 486 486 484 484 483 483 190 190 487 487 485 485 488 488 485 485 487 487 189 189 190 190 485 485 488 488 486 486 485 485 192 192 489 489 487 487 490 490 487 487 489 489 190 190 192 192 487 487 490 490 488 488 487 487 192 192 351 351 489 489 345 345 489 489 351 351 345 345 490 490 489 489 192 192 350 350 351 351 191 191 350 350 192 192 191 191 193 193 350 350 112 112 473 473 472 472 491 491 472 472 471 471 492 492 493 493 472 472 112 112 472 472 493 493 491 491 492 492 472 472 494 494 471 471 474 474 494 494 491 491 471 471 495 495 474 474 475 475 495 495 494 494 474 474 496 496 475 475 476 476 496 496 495 495 475 475 497 497 476 476 477 477 497 497 496 496 476 476 498 498 477 477 478 478 498 498 497 497 477 477 499 499 478 478 479 479 499 499 498 498 478 478 500 500 479 479 480 480 500 500 499 499 479 479 501 501 480 480 482 482 501 501 500 500 480 480 502 502 482 482 484 484 502 502 501 501 482 482 503 503 484 484 486 486 503 503 502 502 484 484 504 504 486 486 488 488 504 504 503 503 486 486 505 505 488 488 490 490 505 505 504 504 488 488 340 340 490 490 345 345 340 340 505 505 490 490 389 389 493 493 492 492 389 389 112 112 493 493 506 506 492 492 491 491 506 506 507 507 492 492 508 508 492 492 507 507 389 389 492 492 508 508 509 509 491 491 494 494 509 509 506 506 491 491 510 510 494 494 495 495 510 510 509 509 494 494 511 511 495 495 496 496 511 511 510 510 495 495 512 512 496 496 497 497 512 512 511 511 496 496 513 513 497 497 498 498 513 513 512 512 497 497 513 513 498 498 499 499 514 514 499 499 500 500 514 514 513 513 499 499 515 515 500 500 501 501 515 515 514 514 500 500 516 516 501 501 502 502 516 516 515 515 501 501 517 517 502 502 503 503 517 517 516 516 502 502 518 518 503 503 504 504 518 518 517 517 503 503 519 519 504 504 505 505 519 519 518 518 504 504 520 520 505 505 340 340 520 520 519 519 505 505 343 343 520 520 340 340 508 508 507 507 506 506 521 521 506 506 509 509 522 522 508 508 506 506 521 521 522 522 506 506 523 523 509 509 510 510 523 523 521 521 509 509 524 524 510 510 511 511 524 524 523 523 510 510 525 525 511 511 512 512 525 525 524 524 511 511 526 526 512 512 513 513 526 526 525 525 512 512 527 527 513 513 514 514 527 527 526 526 513 513 528 528 514 514 515 515 528 528 527 527 514 514 529 529 515 515 516 516 529 529 528 528 515 515 530 530 516 516 517 517 530 530 529 529 516 516 531 531 517 517 518 518 531 531 530 530 517 517 532 532 518 518 519 519 532 532 531 531 518 518 533 533 519 519 520 520 533 533 532 532 519 519 534 534 520 520 343 343 534 534 533 533 520 520 325 325 534 534 343 343 389 389 508 508 522 522 6 6 522 522 521 521 389 389 522 522 6 6 4 4 521 521 523 523 5 5 6 6 521 521 4 4 5 5 521 521 93 93 523 523 524 524 93 93 4 4 523 523 92 92 524 524 525 525 92 92 93 93 524 524 90 90 525 525 526 526 90 90 92 92 525 525 87 87 526 526 527 527 87 87 90 90 526 526 85 85 527 527 528 528 85 85 87 87 527 527 83 83 528 528 529 529 83 83 85 85 528 528 81 81 529 529 530 530 81 81 83 83 529 529 79 79 530 530 531 531 79 79 81 81 530 530 77 77 531 531 532 532 77 77 79 79 531 531 74 74 532 532 533 533 74 74 77 77 532 532 72 72 533 533 534 534 72 72 74 74 533 533 70 70 534 534 325 325 70 70 72 72 534 534 68 68 70 70 325 325 7 7 389 389 6 6 8 8 5 5 4 4 469 469 233 233 238 238 469 469 235 235 233 233 151 151 153 153 238 238 469 469 238 238 153 153 469 469 153 153 154 154 535 535 152 152 151 151 292 292 535 535 151 151 468 468 154 154 155 155 469 469 154 154 468 468 103 103 155 155 102 102 468 468 155 155 103 103 150 150 152 152 535 535 536 536 535 535 292 292 150 150 535 535 536 536 537 537 292 292 141 141 537 537 536 536 292 292 537 537 141 141 142 142 367 367 18 18 25 25 364 364 18 18 367 367 19 19 18 18 364 364 417 417 25 25 26 26 367 367 25 25 417 417 417 417 26 26 22 22 538 538 45 45 22 22 539 539 22 22 45 45 28 28 538 538 22 22 417 417 22 22 539 539 540 540 46 46 45 45 538 538 540 540 45 45 202 202 539 539 45 45 541 541 46 46 540 540 47 47 46 46 541 541 541 541 540 540 538 538 29 29 538 538 28 28 541 541 538 538 29 29 203 203 539 539 202 202 417 417 539 539 203 203 112 112 388 388 466 466 389 389 388 388 112 112 542 542 543 543 313 313 309 309 313 313 543 543 314 314 542 542 313 313 312 312 314 314 313 313 542 542 399 399 543 543 544 544 543 543 399 399 309 309 543 543 544 544 545 545 397 397 399 399 542 542 545 545 399 399 546 546 544 544 399 399 398 398 546 546 399 399 395 395 394 394 397 397 547 547 395 395 397 397 548 548 547 547 397 397 545 545 548 548 397 397 396 396 395 395 547 547 549 549 547 547 548 548 396 396 547 547 549 549 550 550 548 548 545 545 549 549 548 548 550 550 551 551 545 545 542 542 552 552 550 550 545 545 553 553 552 552 545 545 554 554 553 553 545 545 551 551 554 554 545 545 555 555 542 542 314 314 556 556 551 551 542 542 557 557 556 556 542 542 555 555 557 557 542 542 558 558 555 555 314 314 559 559 558 558 314 314 560 560 559 559 314 314 316 316 560 560 314 314 309 309 544 544 546 546 401 401 561 561 546 546 303 303 546 546 561 561 398 398 401 401 546 546 303 303 309 309 546 546 401 401 562 562 561 561 303 303 561 561 562 562 406 406 562 562 401 401 302 302 562 562 406 406 303 303 562 562 302 302 563 563 550 550 552 552 549 549 550 550 563 563 564 564 552 552 553 553 563 563 552 552 564 564 564 564 553 553 554 554 565 565 554 554 551 551 564 564 554 554 565 565 566 566 551 551 556 556 565 565 551 551 566 566 567 567 556 556 557 557 566 566 556 556 567 567 567 567 557 557 555 555 568 568 555 555 558 558 567 567 555 555 568 568 569 569 558 558 559 559 568 568 558 558 569 569 570 570 559 559 560 560 569 569 559 559 570 570 570 570 560 560 316 316 571 571 316 316 317 317 570 570 316 316 571 571 320 320 317 317 315 315 571 571 317 317 320 320 273 273 269 269 271 271 270 270 269 269 572 572 273 273 572 572 269 269 573 573 270 270 572 572 574 574 573 573 572 572 279 279 574 574 572 572 273 273 279 279 572 572 575 575 270 270 573 573 576 576 268 268 270 270 577 577 576 576 270 270 578 578 577 577 270 270 575 575 578 578 270 270 443 443 579 579 573 573 580 580 573 573 579 579 574 574 443 443 573 573 581 581 575 575 573 573 582 582 581 581 573 573 583 583 582 582 573 573 584 584 583 583 573 573 580 580 584 584 573 573 451 451 585 585 579 579 586 586 579 579 585 585 443 443 451 451 579 579 587 587 580 580 579 579 588 588 587 587 579 579 586 586 588 588 579 579 459 459 589 589 585 585 590 590 585 585 589 589 451 451 459 459 585 585 591 591 586 586 585 585 592 592 591 591 585 585 593 593 592 592 585 585 594 594 593 593 585 585 595 595 594 594 585 585 590 590 595 595 585 585 459 459 596 596 589 589 461 461 589 589 596 596 461 461 590 590 589 589 461 461 596 596 459 459 444 444 443 443 574 574 284 284 444 444 574 574 597 597 284 284 574 574 279 279 597 597 574 574 267 267 268 268 576 576 267 267 576 576 577 577 598 598 577 577 578 578 349 349 267 267 577 577 598 598 349 349 577 577 599 599 578 578 575 575 599 599 598 598 578 578 599 599 575 575 581 581 599 599 581 581 582 582 600 600 582 582 583 583 601 601 599 599 582 582 600 600 601 601 582 582 600 600 583 583 584 584 602 602 584 584 580 580 602 602 600 600 584 584 603 603 580 580 587 587 603 603 602 602 580 580 604 604 587 587 588 588 604 604 603 603 587 587 604 604 588 588 586 586 605 605 586 586 591 591 605 605 604 604 586 586 605 605 591 591 592 592 606 606 592 592 593 593 606 606 605 605 592 592 595 595 593 593 594 594 595 595 606 606 593 593 284 284 439 439 444 444 282 282 283 283 439 439 281 281 439 439 283 283 284 284 282 282 439 439 281 281 432 432 439 439 279 279 284 284 597 597 432 432 285 285 286 286 281 281 285 285 432 432 432 432 286 286 287 287 406 406 299 299 297 297 406 406 297 297 300 300 302 302 406 406 300 300 348 348 349 349 598 598 607 607 598 598 599 599 607 607 348 348 598 598 601 601 607 607 599 599 334 334 348 348 607 607 608 608 607 607 601 601 609 609 334 334 607 607 608 608 609 609 607 607 610 610 601 601 600 600 610 610 608 608 601 601 611 611 600 600 602 602 611 611 610 610 600 600 612 612 602 602 603 603 612 612 611 611 602 602 613 613 603 603 604 604 613 613 612 612 603 603 614 614 604 604 605 605 614 614 613 613 604 604 606 606 614 614 605 605 335 335 334 334 609 609 615 615 609 609 608 608 615 615 335 335 609 609 616 616 608 608 610 610 616 616 615 615 608 608 617 617 610 610 611 611 617 617 616 616 610 610 618 618 611 611 612 612 618 618 617 617 611 611 619 619 612 612 613 613 619 619 618 618 612 612 620 620 613 613 614 614 620 620 619 619 613 613 621 621 614 614 606 606 621 621 620 620 614 614 622 622 606 606 595 595 622 622 621 621 606 606 623 623 595 595 590 590 623 623 622 622 595 595 624 624 590 590 461 461 624 624 623 623 590 590 464 464 624 624 461 461 625 625 335 335 615 615 625 625 332 332 335 335 626 626 615 615 616 616 626 626 625 625 615 615 627 627 616 616 617 617 627 627 626 626 616 616 627 627 617 617 618 618 628 628 618 618 619 619 628 628 627 627 618 618 629 629 619 619 620 620 629 629 628 628 619 619 630 630 620 620 621 621 630 630 629 629 620 620 631 631 621 621 622 622 631 631 630 630 621 621 632 632 622 622 623 623 632 632 631 631 622 622 633 633 623 623 624 624 633 633 632 632 623 623 634 634 624 624 464 464 634 634 633 633 624 624 393 393 634 634 464 464 635 635 332 332 625 625 635 635 331 331 332 332 636 636 625 625 626 626 636 636 635 635 625 625 637 637 626 626 627 627 637 637 636 636 626 626 638 638 627 627 628 628 638 638 637 637 627 627 639 639 628 628 629 629 639 639 638 638 628 628 640 640 629 629 630 630 640 640 639 639 629 629 641 641 630 630 631 631 641 641 640 640 630 630 642 642 631 631 632 632 642 642 641 641 631 631 643 643 632 632 633 633 643 643 642 642 632 632 644 644 633 633 634 634 644 644 643 643 633 633 392 392 634 634 393 393 392 392 644 644 634 634 571 571 331 331 635 635 571 571 320 320 331 331 570 570 635 635 636 636 570 570 571 571 635 635 569 569 636 636 637 637 569 569 570 570 636 636 568 568 637 637 638 638 568 568 569 569 637 637 567 567 638 638 639 639 567 567 568 568 638 638 566 566 639 639 640 640 566 566 567 567 639 639 565 565 640 640 641 641 565 565 566 566 640 640 564 564 641 641 642 642 564 564 565 565 641 641 563 563 642 642 643 643 563 563 564 564 642 642 549 549 643 643 644 644 549 549 563 563 643 643 396 396 644 644 392 392 396 396 549 549 644 644 645 645 309 309 303 303 646 646 310 310 309 309 647 647 646 646 309 309 645 645 647 647 309 309 304 304 645 645 303 303 648 648 306 306 305 305 649 649 304 304 306 306 648 648 649 649 306 306 650 650 305 305 301 301 650 650 648 648 305 305 651 651 301 301 310 310 650 650 301 301 651 651 652 652 310 310 646 646 651 651 310 310 652 652 653 653 646 646 647 647 652 652 646 646 653 653 654 654 647 647 645 645 654 654 653 653 647 647 655 655 645 645 304 304 655 655 654 654 645 645 649 649 655 655 304 304 37 37 653 653 654 654 40 40 653 653 37 37 652 652 653 653 40 40 34 34 654 654 655 655 34 34 37 37 654 654 27 27 655 655 649 649 27 27 34 34 655 655 27 27 649 649 648 648 29 29 27 27 648 648 650 650 29 29 648 648 30 30 31 31 34 34 27 27 30 30 34 34 650 650 541 541 29 29 43 43 47 47 541 541 40 40 43 43 541 541 651 651 40 40 541 541 650 650 651 651 541 541 651 651 652 652 40 40 656 656 279 279 273 273 657 657 658 658 279 279 280 280 279 279 658 658 656 656 657 657 279 279 274 274 656 656 273 273 659 659 658 658 657 657 660 660 280 280 658 658 660 660 658 658 659 659 661 661 657 657 656 656 661 661 659 659 657 657 662 662 656 656 274 274 662 662 661 661 656 656 663 663 274 274 275 275 663 663 662 662 274 274 664 664 275 275 276 276 664 664 663 663 275 275 665 665 276 276 272 272 665 665 664 664 276 276 666 666 272 272 280 280 665 665 272 272 666 666 666 666 280 280 660 660 536 536 659 659 661 661 537 537 659 659 536 536 660 660 659 659 537 537 150 150 661 661 662 662 150 150 536 536 661 661 145 145 662 662 663 663 145 145 150 150 662 662 145 145 663 663 664 664 144 144 145 145 664 664 665 665 144 144 664 664 146 146 148 148 150 150 145 145 146 146 150 150 665 665 143 143 144 144 142 142 140 140 143 143 537 537 142 142 143 143 666 666 537 537 143 143 665 665 666 666 143 143 666 666 660 660 537 537 235 235 470 470 230 230 469 469 470 470 235 235 99 99 467 467 103 103 105 105 467 467 99 99</p>
        </triangles>
      </mesh>
    </geometry>
  </library_geometries>
  <library_visual_scenes>
    <visual_scene id="Scene" name="Scene">
      <node id="edie_8_3_ear" name="edie_8_3_ear" type="NODE">
        <matrix sid="transform">1 0 0 0 0 1 0 0 0 0 1 0 0 0 0 1</matrix>
        <instance_geometry url="#edie_8_3_ear-mesh" name="edie_8_3_ear">
          <bind_material>
            <technique_common>
              <instance_material symbol="Material_003-material" target="#Material_003-material"/>
            </technique_common>
          </bind_material>
        </instance_geometry>
      </node>
    </visual_scene>
  </library_visual_scenes>
  <scene>
    <instance_visual_scene url="#Scene"/>
  </scene>
</COLLADA>