<?xml version="1.0" encoding="utf-8"?>
<COLLADA xmlns="http://www.collada.org/2005/11/COLLADASchema" version="1.4.1" xmlns:xsi="http://www.w3.org/2001/XMLSchema-instance">
  <asset>
    <contributor>
      <author>Blender User</author>
      <authoring_tool>Blender 3.6.5 commit date:2023-10-16, commit time:14:30, hash:cf1e1ed46b7e</authoring_tool>
    </contributor>
    <created>2024-02-27T14:23:24</created>
    <modified>2024-02-27T14:23:24</modified>
    <unit name="meter" meter="1"/>
    <up_axis>Z_UP</up_axis>
  </asset>
  <library_cameras>
    <camera id="Camera-camera" name="Camera">
      <optics>
        <technique_common>
          <perspective>
            <xfov sid="xfov">39.59775</xfov>
            <aspect_ratio>1.777778</aspect_ratio>
            <znear sid="znear">0.1</znear>
            <zfar sid="zfar">100</zfar>
          </perspective>
        </technique_common>
      </optics>
      <extra>
        <technique profile="blender">
          <shiftx sid="shiftx" type="float">0</shiftx>
          <shifty sid="shifty" type="float">0</shifty>
          <dof_distance sid="dof_distance" type="float">10</dof_distance>
        </technique>
      </extra>
    </camera>
  </library_cameras>
  <library_lights>
    <light id="Light-light" name="Light">
      <technique_common>
        <point>
          <color sid="color">1000 1000 1000</color>
          <constant_attenuation>1</constant_attenuation>
          <linear_attenuation>0</linear_attenuation>
          <quadratic_attenuation>0.00111109</quadratic_attenuation>
        </point>
      </technique_common>
      <extra>
        <technique profile="blender">
          <type sid="type" type="int">0</type>
          <flag sid="flag" type="int">0</flag>
          <mode sid="mode" type="int">1</mode>
          <gamma sid="blender_gamma" type="float">1</gamma>
          <red sid="red" type="float">1</red>
          <green sid="green" type="float">1</green>
          <blue sid="blue" type="float">1</blue>
          <shadow_r sid="blender_shadow_r" type="float">0</shadow_r>
          <shadow_g sid="blender_shadow_g" type="float">0</shadow_g>
          <shadow_b sid="blender_shadow_b" type="float">0</shadow_b>
          <energy sid="blender_energy" type="float">1000</energy>
          <dist sid="blender_dist" type="float">29.99998</dist>
          <spotsize sid="spotsize" type="float">75</spotsize>
          <spotblend sid="spotblend" type="float">0.15</spotblend>
          <att1 sid="att1" type="float">0</att1>
          <att2 sid="att2" type="float">1</att2>
          <falloff_type sid="falloff_type" type="int">2</falloff_type>
          <clipsta sid="clipsta" type="float">0.04999995</clipsta>
          <clipend sid="clipend" type="float">30.002</clipend>
          <bias sid="bias" type="float">1</bias>
          <bufsize sid="bufsize" type="int">2880</bufsize>
          <samp sid="samp" type="int">3</samp>
          <buffers sid="buffers" type="int">1</buffers>
          <radius sid="radius" type="float">0.1</radius>
          <area_shape sid="area_shape" type="int">1</area_shape>
          <area_size sid="area_size" type="float">0.1</area_size>
          <area_sizey sid="area_sizey" type="float">0.1</area_sizey>
          <area_sizez sid="area_sizez" type="float">1</area_sizez>
        </technique>
      </extra>
    </light>
  </library_lights>
  <library_images/>
  <library_geometries>
    <geometry id="edie_leg-mesh" name="edie_leg">
      <mesh>
        <source id="edie_leg-mesh-positions">
          <float_array id="edie_leg-mesh-positions-array" count="552">-2.445369 -9.999995 30.51979 -2.445369 6.19888e-6 30.51979 -2.5 -9.999995 30.00001 -2.5 6.19888e-6 30.00001 -2.445369 -9.999995 29.48023 -2.445369 6.19888e-6 29.48023 -2.283864 -9.999995 28.98316 -2.283864 6.19888e-6 28.98316 -2.022542 -9.999995 28.53054 -2.022542 6.19888e-6 28.53054 -1.672827 -9.999995 28.14214 -1.672827 6.19888e-6 28.14214 -1.25 -9.999995 27.83494 -1.25 6.19888e-6 27.83494 -0.7725425 -9.999995 27.62236 -0.7725425 6.19888e-6 27.62236 -0.2613212 -9.999995 27.5137 -0.2613212 6.19888e-6 27.5137 0.2613211 -9.999995 27.5137 0.2613211 6.19888e-6 27.5137 0.7725425 -9.999995 27.62236 0.7725425 6.19888e-6 27.62236 1.25 -9.999995 27.83494 1.25 6.19888e-6 27.83494 1.672827 -9.999995 28.14214 1.672827 6.19888e-6 28.14214 2.022542 -9.999995 28.53054 2.022542 6.19888e-6 28.53054 2.283864 -9.999995 28.98316 2.283864 6.19888e-6 28.98316 2.445369 -9.999995 29.48023 2.445369 6.19888e-6 29.48023 2.5 -9.999995 30.00001 2.5 6.19888e-6 30.00001 2.445369 -9.999995 30.51979 2.445369 6.19888e-6 30.51979 2.283864 -9.999995 31.01685 2.283864 6.19888e-6 31.01685 2.022542 -9.999995 31.46947 2.022542 6.19888e-6 31.46947 1.672827 -9.999995 31.85787 1.672827 6.19888e-6 31.85787 1.25 -9.999995 32.16507 1.25 6.19888e-6 32.16507 0.7725425 -9.999995 32.37765 0.7725425 6.19888e-6 32.37765 0.2613211 -9.999995 32.48631 0.2613211 6.19888e-6 32.48631 -0.2613212 -9.999995 32.48631 -0.2613212 6.19888e-6 32.48631 -0.7725425 -9.999995 32.37765 -0.7725425 6.19888e-6 32.37765 -1.25 -9.999995 32.16507 -1.25 6.19888e-6 32.16507 -1.672827 -9.999995 31.85787 -1.672827 6.19888e-6 31.85787 -2.022542 -9.999995 31.46947 -2.022542 6.19888e-6 31.46947 -2.283864 -9.999995 31.01685 -2.283864 6.19888e-6 31.01685 10 6.19888e-6 30.00001 10 6.19888e-6 -29.99999 10 20.00001 30.00001 10 20.00001 -29.99999 -10 20.00001 30.00001 -10 6.19888e-6 30.00001 -9.945219 20.00001 31.04529 -9.945219 6.19888e-6 31.04529 -9.781476 20.00001 32.07912 -9.781476 6.19888e-6 32.07912 -9.510565 20.00001 33.09018 -9.510565 6.19888e-6 33.09018 -9.135455 20.00001 34.06737 -9.135455 6.19888e-6 34.06737 -8.660255 20.00001 35.00001 -8.660255 6.19888e-6 35.00001 -8.09017 20.00001 35.87786 -8.09017 6.19888e-6 35.87786 -7.431448 20.00001 36.69131 -7.431448 6.19888e-6 36.69131 -6.691306 20.00001 37.43146 -6.691306 6.19888e-6 37.43146 -5.877852 20.00001 38.09018 -5.877852 6.19888e-6 38.09018 -5 20.00001 38.66026 -5 6.19888e-6 38.66026 -4.067367 20.00001 39.13546 -4.067367 6.19888e-6 39.13546 -3.09017 20.00001 39.51057 -3.09017 6.19888e-6 39.51057 -2.079117 20.00001 39.78148 -2.079117 6.19888e-6 39.78148 -1.045285 20.00001 39.94522 -1.045285 6.19888e-6 39.94522 0 20.00001 40.00001 0 6.19888e-6 40.00001 1.045285 20.00001 39.94522 1.045285 6.19888e-6 39.94522 2.079117 20.00001 39.78148 2.079117 6.19888e-6 39.78148 3.09017 20.00001 39.51057 3.09017 6.19888e-6 39.51057 4.067367 20.00001 39.13546 4.067367 6.19888e-6 39.13546 5 20.00001 38.66026 5 6.19888e-6 38.66026 5.877852 20.00001 38.09018 5.877852 6.19888e-6 38.09018 6.691306 20.00001 37.43146 6.691306 6.19888e-6 37.43146 7.431448 20.00001 36.69131 7.431448 6.19888e-6 36.69131 8.09017 20.00001 35.87786 8.09017 6.19888e-6 35.87786 8.660255 20.00001 35.00001 8.660255 6.19888e-6 35.00001 9.135455 20.00001 34.06737 9.135455 6.19888e-6 34.06737 9.510565 20.00001 33.09018 9.510565 6.19888e-6 33.09018 9.781476 20.00001 32.07912 9.781476 6.19888e-6 32.07912 9.945219 20.00001 31.04529 9.945219 6.19888e-6 31.04529 -10 6.19888e-6 -29.99999 -10 20.00001 -29.99999 9.945219 20.00001 -31.04528 9.945219 6.19888e-6 -31.04528 9.781476 20.00001 -32.07911 9.781476 6.19888e-6 -32.07911 9.510565 20.00001 -33.09016 9.510565 6.19888e-6 -33.09016 9.135455 20.00001 -34.06736 9.135455 6.19888e-6 -34.06736 8.660255 20.00001 -34.99999 8.660255 6.19888e-6 -34.99999 8.09017 20.00001 -35.87784 8.09017 6.19888e-6 -35.87784 7.431448 20.00001 -36.6913 7.431448 6.19888e-6 -36.6913 6.691306 20.00001 -37.43144 6.691306 6.19888e-6 -37.43144 5.877852 20.00001 -38.09016 5.877852 6.19888e-6 -38.09016 5 20.00001 -38.66025 5 6.19888e-6 -38.66025 4.067367 20.00001 -39.13545 4.067367 6.19888e-6 -39.13545 3.09017 20.00001 -39.51056 3.09017 6.19888e-6 -39.51056 2.079117 20.00001 -39.78147 2.079117 6.19888e-6 -39.78147 1.045285 20.00001 -39.94521 1.045285 6.19888e-6 -39.94521 0 20.00001 -39.99999 0 6.19888e-6 -39.99999 -1.045285 20.00001 -39.94521 -1.045285 6.19888e-6 -39.94521 -2.079117 20.00001 -39.78147 -2.079117 6.19888e-6 -39.78147 -3.09017 20.00001 -39.51056 -3.09017 6.19888e-6 -39.51056 -4.067367 20.00001 -39.13545 -4.067367 6.19888e-6 -39.13545 -5 20.00001 -38.66025 -5 6.19888e-6 -38.66025 -5.877852 20.00001 -38.09016 -5.877852 6.19888e-6 -38.09016 -6.691306 20.00001 -37.43144 -6.691306 6.19888e-6 -37.43144 -7.431448 20.00001 -36.6913 -7.431448 6.19888e-6 -36.6913 -8.09017 20.00001 -35.87784 -8.09017 6.19888e-6 -35.87784 -8.660255 20.00001 -34.99999 -8.660255 6.19888e-6 -34.99999 -9.135455 20.00001 -34.06736 -9.135455 6.19888e-6 -34.06736 -9.510565 20.00001 -33.09016 -9.510565 6.19888e-6 -33.09016 -9.781476 20.00001 -32.07911 -9.781476 6.19888e-6 -32.07911 -9.945219 20.00001 -31.04528 -9.945219 6.19888e-6 -31.04528</float_array>
          <technique_common>
            <accessor source="#edie_leg-mesh-positions-array" count="184" stride="3">
              <param name="X" type="float"/>
              <param name="Y" type="float"/>
              <param name="Z" type="float"/>
            </accessor>
          </technique_common>
        </source>
        <source id="edie_leg-mesh-normals">
          <float_array id="edie_leg-mesh-normals-array" count="798">-0.994522 0 0.104528 -0.9945219 0 0.1045292 -0.994522 0 -0.104528 -0.9945219 0 -0.1045292 -0.9510568 0 -0.3090161 -0.9510568 0 -0.3090162 -0.866024 0 -0.5000025 -0.8660269 0 -0.4999974 -0.7431486 0 -0.6691265 -0.7431381 0 -0.6691381 -0.5877861 0 -0.8090164 -0.5877861 0 -0.8090165 -0.4067392 0 -0.9135444 -0.4067391 0 -0.9135444 -0.2079182 0 -0.9781463 -0.207907 0 -0.9781486 0 0 -1 0.207907 0 -0.9781486 0.2079182 0 -0.9781463 0.4067392 0 -0.9135444 0.4067391 0 -0.9135444 0.5877861 0 -0.8090164 0.5877861 0 -0.8090165 0.7431381 0 -0.6691381 0.7431486 0 -0.6691265 0.8660269 0 -0.4999974 0.866024 0 -0.5000025 0.9510568 0 -0.3090161 0.9510568 0 -0.3090162 0.9945219 0 -0.1045292 0.994522 0 -0.104528 0.9945219 0 0.1045292 0.994522 0 0.104528 0.9510568 0 0.3090161 0.9510568 0 0.3090162 0.866024 0 0.5000025 0.8660269 0 0.4999974 0.7431434 0 0.6691322 0.5877861 0 0.8090164 0.5877861 0 0.8090165 0.4067392 0 0.9135444 0.4067391 0 0.9135444 0.207907 0 0.9781486 0.2079182 0 0.9781463 0 0 1 -0.2079182 0 0.9781463 -0.207907 0 0.9781486 -0.4067392 0 0.9135444 -0.4067391 0 0.9135444 -0.5877861 0 0.8090164 -0.5877861 0 0.8090165 -0.7431434 0 0.6691322 -0.8660269 0 0.4999974 -0.866024 0 0.5000025 -0.9510568 0 0.3090161 -0.9510568 0 0.3090162 0 -1 3.00121e-6 0 -1 -5.963e-7 0 -1 0 0 -1 -2.39159e-6 0 -1 -3.13837e-6 0 -1 1.26011e-6 0 -1 3.64616e-6 0 -1 -4.85606e-6 0 -1 7.33907e-7 0 -1 2.48352e-6 0 -1 -5.80711e-6 0 -1 3.13837e-6 0 -1 -1.26011e-6 0 -1 -3.64616e-6 0 -1 4.85606e-6 0 -1 -7.33907e-7 0 -1 -2.48352e-6 0 -1 5.80711e-6 0 -1 -1.13604e-5 1 0 0 -0.9986295 0 0.05233597 -0.9986296 0 0.05233567 -0.9876883 0 0.1564346 -0.9876885 0 0.1564337 -0.9659259 0 0.2588193 -0.9659259 0 0.2588193 -0.9335805 0 0.3583678 -0.9335805 0 0.3583677 -0.8910061 0 0.4539915 -0.8386716 0 0.5446376 -0.8386716 0 0.5446377 -0.7771456 0 0.6293209 -0.7771456 0 0.6293209 -0.7071071 0 0.7071065 -0.6293205 0 0.7771459 -0.6293205 0 0.7771459 -0.5446367 0 0.8386722 -0.5446409 0 0.8386695 -0.4539867 0 0.8910086 -0.4539912 0 0.8910062 -0.3583673 0 0.9335807 -0.3583723 0 0.9335787 -0.2588135 0 0.9659274 -0.2588135 0 0.9659274 -0.1564308 0 0.9876889 -0.1564365 0 0.9876881 -0.05233985 0 0.9986293 -0.05233985 0 0.9986294 0.05233985 0 0.9986293 0.05233985 0 0.9986294 0.1564365 0 0.9876881 0.1564308 0 0.9876889 0.2588135 0 0.9659274 0.2588135 0 0.9659274 0.3583723 0 0.9335787 0.3583673 0 0.9335807 0.4539912 0 0.8910062 0.4539867 0 0.8910086 0.5446408 0 0.8386695 0.5446367 0 0.8386721 0.6293205 0 0.7771459 0.6293205 0 0.7771459 0.7071071 0 0.7071065 0.7771456 0 0.6293209 0.7771456 0 0.6293209 0.8386716 0 0.5446376 0.8386716 0 0.5446377 0.8910061 0 0.4539915 0.9335805 0 0.3583678 0.9335805 0 0.3583677 0.9659259 0 0.2588193 0.9659259 0 0.2588193 0.9876885 0 0.1564337 0.9876883 0 0.1564345 0.9986296 0 0.05233567 0.9986295 0 0.05233597 -1 0 0 0.9986295 0 -0.05233597 0.9986295 0 -0.05233597 0.9876883 0 -0.1564346 0.9876883 0 -0.1564345 0.9659262 0 -0.2588178 0.9659259 0 -0.2588193 0.9335805 0 -0.3583678 0.9335798 0 -0.3583697 0.8910073 0 -0.4539891 0.8386697 0 -0.5446403 0.8386698 0 -0.5446404 0.7771479 0 -0.6293181 0.7771456 0 -0.6293209 0.7071071 0 -0.7071065 0.6293205 0 -0.7771459 0.6293205 0 -0.7771459 0.5446408 0 -0.8386695 0.5446367 0 -0.8386721 0.4539958 0 -0.8910038 0.4539867 0 -0.8910086 0.3583673 0 -0.9335807 0.2588135 0 -0.9659274 0.2588189 0 -0.9659259 0.1564365 0 -0.9876881 0.1564308 0 -0.9876889 0.05233985 0 -0.9986293 0.05233985 0 -0.9986294 -0.05233985 0 -0.9986293 -0.05233985 0 -0.9986294 -0.1564308 0 -0.9876889 -0.1564365 0 -0.9876881 -0.2588189 0 -0.9659259 -0.2588135 0 -0.9659274 -0.3583673 0 -0.9335807 -0.4539867 0 -0.8910086 -0.4539958 0 -0.8910038 -0.5446367 0 -0.8386722 -0.5446409 0 -0.8386695 -0.6293205 0 -0.7771459 -0.6293205 0 -0.7771459 -0.7071071 0 -0.7071065 -0.7771456 0 -0.6293209 -0.7771479 0 -0.6293181 -0.8386697 0 -0.5446403 -0.8386698 0 -0.5446404 -0.8910073 0 -0.4539891 -0.9335798 0 -0.3583697 -0.9335805 0 -0.3583677 -0.9659259 0 -0.2588193 -0.9659262 0 -0.2588178 -0.9876883 0 -0.1564346 -0.9876883 0 -0.1564345 -0.9986295 0 -0.05233597 -0.9986295 0 -0.05233597 0 1 0 0 1 -1.40065e-6 0 1 -1.13917e-6 0 1 1.64546e-6 0 1 -1.97365e-6 0 1 8.02755e-7 0 1 0 0 1 0 0 1 0 0 1 0 0 1 4.13979e-7 0 1 -4.63197e-7 0 1 0 0 1 -2.50028e-6 0 1 3.38632e-6 0 1 -2.08181e-6 0 1 2.91955e-6 0 1 -7.68309e-7 0 1 -2.96814e-6 0 1 1.03738e-6 0 1 1.83481e-6 0 1 -1.97633e-6 0 1 3.58187e-6 0 1 -3.66033e-6 0 1 -3.08851e-6 0 1 4.63724e-6 0 1 -4.10173e-6 0 1 1.15538e-6 0 1 -9.85234e-7 0 1 -6.69147e-7 0 1 -4.93416e-6 0 1 -1.64545e-6 0 1 3.38637e-6 0 1 -1.12052e-5 0 1 1.11439e-5 0 -1 0 0 -1 0 0 -1 0 0 -1 0 0 -1 0 0 -1 0 0 -1 0 0 -1 0 0 -1 0 0 -1 0 0 -1 0 0 -1 0 0 -1 0 0 -1 0 0 -1 0 0 -1 0 0 -1 0 0 -1 0 0 -1 0 0 -1 0 0 -1 0 0 -1 0 0 -1 0 0 -1 0 0 -1 0 0 -1 0 0 -1 0 0 -1 0 0 -1 0 0 -1 0 0 -1 0 0 -1 0 0 -1 0 0 -1 0 0 -1 0 0 -1 0 0 -1 0 0 -1 0 0 -1 0 0 -1 0 0 -1 0 0 -1 0 0 -1 0 0 -1 0</float_array>
          <technique_common>
            <accessor source="#edie_leg-mesh-normals-array" count="266" stride="3">
              <param name="X" type="float"/>
              <param name="Y" type="float"/>
              <param name="Z" type="float"/>
            </accessor>
          </technique_common>
        </source>
        <vertices id="edie_leg-mesh-vertices">
          <input semantic="POSITION" source="#edie_leg-mesh-positions"/>
        </vertices>
        <triangles count="364">
          <input semantic="VERTEX" source="#edie_leg-mesh-vertices" offset="0"/>
          <input semantic="NORMAL" source="#edie_leg-mesh-normals" offset="1"/>
          <p>0 0 1 0 2 0 2 1 1 1 3 1 2 2 3 2 4 2 4 3 3 3 5 3 4 4 5 4 6 4 6 5 5 5 7 5 6 6 7 6 8 6 8 7 7 7 9 7 8 8 9 8 10 8 10 9 9 9 11 9 10 10 11 10 12 10 12 11 11 11 13 11 12 12 13 12 14 12 14 13 13 13 15 13 14 14 15 14 16 14 16 15 15 15 17 15 16 16 17 16 18 16 18 16 17 16 19 16 18 17 19 17 20 17 20 18 19 18 21 18 20 19 21 19 22 19 22 20 21 20 23 20 22 21 23 21 24 21 24 22 23 22 25 22 24 23 25 23 26 23 26 24 25 24 27 24 26 25 27 25 28 25 28 26 27 26 29 26 28 27 29 27 30 27 30 28 29 28 31 28 30 29 31 29 32 29 32 30 31 30 33 30 32 31 33 31 34 31 34 32 33 32 35 32 34 33 35 33 36 33 36 34 35 34 37 34 36 35 37 35 38 35 38 36 37 36 39 36 38 37 39 37 40 37 40 37 39 37 41 37 40 38 41 38 42 38 42 39 41 39 43 39 42 40 43 40 44 40 44 41 43 41 45 41 44 42 45 42 46 42 46 43 45 43 47 43 46 44 47 44 48 44 48 44 47 44 49 44 48 45 49 45 50 45 50 46 49 46 51 46 50 47 51 47 52 47 52 48 51 48 53 48 52 49 53 49 54 49 54 50 53 50 55 50 54 51 55 51 56 51 56 51 55 51 57 51 56 52 57 52 58 52 58 53 57 53 59 53 58 54 59 54 0 54 0 55 59 55 1 55 4 56 30 56 2 56 2 57 30 57 32 57 2 58 32 58 0 58 0 59 32 59 34 59 0 60 34 60 58 60 58 61 34 61 36 61 58 58 36 58 56 58 56 62 36 62 38 62 56 63 38 63 54 63 54 64 38 64 40 64 54 58 40 58 52 58 52 65 40 65 42 65 52 58 42 58 50 58 50 66 42 66 44 66 50 58 44 58 48 58 48 58 44 58 46 58 30 67 4 67 28 67 28 68 4 68 6 68 28 58 6 58 26 58 26 69 6 69 8 69 26 70 8 70 24 70 24 71 8 71 10 71 24 58 10 58 22 58 22 72 10 72 12 72 22 58 12 58 20 58 20 73 12 73 14 73 20 74 14 74 18 74 18 58 14 58 16 58 60 75 61 75 62 75 62 75 61 75 63 75 64 76 65 76 66 76 66 77 65 77 67 77 66 78 67 78 68 78 68 79 67 79 69 79 68 80 69 80 70 80 70 81 69 81 71 81 70 82 71 82 72 82 72 83 71 83 73 83 72 84 73 84 74 84 74 84 73 84 75 84 74 85 75 85 76 85 76 86 75 86 77 86 76 87 77 87 78 87 78 88 77 88 79 88 78 89 79 89 80 89 80 89 79 89 81 89 80 90 81 90 82 90 82 91 81 91 83 91 82 92 83 92 84 92 84 93 83 93 85 93 84 94 85 94 86 94 86 95 85 95 87 95 86 96 87 96 88 96 88 97 87 97 89 97 88 98 89 98 90 98 90 99 89 99 91 99 90 100 91 100 92 100 92 101 91 101 93 101 92 102 93 102 94 102 94 103 93 103 95 103 94 104 95 104 96 104 96 105 95 105 97 105 96 106 97 106 98 106 98 107 97 107 99 107 98 108 99 108 100 108 100 109 99 109 101 109 100 110 101 110 102 110 102 111 101 111 103 111 102 112 103 112 104 112 104 113 103 113 105 113 104 114 105 114 106 114 106 115 105 115 107 115 106 116 107 116 108 116 108 117 107 117 109 117 108 118 109 118 110 118 110 118 109 118 111 118 110 119 111 119 112 119 112 120 111 120 113 120 112 121 113 121 114 121 114 122 113 122 115 122 114 123 115 123 116 123 116 123 115 123 117 123 116 124 117 124 118 124 118 125 117 125 119 125 118 126 119 126 120 126 120 127 119 127 121 127 120 128 121 128 122 128 122 129 121 129 123 129 122 130 123 130 62 130 62 131 123 131 60 131 124 132 65 132 125 132 125 132 65 132 64 132 63 133 61 133 126 133 126 134 61 134 127 134 126 135 127 135 128 135 128 136 127 136 129 136 128 137 129 137 130 137 130 138 129 138 131 138 130 139 131 139 132 139 132 140 131 140 133 140 132 141 133 141 134 141 134 141 133 141 135 141 134 142 135 142 136 142 136 143 135 143 137 143 136 144 137 144 138 144 138 145 137 145 139 145 138 146 139 146 140 146 140 146 139 146 141 146 140 147 141 147 142 147 142 148 141 148 143 148 142 149 143 149 144 149 144 150 143 150 145 150 144 151 145 151 146 151 146 152 145 152 147 152 146 153 147 153 148 153 148 153 147 153 149 153 148 154 149 154 150 154 150 155 149 155 151 155 150 156 151 156 152 156 152 157 151 157 153 157 152 158 153 158 154 158 154 159 153 159 155 159 154 160 155 160 156 160 156 161 155 161 157 161 156 162 157 162 158 162 158 163 157 163 159 163 158 164 159 164 160 164 160 165 159 165 161 165 160 166 161 166 162 166 162 166 161 166 163 166 162 167 163 167 164 167 164 168 163 168 165 168 164 169 165 169 166 169 166 170 165 170 167 170 166 171 167 171 168 171 168 172 167 172 169 172 168 173 169 173 170 173 170 173 169 173 171 173 170 174 171 174 172 174 172 175 171 175 173 175 172 176 173 176 174 176 174 177 173 177 175 177 174 178 175 178 176 178 176 178 175 178 177 178 176 179 177 179 178 179 178 180 177 180 179 180 178 181 179 181 180 181 180 182 179 182 181 182 180 183 181 183 182 183 182 184 181 184 183 184 182 185 183 185 125 185 125 186 183 186 124 186 126 187 128 187 63 187 63 187 128 187 130 187 63 188 130 188 132 188 132 187 134 187 63 187 63 189 134 189 136 189 63 190 136 190 138 190 138 187 140 187 63 187 63 191 140 191 142 191 63 192 142 192 144 192 63 187 144 187 62 187 62 193 144 193 146 193 62 194 146 194 148 194 148 187 150 187 62 187 62 195 150 195 152 195 62 196 152 196 154 196 154 197 156 197 62 197 62 198 156 198 158 198 62 187 158 187 64 187 64 199 158 199 160 199 64 194 160 194 162 194 162 187 164 187 64 187 64 187 164 187 125 187 125 192 164 192 166 192 125 191 166 191 168 191 168 200 170 200 125 200 125 190 170 190 172 190 125 189 172 189 174 189 174 201 176 201 125 201 125 188 176 188 178 188 125 187 178 187 180 187 180 202 182 202 125 202 62 203 64 203 122 203 122 204 64 204 66 204 122 205 66 205 120 205 120 206 66 206 68 206 120 187 68 187 118 187 118 207 68 207 70 207 118 187 70 187 116 187 116 208 70 208 72 208 116 209 72 209 114 209 114 210 72 210 74 210 114 187 74 187 112 187 112 211 74 211 76 211 112 212 76 212 110 212 110 213 76 213 78 213 110 187 78 187 108 187 108 214 78 214 80 214 108 187 80 187 106 187 106 215 80 215 82 215 106 187 82 187 104 187 104 216 82 216 84 216 104 187 84 187 102 187 102 217 84 217 86 217 102 187 86 187 100 187 100 218 86 218 88 218 100 187 88 187 98 187 98 219 88 219 90 219 98 220 90 220 96 220 96 221 90 221 92 221 96 187 92 187 94 187 5 222 3 222 79 222 79 223 3 223 1 223 79 224 1 224 81 224 81 225 1 225 59 225 81 226 59 226 57 226 57 58 55 58 81 58 81 227 55 227 53 227 81 228 53 228 51 228 51 229 49 229 81 229 81 230 49 230 47 230 81 58 47 58 111 58 111 58 47 58 119 58 111 58 119 58 113 58 113 58 119 58 115 58 115 58 119 58 117 58 47 231 45 231 119 231 119 232 45 232 43 232 119 233 43 233 41 233 41 234 39 234 119 234 119 235 39 235 37 235 119 236 37 236 35 236 35 58 33 58 119 58 119 237 33 237 31 237 119 58 31 58 60 58 60 238 31 238 29 238 60 58 29 58 61 58 61 239 29 239 27 239 61 58 27 58 143 58 143 240 27 240 25 240 143 241 25 241 145 241 145 58 25 58 147 58 147 242 25 242 23 242 147 243 23 243 149 243 149 58 23 58 151 58 151 244 23 244 21 244 151 245 21 245 153 245 153 58 21 58 19 58 153 246 19 246 155 246 155 58 19 58 17 58 155 247 17 247 157 247 157 58 17 58 159 58 159 248 17 248 161 248 161 58 17 58 163 58 163 58 17 58 165 58 165 58 17 58 167 58 167 58 17 58 124 58 167 58 124 58 169 58 169 249 124 249 171 249 171 58 124 58 173 58 173 58 124 58 175 58 175 250 124 250 177 250 177 58 124 58 179 58 179 58 124 58 181 58 181 58 124 58 183 58 17 251 15 251 124 251 124 252 15 252 13 252 124 253 13 253 11 253 11 254 9 254 124 254 124 239 9 239 7 239 124 58 7 58 65 58 65 238 7 238 5 238 65 58 5 58 79 58 143 58 141 58 61 58 61 255 141 255 139 255 61 58 139 58 137 58 137 58 135 58 61 58 61 250 135 250 133 250 61 58 133 58 131 58 131 58 129 58 61 58 61 58 129 58 127 58 123 58 121 58 60 58 60 58 121 58 119 58 111 58 109 58 81 58 81 256 109 256 83 256 83 257 109 257 107 257 83 58 107 58 85 58 85 258 107 258 105 258 85 58 105 58 87 58 87 259 105 259 103 259 87 58 103 58 89 58 89 260 103 260 101 260 89 58 101 58 91 58 91 261 101 261 99 261 91 262 99 262 93 262 93 263 99 263 97 263 93 58 97 58 95 58 79 58 77 58 65 58 65 264 77 264 75 264 65 265 75 265 73 265 73 58 71 58 65 58 65 58 71 58 69 58 65 58 69 58 67 58</p>
        </triangles>
      </mesh>
    </geometry>
  </library_geometries>
  <library_visual_scenes>
    <visual_scene id="Scene" name="Scene">
      <node id="edie_leg" name="edie_leg" type="NODE">
        <matrix sid="transform">0.001 0 0 0 0 0.001 0 0 0 0 0.001 0.03 0 0 0 1</matrix>
        <instance_geometry url="#edie_leg-mesh" name="edie_leg"/>
      </node>
      <node id="Camera" name="Camera" type="NODE">
        <matrix sid="transform">0.6859207 -0.3240135 0.6515582 7.358891 0.7276763 0.3054208 -0.6141704 -6.925791 0 0.8953956 0.4452714 4.958309 0 0 0 1</matrix>
        <instance_camera url="#Camera-camera"/>
      </node>
      <node id="Light" name="Light" type="NODE">
        <matrix sid="transform">-0.2908646 -0.7711008 0.5663932 4.076245 0.9551712 -0.1998834 0.2183912 1.005454 -0.05518906 0.6045247 0.7946723 5.903862 0 0 0 1</matrix>
        <instance_light url="#Light-light"/>
      </node>
    </visual_scene>
  </library_visual_scenes>
  <scene>
    <instance_visual_scene url="#Scene"/>
  </scene>
</COLLADA>