<?xml version="1.0" encoding="utf-8"?>
<COLLADA xmlns="http://www.collada.org/2005/11/COLLADASchema" version="1.4.1" xmlns:xsi="http://www.w3.org/2001/XMLSchema-instance">
  <asset>
    <contributor>
      <author>Blender User</author>
      <authoring_tool>Blender 4.2.1 LTS commit date:2024-08-19, commit time:11:21, hash:396f546c9d82</authoring_tool>
    </contributor>
    <created>2025-03-26T15:15:45</created>
    <modified>2025-03-26T15:15:45</modified>
    <unit name="meter" meter="1"/>
    <up_axis>Z_UP</up_axis>
  </asset>
  <library_effects>
    <effect id="Material_004-effect">
      <profile_COMMON>
        <technique sid="common">
          <lambert>
            <emission>
              <color sid="emission">0 0 0 1</color>
            </emission>
            <diffuse>
              <color sid="diffuse">0.06586364 0.06586364 0.06586364 1</color>
            </diffuse>
            <index_of_refraction>
              <float sid="ior">1.5</float>
            </index_of_refraction>
          </lambert>
        </technique>
      </profile_COMMON>
    </effect>
  </library_effects>
  <library_images/>
  <library_materials>
    <material id="Material_004-material" name="Material.004">
      <instance_effect url="#Material_004-effect"/>
    </material>
  </library_materials>
  <library_geometries>
    <geometry id="edie8_3_caster_wheel-mesh" name="edie8_3_caster_wheel">
      <mesh>
        <source id="edie8_3_caster_wheel-mesh-positions">
          <float_array id="edie8_3_caster_wheel-mesh-positions-array" count="1032">0.004519879 -0.005206644 -0.01833796 0.002363622 -0.008007228 -0.01643979 0 -0.008007228 -0.01660883 0 -0.008372724 -0.01599621 0 -0.005206644 -0.0188868 -0.002363622 -0.008007228 -0.01643979 -0.004140079 -0.008372724 -0.01545113 0.004679203 -0.008007228 -0.01593607 0.004140079 -0.008372724 -0.01545113 0.008777141 -0.005206644 -0.01672345 0.006899535 -0.008007228 -0.01510792 0.00897938 -0.008007228 -0.01397228 0.007998108 -0.008372724 -0.01385313 0.01252424 -0.005206644 -0.01413697 0.01087647 -0.008007228 -0.01255214 0.01255214 -0.008007228 -0.01087647 0.01131099 -0.008372724 -0.01131099 0.01554352 -0.005206644 -0.01072889 0.01397222 -0.008007228 -0.008979439 0.01765948 -0.005206644 -0.006697356 0.01510792 -0.008007228 -0.006899535 0.01385313 -0.008372724 -0.007998108 0.01593607 -0.008007228 -0.004679262 0.01874911 -0.005206644 -0.002276539 0.01643979 -0.008007228 -0.002363681 0.01545113 -0.008372724 -0.004140079 0.01660883 -0.008007228 0 0.01874911 -0.005206644 0.002276539 0.01643979 -0.008007228 0.002363681 0.01599621 -0.008372724 0 0.01765948 -0.005206644 0.006697356 0.01593607 -0.008007228 0.004679262 0.01545113 -0.008372724 0.004140079 0.01510792 -0.008007228 0.006899535 0.01554352 -0.005206644 0.01072889 0.01397228 -0.008007228 0.008979439 0.01385313 -0.008372724 0.007998108 0.01255214 -0.008007228 0.01087647 0.01252424 -0.005206644 0.01413697 0.01087647 -0.008007228 0.01255214 0.01131099 -0.008372724 0.01131099 0.008777141 -0.005206644 0.01672345 0.00897938 -0.008007228 0.01397228 0.006899535 -0.008007228 0.01510792 0.007998108 -0.008372724 0.01385313 0.004519879 -0.005206644 0.01833796 0.004679203 -0.008007228 0.01593607 0.002363622 -0.008007228 0.01643979 0.004140079 -0.008372724 0.01545113 0 -0.005206644 0.0188868 0 -0.008007228 0.01660883 -0.004519879 -0.005206644 0.01833796 -0.002363622 -0.008007228 0.01643979 0 -0.008372724 0.01599621 0 -0.001801431 0.02009612 -0.004809319 -0.001801431 0.01951217 0.004809319 -0.001801431 0.01951217 0.009339153 -0.001801431 0.01779425 0.01332622 -0.001801431 0.01504218 0.01653879 -0.001801431 0.01141589 0.01879024 -0.001801431 0.007126152 0.01994961 -0.001801431 0.002422273 0.01994961 -0.001801431 -0.002422273 0.01879024 -0.001801431 -0.007126152 0.01653879 -0.001801431 -0.01141589 0.01332622 -0.001801431 -0.01504218 0.009339153 -0.001801431 -0.01779425 0.004809319 -0.001801431 -0.01951217 0 -0.001801431 -0.02009612 -0.004519879 -0.005206644 -0.01833796 0.004518628 0.005216121 0.01833277 0.002363622 0.008007228 0.01643979 0 0.008007228 0.01660883 0 0.008372724 0.01599621 0 0.005216121 0.01888144 -0.002363622 0.008007228 0.01643979 -0.004140079 0.008372724 0.01545113 0.004679203 0.008007228 0.01593607 0.004140079 0.008372724 0.01545113 0.008774638 0.005216121 0.01671868 0.006899535 0.008007228 0.01510792 0.00897938 0.008007228 0.01397228 0.007998108 0.008372724 0.01385313 0.01252073 0.005216121 0.01413297 0.01087647 0.008007228 0.01255214 0.01255214 0.008007228 0.01087647 0.01131099 0.008372724 0.01131099 0.0155391 0.005216121 0.01072585 0.01397228 0.008007228 0.008979439 0.01765447 0.005216121 0.006695449 0.01510792 0.008007228 0.006899535 0.01385313 0.008372724 0.007998108 0.01593607 0.008007228 0.004679262 0.01874381 0.005216121 0.002275884 0.01643979 0.008007228 0.002363681 0.01545113 0.008372724 0.004140079 0.01660883 0.008007228 0 0.01874381 0.005216121 -0.002275884 0.01643979 0.008007228 -0.002363681 0.01599621 0.008372724 0 0.01765447 0.005216121 -0.006695449 0.01593607 0.008007228 -0.004679262 0.01545113 0.008372724 -0.004140079 0.01510792 0.008007228 -0.006899535 0.0155391 0.005216121 -0.01072585 0.01397228 0.008007228 -0.008979439 0.01385313 0.008372724 -0.007998108 0.01255214 0.008007228 -0.01087647 0.01252073 0.005216121 -0.01413297 0.01087647 0.008007228 -0.01255214 0.01131099 0.008372724 -0.01131099 0.008774638 0.005216121 -0.01671868 0.00897938 0.008007228 -0.01397228 0.006899535 0.008007228 -0.01510792 0.007998108 0.008372724 -0.01385313 0.004518628 0.005216121 -0.01833277 0.004679203 0.008007228 -0.01593607 0.002363622 0.008007228 -0.01643979 0.004140079 0.008372724 -0.01545113 0 0.005216121 -0.01888144 0 0.008007228 -0.01660883 -0.004518628 0.005216121 -0.01833277 -0.002363622 0.008007228 -0.01643979 0 0.008372724 -0.01599621 0 0.00181216 -0.02009427 -0.004808843 0.00181216 -0.01951038 0.004808843 0.00181216 -0.01951038 0.009338259 0.00181216 -0.01779264 0.01332497 0.00181216 -0.01504081 0.0165373 0.00181216 -0.01141482 0.01878851 0.00181216 -0.007125496 0.01994776 0.00181216 -0.002422094 0.01994776 0.00181216 0.002422094 0.01878851 0.00181216 0.007125496 0.0165373 0.00181216 0.01141482 0.01332497 0.00181216 0.01504081 0.009338259 0.00181216 0.01779264 0.004808843 0.00181216 0.01951038 0 0.00181216 0.02009427 -0.004518628 0.005216121 0.01833277 -0.004808843 0.00181216 0.01951038 -0.004809319 -0.001801431 -0.01951217 -0.002389848 -0.008499979 -0.01510632 -0.003463804 -0.008499979 -0.002000212 -0.003999948 -0.008499979 0 -0.003999948 0.008499979 0 -0.004723608 -0.008499979 0.01454645 -0.003463804 -0.008499979 0.002000212 -0.003463804 0.008499979 0.002000212 -0.004723608 -0.008499979 -0.01454645 -0.002000212 -0.008499979 -0.003463804 -0.003463804 0.008499979 -0.002000212 0 -0.008499979 -0.01529425 0 -0.008499979 -0.003999948 -0.002000212 0.008499979 -0.003463804 0.002389848 -0.008499979 -0.01510632 0.002000212 -0.008499979 -0.003463804 0 0.008499979 -0.003999948 0.003463804 -0.008499979 -0.002000212 0.002000212 0.008499979 -0.003463804 0.004723608 -0.008499979 -0.01454645 0.003999948 -0.008499979 0 0.003463804 0.008499979 -0.002000212 0.002389848 -0.008499979 0.01510632 0.003463804 -0.008499979 0.002000212 0.003999948 0.008499979 0 0.004723608 -0.008499979 0.01454645 0.002000212 -0.008499979 0.003463804 0.003463804 0.008499979 0.002000212 0 -0.008499979 0.01529425 0 -0.008499979 0.003999948 0.002000212 0.008499979 0.003463804 -0.002389848 -0.008499979 0.01510632 -0.002000212 -0.008499979 0.003463804 0 0.008499979 0.003999948 -0.002000212 0.008499979 0.003463804 -0.006941318 -0.008499979 0.01362818 -0.006941318 -0.008499979 -0.01362824 -0.008988201 -0.008499979 0.01237422 -0.008988201 -0.008499979 -0.01237422 -0.007998108 -0.008372724 -0.01385313 -0.01081371 -0.008499979 0.01081538 -0.01081371 -0.008499979 -0.01081538 -0.01237285 -0.008499979 0.008990108 -0.01237285 -0.008499979 -0.008990108 -0.01131099 -0.008372724 -0.01131099 -0.01362711 -0.008499979 0.006943464 -0.01362711 -0.008499979 -0.006943464 -0.01385313 -0.008372724 -0.007998108 -0.01454567 -0.008499979 0.004725933 -0.01454567 -0.008499979 -0.004725933 -0.01510596 -0.008499979 0.002392232 -0.01510596 -0.008499979 -0.002392232 -0.01545113 -0.008372724 -0.004140079 -0.01529425 -0.008499979 0 -0.01599621 -0.008372724 0 -0.01545113 -0.008372724 0.004140079 -0.01385313 -0.008372724 0.007998108 -0.01131099 -0.008372724 0.01131099 -0.007998108 -0.008372724 0.01385313 -0.004140079 -0.008372724 0.01545113 0.006941318 -0.008499979 -0.01362818 0.006941318 -0.008499979 0.01362824 0.008988201 -0.008499979 -0.01237422 0.008988201 -0.008499979 0.01237422 0.01081371 -0.008499979 -0.01081538 0.01081371 -0.008499979 0.01081538 0.01237285 -0.008499979 -0.008990108 0.01237285 -0.008499979 0.008990108 0.01362711 -0.008499979 -0.006943464 0.01362711 -0.008499979 0.006943464 0.01454567 -0.008499979 -0.004725933 0.01454567 -0.008499979 0.004725933 0.01510596 -0.008499979 -0.002392232 0.01510596 -0.008499979 0.002392232 0.01529425 -0.008499979 0 -0.002389848 0.008499979 0.01510632 -0.004723608 0.008499979 -0.01454645 -0.004723608 0.008499979 0.01454645 0 0.008499979 0.01529425 0.002389848 0.008499979 0.01510632 0.004723608 0.008499979 0.01454645 0.002389848 0.008499979 -0.01510632 0.004723608 0.008499979 -0.01454645 0 0.008499979 -0.01529425 -0.002389848 0.008499979 -0.01510632 -0.004140079 0.008372724 -0.01545113 0.006941318 0.008499979 0.01362824 0.006941318 0.008499979 -0.01362824 0.008988201 0.008499979 0.01237422 0.008988201 0.008499979 -0.01237422 0.01081371 0.008499979 0.01081538 0.01081371 0.008499979 -0.01081538 0.01237285 0.008499979 0.008990108 0.01237285 0.008499979 -0.008990108 0.01362711 0.008499979 0.006943464 0.01362711 0.008499979 -0.006943464 0.01454567 0.008499979 0.004725933 0.01454567 0.008499979 -0.004725933 0.01510596 0.008499979 0.002392232 0.01510596 0.008499979 -0.002392232 0.01529425 0.008499979 0 -0.006941318 0.008499979 -0.01362824 -0.006941318 0.008499979 0.01362824 -0.008988201 0.008499979 -0.01237422 -0.008988201 0.008499979 0.01237422 -0.007998108 0.008372724 0.01385313 -0.01081371 0.008499979 -0.01081538 -0.01081371 0.008499979 0.01081538 -0.01237285 0.008499979 -0.008990108 -0.01237285 0.008499979 0.008990108 -0.01131099 0.008372724 0.01131099 -0.01362711 0.008499979 -0.006943464 -0.01362711 0.008499979 0.006943464 -0.01385313 0.008372724 0.007998108 -0.01454567 0.008499979 -0.004725933 -0.01454567 0.008499979 0.004725933 -0.01510596 0.008499979 -0.002392232 -0.01510596 0.008499979 0.002392232 -0.01545113 0.008372724 0.004140079 -0.01529425 0.008499979 0 -0.01599621 0.008372724 0 -0.01545113 0.008372724 -0.004140079 -0.01385313 0.008372724 -0.007998108 -0.01131099 0.008372724 -0.01131099 -0.007998108 0.008372724 -0.01385313 -0.004679203 -0.008007228 0.01593607 -0.008777141 -0.005206644 0.01672345 -0.006899535 -0.008007228 0.01510792 -0.00897938 -0.008007228 0.01397228 -0.01252424 -0.005206644 0.01413697 -0.01087647 -0.008007228 0.01255214 -0.01255214 -0.008007228 0.01087647 -0.01554352 -0.005206644 0.01072889 -0.01397222 -0.008007228 0.008979439 -0.01765948 -0.005206644 0.006697356 -0.01510792 -0.008007228 0.006899535 -0.01593607 -0.008007228 0.004679262 -0.01874911 -0.005206644 0.002276539 -0.01643979 -0.008007228 0.002363681 -0.01660883 -0.008007228 0 -0.01874911 -0.005206644 -0.002276539 -0.01643979 -0.008007228 -0.002363681 -0.01765948 -0.005206644 -0.006697356 -0.01593607 -0.008007228 -0.004679262 -0.01510792 -0.008007228 -0.006899535 -0.01554352 -0.005206644 -0.01072889 -0.01397228 -0.008007228 -0.008979439 -0.01255214 -0.008007228 -0.01087647 -0.01252424 -0.005206644 -0.01413697 -0.01087647 -0.008007228 -0.01255214 -0.008777141 -0.005206644 -0.01672345 -0.00897938 -0.008007228 -0.01397228 -0.006899535 -0.008007228 -0.01510792 -0.004679203 -0.008007228 -0.01593607 -0.009339153 -0.001801431 -0.01779425 -0.01332622 -0.001801431 -0.01504218 -0.01653879 -0.001801431 -0.01141589 -0.01879024 -0.001801431 -0.007126152 -0.01994961 -0.001801431 -0.002422273 -0.01994961 -0.001801431 0.002422273 -0.01879024 -0.001801431 0.007126152 -0.01653879 -0.001801431 0.01141589 -0.01332622 -0.001801431 0.01504218 -0.009339153 -0.001801431 0.01779425 -0.004679203 0.008007228 -0.01593607 -0.008774638 0.005216121 -0.01671868 -0.006899535 0.008007228 -0.01510792 -0.00897938 0.008007228 -0.01397228 -0.01252073 0.005216121 -0.01413297 -0.01087647 0.008007228 -0.01255214 -0.01255214 0.008007228 -0.01087647 -0.0155391 0.005216121 -0.01072585 -0.01397228 0.008007228 -0.008979439 -0.01765447 0.005216121 -0.006695449 -0.01510792 0.008007228 -0.006899535 -0.01593607 0.008007228 -0.004679262 -0.01874381 0.005216121 -0.002275884 -0.01643979 0.008007228 -0.002363681 -0.01660883 0.008007228 0 -0.01874381 0.005216121 0.002275884 -0.01643979 0.008007228 0.002363681 -0.01765447 0.005216121 0.006695449 -0.01593607 0.008007228 0.004679262 -0.01510792 0.008007228 0.006899535 -0.0155391 0.005216121 0.01072585 -0.01397228 0.008007228 0.008979439 -0.01255214 0.008007228 0.01087647 -0.01252073 0.005216121 0.01413297 -0.01087647 0.008007228 0.01255214 -0.008774638 0.005216121 0.01671868 -0.00897938 0.008007228 0.01397228 -0.006899535 0.008007228 0.01510792 -0.004679203 0.008007228 0.01593607 -0.009338259 0.00181216 0.01779264 -0.01332497 0.00181216 0.01504081 -0.0165373 0.00181216 0.01141482 -0.01878851 0.00181216 0.007125496 -0.01994776 0.00181216 0.002422094 -0.01994776 0.00181216 -0.002422094 -0.01878851 0.00181216 -0.007125496 -0.0165373 0.00181216 -0.01141482 -0.01332497 0.00181216 -0.01504081 -0.009338259 0.00181216 -0.01779264</float_array>
          <technique_common>
            <accessor source="#edie8_3_caster_wheel-mesh-positions-array" count="344" stride="3">
              <param name="X" type="float"/>
              <param name="Y" type="float"/>
              <param name="Z" type="float"/>
            </accessor>
          </technique_common>
        </source>
        <source id="edie8_3_caster_wheel-mesh-normals">
          <float_array id="edie8_3_caster_wheel-mesh-normals-array" count="1032">0.208846 -0.4799577 -0.8520704 0.08082526 -0.762635 -0.6417594 6.37322e-6 -0.7521286 -0.6590164 -0.005537271 -0.9326612 -0.3607112 0.003273129 -0.4811322 -0.876642 -0.07601583 -0.7866457 -0.6127071 -0.0926851 -0.9333943 -0.3466765 0.1954095 -0.7527583 -0.6286256 0.09043109 -0.9338281 -0.346103 0.4072062 -0.4783753 -0.7780361 0.2564455 -0.7679811 -0.5868908 0.3607423 -0.7596089 -0.541165 0.1794731 -0.9327395 -0.3127084 0.5823509 -0.4778164 -0.6576923 0.4124686 -0.7680137 -0.4899231 0.4896368 -0.7681535 -0.4125486 0.2570537 -0.9317251 -0.2565381 0.7234374 -0.478863 -0.4973213 0.5430649 -0.7612991 -0.3542658 0.8205499 -0.4786555 -0.3123891 0.5757916 -0.7755082 -0.2589421 0.3129995 -0.9326589 -0.1793841 0.6256314 -0.7564927 -0.1905363 0.8719635 -0.4778821 -0.1063411 0.6098158 -0.7885299 -0.07965797 0.3466721 -0.9333958 -0.09268671 0.6578343 -0.7531375 -0.006168603 0.8709002 -0.4794586 0.1079458 0.6313171 -0.7696781 0.09504902 0.3607102 -0.9326615 -0.005539298 0.8211855 -0.4790063 0.3101732 0.6360967 -0.7492676 0.1843343 0.3461003 -0.9338292 0.09043061 0.5822662 -0.7686487 0.2648497 0.7232602 -0.4779945 0.4984135 0.5430728 -0.7609704 0.3549593 0.3127104 -0.9327379 0.1794778 0.4907039 -0.7657244 0.4157835 0.5796231 -0.4802131 0.6583559 0.4076951 -0.7674606 0.4947614 0.2544363 -0.9322315 0.2573066 0.408881 -0.4794367 0.7765029 0.3694512 -0.7559736 0.5403795 0.2476892 -0.7773187 0.5782958 0.1796308 -0.9326965 0.3127462 0.2110169 -0.4781572 0.8525477 0.1978033 -0.7568945 0.6228841 0.07601583 -0.7866457 0.6127071 0.0926851 -0.9333943 0.3466765 -0.003273129 -0.4811322 0.876642 -6.37201e-6 -0.7521286 0.6590165 -0.208846 -0.4799576 0.8520704 -0.08082532 -0.7626352 0.6417593 0.005537271 -0.9326612 0.3607112 -2.87219e-7 -0.167408 0.9858877 -0.2359387 -0.167408 0.9572396 0.2359376 -0.167408 0.9572398 0.4581644 -0.1674079 0.8729606 0.6537643 -0.1674078 0.7379478 0.8113695 -0.1674078 0.5600485 0.9218209 -0.1674082 0.349601 0.9786995 -0.167408 0.1188361 0.9786996 -0.1674078 -0.1188352 0.9218212 -0.1674081 -0.3496003 0.81137 -0.1674081 -0.5600476 0.653765 -0.1674079 -0.7379472 0.4581653 -0.1674079 -0.87296 0.2359387 -0.167408 -0.9572396 2.88446e-7 -0.167408 -0.9858877 -0.211017 -0.4781572 -0.8525477 0.2087596 0.4806217 0.8517172 0.08078348 0.7627741 0.6415994 1.29583e-5 0.752301 0.6588196 -0.005537271 0.9326611 0.3607115 0.003279149 0.4818022 0.8762739 -0.07598471 0.7867946 0.6125199 -0.0926851 0.9333941 0.346677 0.195366 0.7529246 0.6284399 0.09043079 0.9338279 0.3461037 0.4070366 0.4790413 0.7777152 0.2563558 0.7681398 0.5867223 0.3606479 0.759767 0.5410057 0.1794733 0.9327393 0.3127091 0.5821097 0.4784837 0.6574205 0.4123347 0.7681817 0.4897723 0.4894955 0.7683073 0.4124296 0.2570538 0.9317252 0.2565379 0.7231393 0.4795299 0.4971125 0.5429076 0.7614647 0.354151 0.8202102 0.4793207 0.3122614 0.5756151 0.7756606 0.2588782 0.3129992 0.9326592 0.1793839 0.6254561 0.7566531 0.1904751 0.8716025 0.4785496 0.106298 0.6096112 0.7886905 0.07963424 0.3466714 0.9333962 0.09268629 0.6576539 0.753295 0.006168365 0.8705375 0.4801259 -0.1079052 0.6311191 0.7698428 -0.09503066 0.3607106 0.9326614 0.005539536 0.8208464 0.4796707 -0.3100436 0.6359315 0.7494238 -0.1842692 0.3460999 0.9338293 -0.09043055 0.5820893 0.7688066 -0.2647802 0.7229618 0.4786615 -0.4982063 0.5429115 0.7611383 -0.354846 0.3127102 0.932738 -0.1794777 0.4905633 0.7658787 -0.4156652 0.5793765 0.4808818 -0.6580848 0.4075583 0.7676272 -0.4946156 0.2544364 0.9322317 -0.2573059 0.4087125 0.480101 -0.7761812 0.3693734 0.7561208 -0.5402266 0.2475996 0.7774755 -0.5781232 0.1796308 0.9326967 -0.3127456 0.210931 0.4788238 -0.8521948 0.1977579 0.7570604 -0.622697 0.07598471 0.7867946 -0.6125199 0.0926851 0.9333941 -0.346677 -0.003279149 0.4818022 -0.876274 -1.29571e-5 0.752301 -0.6588196 -0.2087596 0.4806216 -0.8517173 -0.08078348 0.7627741 -0.6415994 0.005537271 0.9326611 -0.3607115 -6.08803e-7 0.1684048 -0.985718 -0.235898 0.1684048 -0.9570748 0.2358975 0.1684048 -0.9570748 0.4580857 0.1684047 -0.8728101 0.6536516 0.1684049 -0.7378208 0.8112298 0.1684046 -0.5599519 0.9216622 0.1684046 -0.3495408 0.9785309 0.1684052 -0.1188156 0.978531 0.1684052 0.1188148 0.9216625 0.1684046 0.3495401 0.8112303 0.168405 0.5599512 0.6536522 0.1684049 0.7378202 0.4580864 0.1684049 0.8728096 0.235898 0.1684048 0.9570748 6.12485e-7 0.1684048 0.985718 -0.210931 0.4788238 0.8521948 -0.2358975 0.1684048 0.9570748 -0.2359376 -0.167408 -0.9572398 -0.01510894 -0.99397 -0.1086062 0.5522798 -0.7702555 0.3188945 0.6377078 -0.7702784 -4.25107e-7 0.6377077 0.7702784 4.26067e-7 -0.03630727 -0.9947039 0.09615612 0.5522831 -0.7702518 -0.3188974 0.5522798 0.7702555 -0.3188946 -0.03628927 -0.9947059 -0.09614181 0.3189058 -0.7702379 0.5522978 0.5522831 0.7702518 0.3188974 0.002426326 -0.9954303 -0.09546011 2.87318e-7 -0.770281 0.6377047 0.3189014 0.7702442 0.5522915 0.01195138 -0.9916386 -0.1284923 -0.3189014 -0.7702441 0.5522915 -2.88101e-7 0.770281 0.6377047 -0.5522831 -0.7702518 0.3188974 -0.3189058 0.7702379 0.5522978 0.03630727 -0.9947039 -0.09615612 -0.6377078 -0.7702784 4.25107e-7 -0.5522798 0.7702555 0.3188945 0.01510894 -0.99397 0.1086062 -0.5522798 -0.7702555 -0.3188945 -0.6377077 0.7702784 -4.26067e-7 0.03628927 -0.9947059 0.09614181 -0.3189058 -0.7702379 -0.5522978 -0.5522831 0.7702518 -0.3188974 -0.002426326 -0.9954303 0.09546005 -2.87318e-7 -0.770281 -0.6377047 -0.3189014 0.7702442 -0.5522915 -0.01195138 -0.9916386 0.1284923 0.3189014 -0.7702441 -0.5522915 2.88101e-7 0.770281 -0.6377047 0.3189058 0.7702379 -0.5522978 -0.04231619 -0.9946967 0.09374397 -0.04231762 -0.9946991 -0.09371846 -0.06608033 -0.9939747 0.08745098 -0.08226132 -0.9916635 -0.09918045 -0.1796308 -0.9326965 -0.3127462 -0.06642311 -0.9955767 0.06644648 -0.06576651 -0.9954317 -0.0692147 -0.08745878 -0.9939733 0.06609207 -0.0874592 -0.9939733 -0.06609243 -0.2544363 -0.9322315 -0.2573066 -0.09369075 -0.9947016 0.04231762 -0.0936892 -0.9947018 -0.04231882 -0.3127103 -0.932738 -0.1794778 -0.09617877 -0.9947009 0.03633093 -0.0961765 -0.9947012 -0.03632754 -0.1085959 -0.9939711 0.01511192 -0.1284112 -0.9916489 -0.01195824 -0.3461003 -0.9338292 -0.09043061 -0.09546208 -0.9954302 -0.002423048 -0.3607102 -0.9326615 0.005539298 -0.346672 -0.9333959 0.09268671 -0.3129995 -0.9326589 0.1793841 -0.2570537 -0.9317251 0.2565381 -0.1794731 -0.9327395 0.3127084 -0.09043109 -0.9338282 0.3461029 0.04231619 -0.9946967 -0.09374397 0.04231762 -0.9946991 0.09371846 0.06608033 -0.9939747 -0.08745098 0.08226132 -0.9916635 0.09918045 0.06642311 -0.9955767 -0.06644648 0.06576651 -0.9954317 0.0692147 0.08745878 -0.9939733 -0.06609207 0.0874592 -0.9939733 0.06609243 0.09369075 -0.9947016 -0.04231762 0.0936892 -0.9947018 0.04231882 0.09617877 -0.9947009 -0.03633093 0.0961765 -0.9947012 0.03632754 0.1085959 -0.9939711 -0.01511192 0.1284112 -0.9916489 0.01195824 0.09546208 -0.9954302 0.002423048 -0.01510894 0.9939701 0.1086063 -0.03630733 0.9947039 -0.09615617 -0.03628933 0.9947059 0.09614199 0.002426326 0.9954304 0.09546005 0.01195138 0.9916386 0.1284925 0.03630733 0.9947039 0.09615617 0.01510894 0.9939701 -0.1086063 0.03628933 0.9947059 -0.09614199 -0.002426326 0.9954304 -0.09546005 -0.01195138 0.9916386 -0.1284925 -0.09043079 0.933828 -0.3461036 0.04231619 0.9946967 0.09374409 0.04231762 0.9946991 -0.09371799 0.06608027 0.9939748 0.08745098 0.0822618 0.9916633 -0.09918218 0.06642329 0.9955767 0.06644612 0.06576663 0.9954317 -0.0692141 0.08745878 0.9939733 0.06609237 0.08745902 0.9939733 -0.06609237 0.09369039 0.9947017 0.04231792 0.0936892 0.9947018 -0.04231876 0.09617948 0.9947009 0.03633028 0.09617638 0.9947012 -0.03632754 0.1085957 0.9939712 0.01511198 0.128412 0.9916489 -0.0119583 0.09546196 0.9954302 -0.002422928 -0.04231619 0.9946967 -0.09374409 -0.04231762 0.9946991 0.09371799 -0.06608027 0.9939748 -0.08745098 -0.0822618 0.9916633 0.09918218 -0.1796308 0.9326967 0.3127456 -0.06642329 0.9955767 -0.06644612 -0.06576663 0.9954317 0.0692141 -0.08745878 0.9939733 -0.06609237 -0.08745902 0.9939733 0.06609237 -0.2544364 0.9322317 0.2573059 -0.09369039 0.9947017 -0.04231792 -0.0936892 0.9947018 0.04231876 -0.3127102 0.932738 0.1794777 -0.09617948 0.9947009 -0.03633028 -0.09617638 0.9947012 0.03632754 -0.1085957 0.9939712 -0.01511198 -0.128412 0.9916489 0.0119583 -0.3460999 0.9338293 0.09043055 -0.09546196 0.9954302 0.002422928 -0.3607106 0.9326614 -0.005539536 -0.3466714 0.9333962 -0.09268623 -0.3129993 0.9326592 -0.1793839 -0.2570539 0.9317252 -0.2565379 -0.1794732 0.9327392 -0.312709 -0.1954095 -0.7527583 0.6286256 -0.4072062 -0.4783753 0.7780361 -0.2564455 -0.7679811 0.5868908 -0.3607423 -0.7596089 0.541165 -0.5823509 -0.4778164 0.6576923 -0.4124686 -0.7680137 0.4899231 -0.4896368 -0.7681535 0.4125486 -0.7234374 -0.478863 0.4973213 -0.5430649 -0.7612991 0.3542658 -0.8205499 -0.4786555 0.3123891 -0.5757916 -0.7755082 0.2589421 -0.6256314 -0.7564927 0.1905363 -0.8719635 -0.4778821 0.1063411 -0.6098158 -0.7885299 0.07965797 -0.6578343 -0.7531375 0.006168603 -0.8709002 -0.4794586 -0.1079458 -0.6313171 -0.7696781 -0.09504902 -0.8211855 -0.4790063 -0.3101732 -0.6360967 -0.7492676 -0.1843343 -0.5822662 -0.7686487 -0.2648497 -0.7232602 -0.4779945 -0.4984135 -0.5430728 -0.7609704 -0.3549593 -0.4907039 -0.7657244 -0.4157835 -0.5796231 -0.4802131 -0.6583559 -0.4076951 -0.7674606 -0.4947614 -0.408881 -0.4794367 -0.7765029 -0.3694512 -0.7559736 -0.5403795 -0.2476892 -0.7773187 -0.5782958 -0.1978033 -0.7568945 -0.6228841 -0.4581644 -0.1674079 -0.8729606 -0.6537643 -0.1674078 -0.7379478 -0.8113695 -0.1674078 -0.5600485 -0.9218209 -0.1674082 -0.349601 -0.9786995 -0.167408 -0.1188361 -0.9786996 -0.1674078 0.1188352 -0.9218212 -0.1674081 0.3496003 -0.81137 -0.1674081 0.5600476 -0.653765 -0.1674079 0.7379472 -0.4581653 -0.1674079 0.87296 -0.195366 0.7529246 -0.6284399 -0.4070366 0.4790413 -0.7777152 -0.2563558 0.7681398 -0.5867223 -0.3606479 0.759767 -0.5410057 -0.5821097 0.4784837 -0.6574205 -0.4123347 0.7681817 -0.4897723 -0.4894955 0.7683073 -0.4124296 -0.7231393 0.4795299 -0.4971125 -0.5429076 0.7614647 -0.354151 -0.8202102 0.4793207 -0.3122614 -0.5756151 0.7756606 -0.2588782 -0.6254561 0.7566531 -0.1904751 -0.8716025 0.4785496 -0.106298 -0.6096112 0.7886905 -0.07963424 -0.6576539 0.753295 -0.006168365 -0.8705375 0.4801259 0.1079052 -0.6311191 0.7698428 0.09503066 -0.8208464 0.4796707 0.3100436 -0.6359315 0.7494238 0.1842692 -0.5820893 0.7688066 0.2647802 -0.7229618 0.4786615 0.4982063 -0.5429115 0.7611383 0.354846 -0.4905633 0.7658787 0.4156652 -0.5793765 0.4808818 0.6580848 -0.4075583 0.7676272 0.4946156 -0.4087125 0.480101 0.7761812 -0.3693734 0.7561208 0.5402266 -0.2475996 0.7774755 0.5781232 -0.1977579 0.7570604 0.622697 -0.4580857 0.1684047 0.8728101 -0.6536516 0.1684049 0.7378208 -0.8112298 0.1684046 0.5599519 -0.9216622 0.1684046 0.3495408 -0.9785309 0.1684052 0.1188156 -0.978531 0.1684052 -0.1188148 -0.9216625 0.1684046 -0.3495401 -0.8112303 0.168405 -0.5599512 -0.6536522 0.1684049 -0.7378202 -0.4580864 0.1684049 -0.8728096</float_array>
          <technique_common>
            <accessor source="#edie8_3_caster_wheel-mesh-normals-array" count="344" stride="3">
              <param name="X" type="float"/>
              <param name="Y" type="float"/>
              <param name="Z" type="float"/>
            </accessor>
          </technique_common>
        </source>
        <vertices id="edie8_3_caster_wheel-mesh-vertices">
          <input semantic="POSITION" source="#edie8_3_caster_wheel-mesh-positions"/>
        </vertices>
        <triangles material="Material_004-material" count="688">
          <input semantic="VERTEX" source="#edie8_3_caster_wheel-mesh-vertices" offset="0"/>
          <input semantic="NORMAL" source="#edie8_3_caster_wheel-mesh-normals" offset="1"/>
          <p>0 0 1 1 2 2 3 3 2 2 1 1 4 4 0 0 2 2 5 5 4 4 2 2 6 6 5 5 2 2 6 6 2 2 3 3 0 0 7 7 1 1 8 8 1 1 7 7 3 3 1 1 8 8 9 9 10 10 7 7 8 8 7 7 10 10 0 0 9 9 7 7 9 9 11 11 10 10 12 12 10 10 11 11 8 8 10 10 12 12 13 13 14 14 11 11 12 12 11 11 14 14 9 9 13 13 11 11 13 13 15 15 14 14 16 16 14 14 15 15 12 12 14 14 16 16 17 17 18 18 15 15 16 16 15 15 18 18 13 13 17 17 15 15 19 19 20 20 18 18 21 21 18 18 20 20 17 17 19 19 18 18 16 16 18 18 21 21 19 19 22 22 20 20 21 21 20 20 22 22 23 23 24 24 22 22 25 25 22 22 24 24 19 19 23 23 22 22 21 21 22 22 25 25 23 23 26 26 24 24 25 25 24 24 26 26 27 27 28 28 26 26 29 29 26 26 28 28 23 23 27 27 26 26 25 25 26 26 29 29 30 30 31 31 28 28 32 32 28 28 31 31 27 27 30 30 28 28 29 29 28 28 32 32 30 30 33 33 31 31 32 32 31 31 33 33 34 34 35 35 33 33 36 36 33 33 35 35 30 30 34 34 33 33 32 32 33 33 36 36 34 34 37 37 35 35 36 36 35 35 37 37 38 38 39 39 37 37 40 40 37 37 39 39 34 34 38 38 37 37 36 36 37 37 40 40 41 41 42 42 39 39 40 40 39 39 42 42 38 38 41 41 39 39 41 41 43 43 42 42 44 44 42 42 43 43 40 40 42 42 44 44 45 45 46 46 43 43 44 44 43 43 46 46 41 41 45 45 43 43 45 45 47 47 46 46 48 48 46 46 47 47 44 44 46 46 48 48 49 49 50 50 47 47 48 48 47 47 50 50 45 45 49 49 47 47 51 51 50 50 49 49 51 51 52 52 50 50 53 53 50 50 52 52 48 48 50 50 53 53 54 54 49 49 45 45 55 55 49 49 54 54 55 55 51 51 49 49 56 56 45 45 41 41 56 56 54 54 45 45 57 57 41 41 38 38 56 56 41 41 57 57 58 58 38 38 34 34 57 57 38 38 58 58 59 59 34 34 30 30 58 58 34 34 59 59 60 60 30 30 27 27 59 59 30 30 60 60 61 61 27 27 23 23 60 60 27 27 61 61 62 62 23 23 19 19 61 61 23 23 62 62 63 63 19 19 17 17 62 62 19 19 63 63 64 64 17 17 13 13 63 63 17 17 64 64 65 65 13 13 9 9 64 64 13 13 65 65 66 66 9 9 0 0 65 65 9 9 66 66 67 67 0 0 4 4 66 66 0 0 67 67 67 67 4 4 68 68 69 69 68 68 4 4 69 69 4 4 5 5 70 70 71 71 72 72 73 73 72 72 71 71 74 74 70 70 72 72 75 75 74 74 72 72 76 76 75 75 72 72 76 76 72 72 73 73 70 70 77 77 71 71 78 78 71 71 77 77 78 78 73 73 71 71 79 79 80 80 77 77 78 78 77 77 80 80 70 70 79 79 77 77 79 79 81 81 80 80 82 82 80 80 81 81 82 82 78 78 80 80 83 83 84 84 81 81 82 82 81 81 84 84 79 79 83 83 81 81 83 83 85 85 84 84 86 86 84 84 85 85 86 86 82 82 84 84 87 87 88 88 85 85 86 86 85 85 88 88 83 83 87 87 85 85 89 89 90 90 88 88 91 91 88 88 90 90 87 87 89 89 88 88 91 91 86 86 88 88 89 89 92 92 90 90 91 91 90 90 92 92 93 93 94 94 92 92 95 95 92 92 94 94 89 89 93 93 92 92 95 95 91 91 92 92 93 93 96 96 94 94 95 95 94 94 96 96 97 97 98 98 96 96 99 99 96 96 98 98 93 93 97 97 96 96 99 99 95 95 96 96 100 100 101 101 98 98 102 102 98 98 101 101 97 97 100 100 98 98 102 102 99 99 98 98 100 100 103 103 101 101 102 102 101 101 103 103 104 104 105 105 103 103 106 106 103 103 105 105 100 100 104 104 103 103 106 106 102 102 103 103 104 104 107 107 105 105 106 106 105 105 107 107 108 108 109 109 107 107 110 110 107 107 109 109 104 104 108 108 107 107 110 110 106 106 107 107 111 111 112 112 109 109 110 110 109 109 112 112 108 108 111 111 109 109 111 111 113 113 112 112 114 114 112 112 113 113 114 114 110 110 112 112 115 115 116 116 113 113 114 114 113 113 116 116 111 111 115 115 113 113 115 115 117 117 116 116 118 118 116 116 117 117 118 118 114 114 116 116 119 119 120 120 117 117 118 118 117 117 120 120 115 115 119 119 117 117 121 121 120 120 119 119 121 121 122 122 120 120 123 123 120 120 122 122 123 123 118 118 120 120 124 124 119 119 115 115 125 125 119 119 124 124 125 125 121 121 119 119 126 126 115 115 111 111 126 126 124 124 115 115 127 127 111 111 108 108 127 127 126 126 111 111 128 128 108 108 104 104 128 128 127 127 108 108 129 129 104 104 100 100 129 129 128 128 104 104 130 130 100 100 97 97 130 130 129 129 100 100 131 131 97 97 93 93 131 131 130 130 97 97 132 132 93 93 89 89 132 132 131 131 93 93 133 133 89 89 87 87 133 133 132 132 89 89 134 134 87 87 83 83 134 134 133 133 87 87 135 135 83 83 79 79 135 135 134 134 83 83 136 136 79 79 70 70 136 136 135 135 79 79 137 137 70 70 74 74 137 137 136 136 70 70 137 137 74 74 138 138 139 139 138 138 74 74 139 139 74 74 75 75 56 56 137 137 138 138 56 56 138 138 54 54 140 140 54 54 138 138 140 140 138 138 139 139 68 68 124 124 126 126 141 141 124 124 68 68 141 141 125 125 124 124 67 67 126 126 127 127 67 67 68 68 126 126 66 66 127 127 128 128 66 66 67 67 127 127 65 65 128 128 129 129 65 65 66 66 128 128 64 64 129 129 130 130 64 64 65 65 129 129 63 63 130 130 131 131 63 63 64 64 130 130 62 62 131 131 132 132 62 62 63 63 131 131 61 61 132 132 133 133 61 61 62 62 132 132 60 60 133 133 134 134 60 60 61 61 133 133 59 59 134 134 135 135 59 59 60 60 134 134 58 58 135 135 136 136 58 58 59 59 135 135 57 57 136 136 137 137 57 57 58 58 136 136 56 56 57 57 137 137 55 55 54 54 140 140 141 141 68 68 69 69 142 142 143 143 144 144 145 145 144 144 143 143 146 146 144 144 147 147 148 148 147 147 144 144 149 149 142 142 144 144 146 146 149 149 144 144 148 148 144 144 145 145 142 142 150 150 143 143 151 151 143 143 150 150 151 151 145 145 143 143 152 152 153 153 150 150 154 154 150 150 153 153 142 142 152 152 150 150 151 151 150 150 154 154 155 155 156 156 153 153 157 157 153 153 156 156 155 155 153 153 152 152 154 154 153 153 157 157 155 155 158 158 156 156 159 159 156 156 158 158 157 157 156 156 159 159 160 160 161 161 158 158 162 162 158 158 161 161 155 155 160 160 158 158 159 159 158 158 162 162 163 163 164 164 161 161 165 165 161 161 164 164 166 166 163 163 161 161 160 160 166 166 161 161 162 162 161 161 165 165 163 163 167 167 164 164 168 168 164 164 167 167 165 165 164 164 168 168 169 169 170 170 167 167 171 171 167 167 170 170 163 163 169 169 167 167 168 168 167 167 171 171 172 172 173 173 170 170 174 174 170 170 173 173 169 169 172 172 170 170 171 171 170 170 174 174 172 172 147 147 173 173 175 175 173 173 147 147 174 174 173 173 175 175 172 172 146 146 147 147 175 175 147 147 148 148 3 3 152 152 142 142 8 8 155 155 152 152 3 3 8 8 152 152 6 6 142 142 149 149 6 6 3 3 142 142 176 176 177 177 149 149 6 6 149 149 177 177 146 146 176 176 149 149 178 178 179 179 177 177 180 180 177 177 179 179 176 176 178 178 177 177 180 180 6 6 177 177 181 181 182 182 179 179 180 180 179 179 182 182 178 178 181 181 179 179 183 183 184 184 182 182 185 185 182 182 184 184 181 181 183 183 182 182 185 185 180 180 182 182 186 186 187 187 184 184 188 188 184 184 187 187 183 183 186 186 184 184 188 188 185 185 184 184 189 189 190 190 187 187 188 188 187 187 190 190 186 186 189 189 187 187 191 191 192 192 190 190 193 193 190 190 192 192 189 189 191 191 190 190 193 193 188 188 190 190 191 191 194 194 192 192 193 193 192 192 194 194 195 195 194 194 191 191 195 195 193 193 194 194 196 196 191 191 189 189 196 196 195 195 191 191 196 196 189 189 186 186 197 197 186 186 183 183 197 197 196 196 186 186 198 198 183 183 181 181 198 198 197 197 183 183 198 198 181 181 178 178 199 199 178 178 176 176 199 199 198 198 178 178 199 199 176 176 146 146 200 200 146 146 172 172 200 200 199 199 146 146 200 200 172 172 169 169 53 53 169 169 163 163 200 200 169 169 53 53 48 48 163 163 166 166 48 48 53 53 163 163 201 201 202 202 166 166 48 48 166 166 202 202 160 160 201 201 166 166 203 203 204 204 202 202 44 44 202 202 204 204 201 201 203 203 202 202 44 44 48 48 202 202 205 205 206 206 204 204 44 44 204 204 206 206 203 203 205 205 204 204 207 207 208 208 206 206 40 40 206 206 208 208 205 205 207 207 206 206 40 40 44 44 206 206 209 209 210 210 208 208 36 36 208 208 210 210 207 207 209 209 208 208 36 36 40 40 208 208 211 211 212 212 210 210 36 36 210 210 212 212 209 209 211 211 210 210 213 213 214 214 212 212 32 32 212 212 214 214 211 211 213 213 212 212 32 32 36 36 212 212 213 213 215 215 214 214 32 32 214 214 215 215 29 29 215 215 213 213 29 29 32 32 215 215 25 25 213 213 211 211 25 25 29 29 213 213 25 25 211 211 209 209 21 21 209 209 207 207 21 21 25 25 209 209 16 16 207 207 205 205 16 16 21 21 207 207 16 16 205 205 203 203 12 12 203 203 201 201 12 12 16 16 203 203 12 12 201 201 160 160 8 8 160 160 155 155 8 8 12 12 160 160 216 216 148 148 145 145 217 217 145 145 151 151 218 218 216 216 145 145 217 217 218 218 145 145 216 216 175 175 148 148 219 219 174 174 175 175 216 216 219 219 175 175 220 220 171 171 174 174 219 219 220 220 174 174 220 220 168 168 171 171 221 221 165 165 168 168 220 220 221 221 168 168 222 222 162 162 165 165 223 223 222 222 165 165 221 221 223 223 165 165 222 222 159 159 162 162 224 224 157 157 159 159 222 222 224 224 159 159 225 225 154 154 157 157 225 225 157 157 224 224 225 225 151 151 154 154 225 225 217 217 151 151 123 123 224 224 222 222 226 226 225 225 224 224 226 226 224 224 123 123 118 118 222 222 223 223 123 123 222 222 118 118 227 227 228 228 223 223 118 118 223 223 228 228 221 221 227 227 223 223 229 229 230 230 228 228 114 114 228 228 230 230 227 227 229 229 228 228 118 118 228 228 114 114 231 231 232 232 230 230 114 114 230 230 232 232 229 229 231 231 230 230 233 233 234 234 232 232 110 110 232 232 234 234 231 231 233 233 232 232 114 114 232 232 110 110 235 235 236 236 234 234 106 106 234 234 236 236 233 233 235 235 234 234 110 110 234 234 106 106 237 237 238 238 236 236 106 106 236 236 238 238 235 235 237 237 236 236 239 239 240 240 238 238 102 102 238 238 240 240 237 237 239 239 238 238 106 106 238 238 102 102 239 239 241 241 240 240 102 102 240 240 241 241 99 99 241 241 239 239 102 102 241 241 99 99 95 95 239 239 237 237 99 99 239 239 95 95 95 95 237 237 235 235 91 91 235 235 233 233 95 95 235 235 91 91 86 86 233 233 231 231 91 91 233 233 86 86 86 86 231 231 229 229 82 82 229 229 227 227 86 86 229 229 82 82 82 82 227 227 221 221 78 78 221 221 220 220 82 82 221 221 78 78 78 78 220 220 219 219 73 73 219 219 216 216 78 78 219 219 73 73 76 76 216 216 218 218 76 76 73 73 216 216 242 242 243 243 218 218 76 76 218 218 243 243 217 217 242 242 218 218 244 244 245 245 243 243 246 246 243 243 245 245 242 242 244 244 243 243 76 76 243 243 246 246 247 247 248 248 245 245 246 246 245 245 248 248 244 244 247 247 245 245 249 249 250 250 248 248 251 251 248 248 250 250 247 247 249 249 248 248 246 246 248 248 251 251 252 252 253 253 250 250 254 254 250 250 253 253 249 249 252 252 250 250 251 251 250 250 254 254 255 255 256 256 253 253 254 254 253 253 256 256 252 252 255 255 253 253 257 257 258 258 256 256 259 259 256 256 258 258 255 255 257 257 256 256 254 254 256 256 259 259 257 257 260 260 258 258 259 259 258 258 260 260 261 261 260 260 257 257 259 259 260 260 261 261 262 262 257 257 255 255 261 261 257 257 262 262 262 262 255 255 252 252 263 263 252 252 249 249 262 262 252 252 263 263 264 264 249 249 247 247 263 263 249 249 264 264 264 264 247 247 244 244 265 265 244 244 242 242 264 264 244 244 265 265 265 265 242 242 217 217 226 226 217 217 225 225 265 265 217 217 226 226 51 51 266 266 52 52 200 200 52 52 266 266 200 200 53 53 52 52 267 267 268 268 266 266 200 200 266 266 268 268 51 51 267 267 266 266 267 267 269 269 268 268 199 199 268 268 269 269 200 200 268 268 199 199 270 270 271 271 269 269 199 199 269 269 271 271 267 267 270 270 269 269 270 270 272 272 271 271 198 198 271 271 272 272 199 199 271 271 198 198 273 273 274 274 272 272 198 198 272 272 274 274 270 270 273 273 272 272 275 275 276 276 274 274 197 197 274 274 276 276 273 273 275 275 274 274 198 198 274 274 197 197 275 275 277 277 276 276 197 197 276 276 277 277 278 278 279 279 277 277 196 196 277 277 279 279 275 275 278 278 277 277 197 197 277 277 196 196 278 278 280 280 279 279 196 196 279 279 280 280 281 281 282 282 280 280 195 195 280 280 282 282 278 278 281 281 280 280 196 196 280 280 195 195 283 283 284 284 282 282 193 193 282 282 284 284 281 281 283 283 282 282 195 195 282 282 193 193 283 283 285 285 284 284 193 193 284 284 285 285 286 286 287 287 285 285 188 188 285 285 287 287 283 283 286 286 285 285 193 193 285 285 188 188 286 286 288 288 287 287 188 188 287 287 288 288 289 289 290 290 288 288 185 185 288 288 290 290 286 286 289 289 288 288 188 188 288 288 185 185 291 291 292 292 290 290 185 185 290 290 292 292 289 289 291 291 290 290 291 291 293 293 292 292 180 180 292 292 293 293 185 185 292 292 180 180 69 69 294 294 293 293 180 180 293 293 294 294 291 291 69 69 293 293 69 69 5 5 294 294 6 6 294 294 5 5 180 180 294 294 6 6 141 141 69 69 291 291 295 295 291 291 289 289 141 141 291 291 295 295 296 296 289 289 286 286 295 295 289 289 296 296 297 297 286 286 283 283 296 296 286 286 297 297 298 298 283 283 281 281 297 297 283 283 298 298 299 299 281 281 278 278 298 298 281 281 299 299 300 300 278 278 275 275 299 299 278 278 300 300 301 301 275 275 273 273 300 300 275 275 301 301 302 302 273 273 270 270 301 301 273 273 302 302 303 303 270 270 267 267 302 302 270 270 303 303 304 304 267 267 51 51 303 303 267 267 304 304 304 304 51 51 55 55 121 121 305 305 122 122 226 226 122 122 305 305 226 226 123 123 122 122 306 306 307 307 305 305 226 226 305 305 307 307 121 121 306 306 305 305 306 306 308 308 307 307 265 265 307 307 308 308 265 265 226 226 307 307 309 309 310 310 308 308 265 265 308 308 310 310 306 306 309 309 308 308 309 309 311 311 310 310 264 264 310 310 311 311 264 264 265 265 310 310 312 312 313 313 311 311 264 264 311 311 313 313 309 309 312 312 311 311 314 314 315 315 313 313 263 263 313 313 315 315 312 312 314 314 313 313 263 263 264 264 313 313 314 314 316 316 315 315 263 263 315 315 316 316 317 317 318 318 316 316 262 262 316 316 318 318 314 314 317 317 316 316 262 262 263 263 316 316 317 317 319 319 318 318 262 262 318 318 319 319 320 320 321 321 319 319 261 261 319 319 321 321 317 317 320 320 319 319 261 261 262 262 319 319 322 322 323 323 321 321 259 259 321 321 323 323 320 320 322 322 321 321 259 259 261 261 321 321 322 322 324 324 323 323 259 259 323 323 324 324 325 325 326 326 324 324 254 254 324 324 326 326 322 322 325 325 324 324 254 254 259 259 324 324 325 325 327 327 326 326 254 254 326 326 327 327 328 328 329 329 327 327 251 251 327 327 329 329 325 325 328 328 327 327 251 251 254 254 327 327 330 330 331 331 329 329 251 251 329 329 331 331 328 328 330 330 329 329 330 330 332 332 331 331 246 246 331 331 332 332 246 246 251 251 331 331 139 139 333 333 332 332 246 246 332 332 333 333 330 330 139 139 332 332 139 139 75 75 333 333 76 76 333 333 75 75 76 76 246 246 333 333 140 140 139 139 330 330 334 334 330 330 328 328 334 334 140 140 330 330 335 335 328 328 325 325 335 335 334 334 328 328 336 336 325 325 322 322 336 336 335 335 325 325 337 337 322 322 320 320 337 337 336 336 322 322 338 338 320 320 317 317 338 338 337 337 320 320 339 339 317 317 314 314 339 339 338 338 317 317 340 340 314 314 312 312 340 340 339 339 314 314 341 341 312 312 309 309 341 341 340 340 312 312 342 342 309 309 306 306 342 342 341 341 309 309 343 343 306 306 121 121 343 343 342 342 306 306 125 125 343 343 121 121 55 55 140 140 334 334 304 304 334 334 335 335 304 304 55 55 334 334 303 303 335 335 336 336 303 303 304 304 335 335 302 302 336 336 337 337 302 302 303 303 336 336 301 301 337 337 338 338 301 301 302 302 337 337 300 300 338 338 339 339 300 300 301 301 338 338 299 299 339 339 340 340 299 299 300 300 339 339 298 298 340 340 341 341 298 298 299 299 340 340 297 297 341 341 342 342 297 297 298 298 341 341 296 296 342 342 343 343 296 296 297 297 342 342 295 295 343 343 125 125 295 295 296 296 343 343 141 141 295 295 125 125</p>
        </triangles>
      </mesh>
    </geometry>
  </library_geometries>
  <library_visual_scenes>
    <visual_scene id="Scene" name="Scene">
      <node id="edie8_3_caster_wheel" name="edie8_3_caster_wheel" type="NODE">
        <matrix sid="transform">1 0 0 0 0 1 0 0 0 0 1 0 0 0 0 1</matrix>
        <instance_geometry url="#edie8_3_caster_wheel-mesh" name="edie8_3_caster_wheel">
          <bind_material>
            <technique_common>
              <instance_material symbol="Material_004-material" target="#Material_004-material"/>
            </technique_common>
          </bind_material>
        </instance_geometry>
      </node>
    </visual_scene>
  </library_visual_scenes>
  <scene>
    <instance_visual_scene url="#Scene"/>
  </scene>
</COLLADA>